SplineFontDB: 3.0
FontName: Neuton-Extralight
FullName: Neuton Extralight
FamilyName: Neuton
Weight: Extralight
Copyright: Copyright (c) 2010, 2011 Brian M Zick (http://21326.info/), \nwith Reserved Font Name 'Neuton'.\n\nThis Font Software is licensed under the SIL Open Font License, Version 1.1.This license is available with a FAQ at: http://scripts.sil.org/OFL\n   WITHOUT WARRANTIES OR CONDITIONS OF ANY KIND, either express or implied.\n   See the License for the specific language governing permissions and\n   limitations under the License.
UComments: "Neuton is a dark, dutch-inspired, compact text serif, intended for use on screen. Neuton is Brian Zick's debut font, and includes text figures, an extended character set, and smooth, readable forms. Neuton works well in any size, as well as in print." 
Version: 1.43
ItalicAngle: 0
UnderlinePosition: -361
UnderlineWidth: 0
Ascent: 1638
Descent: 410
LayerCount: 2
Layer: 0 1 "Back"  1
Layer: 1 1 "Fore"  0
NeedsXUIDChange: 1
FSType: 1
OS2Version: 1
OS2_WeightWidthSlopeOnly: 0
OS2_UseTypoMetrics: 0
CreationTime: 1304912001
ModificationTime: 1320286516
PfmFamily: 17
TTFWeight: 200
TTFWidth: 5
LineGap: 0
VLineGap: 0
Panose: 2 0 2 3 0 0 0 0 0 0
OS2TypoAscent: 2106
OS2TypoAOffset: 0
OS2TypoDescent: -485
OS2TypoDOffset: 0
OS2TypoLinegap: 0
OS2WinAscent: 2106
OS2WinAOffset: 0
OS2WinDescent: 485
OS2WinDOffset: 0
HheadAscent: 2106
HheadAOffset: 0
HheadDescent: -485
HheadDOffset: 0
OS2Vendor: 'PfEd'
Lookup: 1 0 0 "'onum' Oldstyle Figures lookup 1"  {"'onum' Oldstyle Figures lookup 1-1" ("osf" ) } ['onum' ('DFLT' <'dflt' > 'hebr' <'dflt' > 'latn' <'dflt' > ) ]
MarkAttachClasses: 1
DEI: 91125
ShortTable: maxp 16
  0
  0
  0
  0
  0
  0
  0
  2
  1
  2
  22
  0
  256
  0
  0
  0
EndShort
TtTable: prep
PUSHW_1
 511
SCANCTRL
PUSHB_1
 4
SCANTYPE
EndTTInstrs
TtTable: fpgm
PUSHB_1
 0
FDEF
PUSHB_1
 0
SZP0
MPPEM
PUSHB_1
 42
LT
IF
PUSHB_1
 74
SROUND
EIF
PUSHB_1
 0
SWAP
MIAP[rnd]
RTG
PUSHB_1
 6
CALL
IF
RTDG
EIF
MPPEM
PUSHB_1
 42
LT
IF
RDTG

StartChar: A
Encoding: 65 65 0
Width: 1288
VWidth: 0
Flags: HMW
LayerCount: 2
Fore
SplineSet
444 534 m 1,0,-1
 837 534 l 1,1,-1
 644 1085 l 1,2,-1
 444 534 l 1,0,-1
52 0 m 1,3,-1
 57 42 l 1,4,-1
 199 72 l 1,5,-1
 637 1254 l 1,6,-1
 690 1268 l 1,7,-1
 1105 66 l 1,8,-1
 1237 47 l 1,9,-1
 1229 1 l 1,10,-1
 820 1 l 1,11,-1
 829 43 l 1,12,-1
 995 73 l 1,13,-1
 856 478 l 1,14,-1
 424 478 l 1,15,-1
 276 65 l 1,16,-1
 460 46 l 1,17,-1
 451 0 l 1,18,-1
 52 0 l 1,3,-1
EndSplineSet
Colour: ffff00
EndChar

StartChar: AE
Encoding: 198 198 1
Width: 1714
VWidth: 0
Flags: HMW
LayerCount: 2
Fore
SplineSet
564 537 m 1,0,-1
 878 537 l 1,1,-1
 878 1093 l 1,2,-1
 564 537 l 1,0,-1
53 3 m 1,3,-1
 57 43 l 1,4,-1
 200 73 l 1,5,-1
 854 1180 l 1,6,-1
 621 1205 l 1,7,-1
 627 1244 l 1,8,-1
 1614 1244 l 1,9,-1
 1582 925 l 1,10,-1
 1538 931 l 1,11,-1
 1517 1193 l 1,12,-1
 983 1193 l 1,13,-1
 983 659 l 1,14,-1
 1325 659 l 1,15,-1
 1361 798 l 1,16,-1
 1410 806 l 1,17,-1
 1377 417 l 1,18,-1
 1330 408 l 1,19,-1
 1313 605 l 1,20,-1
 983 605 l 1,21,-1
 983 54 l 1,22,-1
 1547 54 l 1,23,-1
 1618 323 l 1,24,-1
 1660 313 l 1,25,-1
 1630 0 l 1,26,-1
 676 0 l 1,27,-1
 682 42 l 1,28,-1
 875 72 l 1,29,-1
 875 472 l 1,30,-1
 526 472 l 1,31,-1
 290 66 l 1,32,-1
 474 48 l 1,33,-1
 464 3 l 1,34,-1
 53 3 l 1,3,-1
EndSplineSet
Colour: ffff00
EndChar

StartChar: Aacute
Encoding: 193 193 2
Width: 1286
VWidth: 0
Flags: HMW
LayerCount: 2
Fore
SplineSet
428 534 m 1,0,-1
 821 534 l 1,1,-1
 628 1085 l 1,2,-1
 428 534 l 1,0,-1
36 0 m 1,3,-1
 41 42 l 1,4,-1
 183 72 l 1,5,-1
 621 1254 l 1,6,-1
 674 1268 l 1,7,-1
 1089 66 l 1,8,-1
 1221 47 l 1,9,-1
 1213 1 l 1,10,-1
 804 1 l 1,11,-1
 813 43 l 1,12,-1
 979 73 l 1,13,-1
 840 478 l 1,14,-1
 408 478 l 1,15,-1
 260 65 l 1,16,-1
 444 46 l 1,17,-1
 435 0 l 1,18,-1
 36 0 l 1,3,-1
617 1376 m 1,19,-1
 749 1713 l 1,20,-1
 845 1674 l 1,21,-1
 662 1350 l 1,22,-1
 617 1376 l 1,19,-1
EndSplineSet
Colour: ffff00
EndChar

StartChar: Acircumflex
Encoding: 194 194 3
Width: 1287
VWidth: 0
Flags: HMW
LayerCount: 2
Fore
SplineSet
428 534 m 1,0,-1
 821 534 l 1,1,-1
 628 1085 l 1,2,-1
 428 534 l 1,0,-1
36 0 m 1,3,-1
 41 42 l 1,4,-1
 183 72 l 1,5,-1
 621 1254 l 1,6,-1
 674 1268 l 1,7,-1
 1089 66 l 1,8,-1
 1221 47 l 1,9,-1
 1213 1 l 1,10,-1
 804 1 l 1,11,-1
 813 43 l 1,12,-1
 979 73 l 1,13,-1
 840 478 l 1,14,-1
 408 478 l 1,15,-1
 260 65 l 1,16,-1
 444 46 l 1,17,-1
 435 0 l 1,18,-1
 36 0 l 1,3,-1
457 1394 m 1,19,-1
 624 1575 l 1,20,-1
 678 1588 l 1,21,-1
 857 1402 l 1,22,-1
 825 1365 l 1,23,-1
 644 1500 l 1,24,-1
 635 1500 l 1,25,-1
 478 1364 l 1,26,-1
 457 1394 l 1,19,-1
EndSplineSet
Colour: ffff00
EndChar

StartChar: Adieresis
Encoding: 196 196 4
Width: 1287
VWidth: 0
Flags: HMW
LayerCount: 2
Fore
SplineSet
721 1465 m 0,0,1
 721 1543 721 1543 775 1543 c 0,2,3
 833 1543 833 1543 833 1465 c 0,4,5
 833 1384 833 1384 776 1384 c 0,6,7
 721 1384 721 1384 721 1465 c 0,0,1
452 1465 m 0,8,9
 452 1543 452 1543 507 1543 c 0,10,11
 565 1543 565 1543 565 1465 c 0,12,13
 565 1424 565 1424 552.5 1404 c 128,-1,14
 540 1384 540 1384 509 1384 c 0,15,16
 452 1384 452 1384 452 1465 c 0,8,9
428 534 m 1,17,-1
 821 534 l 1,18,-1
 628 1085 l 1,19,-1
 428 534 l 1,17,-1
36 0 m 1,20,-1
 41 42 l 1,21,-1
 183 72 l 1,22,-1
 621 1254 l 1,23,-1
 674 1268 l 1,24,-1
 1089 66 l 1,25,-1
 1221 47 l 1,26,-1
 1213 1 l 1,27,-1
 804 1 l 1,28,-1
 813 43 l 1,29,-1
 979 73 l 1,30,-1
 840 478 l 1,31,-1
 408 478 l 1,32,-1
 260 65 l 1,33,-1
 444 46 l 1,34,-1
 435 0 l 1,35,-1
 36 0 l 1,20,-1
EndSplineSet
Colour: ffff00
EndChar

StartChar: Agrave
Encoding: 192 192 5
Width: 1286
VWidth: 0
Flags: HMW
LayerCount: 2
Fore
SplineSet
428 534 m 1,0,-1
 821 534 l 1,1,-1
 628 1085 l 1,2,-1
 428 534 l 1,0,-1
36 0 m 1,3,-1
 41 42 l 1,4,-1
 183 72 l 1,5,-1
 621 1254 l 1,6,-1
 674 1268 l 1,7,-1
 1089 66 l 1,8,-1
 1221 47 l 1,9,-1
 1213 1 l 1,10,-1
 804 1 l 1,11,-1
 813 43 l 1,12,-1
 979 73 l 1,13,-1
 840 478 l 1,14,-1
 408 478 l 1,15,-1
 260 65 l 1,16,-1
 444 46 l 1,17,-1
 435 0 l 1,18,-1
 36 0 l 1,3,-1
454 1667 m 1,19,-1
 548 1704 l 1,20,-1
 681 1368 l 1,21,-1
 635 1341 l 1,22,-1
 454 1667 l 1,19,-1
EndSplineSet
Colour: ffff00
EndChar

StartChar: Aring
Encoding: 197 197 6
Width: 1286
VWidth: 0
Flags: HMW
LayerCount: 2
Fore
SplineSet
428 534 m 1,0,-1
 821 534 l 1,1,-1
 628 1085 l 1,2,-1
 428 534 l 1,0,-1
36 0 m 1,3,-1
 41 42 l 1,4,-1
 183 72 l 1,5,-1
 621 1254 l 1,6,-1
 674 1268 l 1,7,-1
 1089 66 l 1,8,-1
 1221 47 l 1,9,-1
 1213 1 l 1,10,-1
 804 1 l 1,11,-1
 813 43 l 1,12,-1
 979 73 l 1,13,-1
 840 478 l 1,14,-1
 408 478 l 1,15,-1
 260 65 l 1,16,-1
 444 46 l 1,17,-1
 435 0 l 1,18,-1
 36 0 l 1,3,-1
557 1516 m 0,19,20
 557 1463 557 1463 583.5 1421.5 c 128,-1,21
 610 1380 610 1380 658 1380 c 0,22,23
 702 1380 702 1380 727 1411 c 128,-1,24
 752 1442 752 1442 752 1499 c 0,25,26
 752 1552 752 1552 723.5 1594 c 128,-1,27
 695 1636 695 1636 648 1636 c 0,28,29
 603 1636 603 1636 580 1601 c 128,-1,30
 557 1566 557 1566 557 1516 c 0,19,20
492 1505 m 0,31,32
 492 1575 492 1575 541 1625.5 c 128,-1,33
 590 1676 590 1676 660 1676 c 0,34,35
 732 1676 732 1676 775 1630.5 c 128,-1,36
 818 1585 818 1585 818 1514 c 128,-1,37
 818 1443 818 1443 770 1391 c 128,-1,38
 722 1339 722 1339 648 1339 c 0,39,40
 578 1339 578 1339 535 1384 c 128,-1,41
 492 1429 492 1429 492 1505 c 0,31,32
EndSplineSet
Colour: ffff00
EndChar

StartChar: Atilde
Encoding: 195 195 7
Width: 1287
VWidth: 0
Flags: HMW
LayerCount: 2
Fore
SplineSet
428 534 m 1,0,-1
 821 534 l 1,1,-1
 628 1085 l 1,2,-1
 428 534 l 1,0,-1
36 0 m 1,3,-1
 41 42 l 1,4,-1
 183 72 l 1,5,-1
 621 1254 l 1,6,-1
 674 1268 l 1,7,-1
 1089 66 l 1,8,-1
 1221 47 l 1,9,-1
 1213 1 l 1,10,-1
 804 1 l 1,11,-1
 813 43 l 1,12,-1
 979 73 l 1,13,-1
 840 478 l 1,14,-1
 408 478 l 1,15,-1
 260 65 l 1,16,-1
 444 46 l 1,17,-1
 435 0 l 1,18,-1
 36 0 l 1,3,-1
414 1389 m 1,19,20
 414 1391 414 1391 415 1395 c 128,-1,21
 416 1399 416 1399 419.5 1410.5 c 128,-1,22
 423 1422 423 1422 427 1432 c 128,-1,23
 431 1442 431 1442 438.5 1457.5 c 128,-1,24
 446 1473 446 1473 454.5 1483 c 128,-1,25
 463 1493 463 1493 475.5 1505.5 c 128,-1,26
 488 1518 488 1518 502 1522 c 128,-1,27
 516 1526 516 1526 534 1529 c 128,-1,28
 552 1532 552 1532 572 1524 c 1,29,-1
 753 1470 l 2,30,31
 785 1460 785 1460 809 1477 c 128,-1,32
 833 1494 833 1494 841 1516 c 2,33,-1
 849 1537 l 1,34,-1
 883 1535 l 1,35,36
 882 1533 882 1533 881 1529.5 c 128,-1,37
 880 1526 880 1526 876.5 1514 c 128,-1,38
 873 1502 873 1502 871.5 1499.5 c 2,39,-1
 859 1474.5 l 2,40,41
 848 1452 848 1452 838.5 1441.5 c 128,-1,42
 829 1431 829 1431 816.5 1419 c 128,-1,43
 804 1407 804 1407 789.5 1403 c 128,-1,44
 775 1399 775 1399 756.5 1396 c 128,-1,45
 738 1393 738 1393 717 1401 c 1,46,-1
 541 1453 l 2,47,48
 513 1462 513 1462 487.5 1443 c 128,-1,49
 462 1424 462 1424 452 1400 c 2,50,-1
 442 1377 l 1,51,-1
 414 1389 l 1,19,20
EndSplineSet
Colour: ffff00
EndChar

StartChar: B
Encoding: 66 66 8
Width: 1063
VWidth: 0
Flags: HMW
LayerCount: 2
Fore
SplineSet
327 680 m 1,0,-1
 637 680 l 1,1,2
 704 723 704 723 753 788 c 128,-1,3
 802 853 802 853 802 933 c 0,4,5
 802 1071 802 1071 708.5 1141.5 c 128,-1,6
 615 1212 615 1212 449 1212 c 0,7,8
 354 1212 354 1212 327 1206 c 1,9,-1
 327 680 l 1,0,-1
327 54 m 1,10,-1
 573 54 l 2,11,12
 666 54 666 54 733 79.5 c 128,-1,13
 800 105 800 105 835.5 149 c 128,-1,14
 871 193 871 193 887 242 c 128,-1,15
 903 291 903 291 903 347 c 0,16,17
 903 397 903 397 887 444 c 128,-1,18
 871 491 871 491 836 534.5 c 128,-1,19
 801 578 801 578 736 604.5 c 128,-1,20
 671 631 671 631 583 631 c 2,21,-1
 327 631 l 1,22,-1
 327 54 l 1,10,-1
49 0 m 1,23,-1
 57 42 l 1,24,-1
 226 72 l 1,25,-1
 226 1153 l 1,26,-1
 54 1175 l 1,27,-1
 64 1211 l 1,28,29
 82 1214 82 1214 146 1224 c 128,-1,30
 210 1234 210 1234 235.5 1237.5 c 128,-1,31
 261 1241 261 1241 313 1247 c 128,-1,32
 365 1253 365 1253 410.5 1255 c 128,-1,33
 456 1257 456 1257 507 1257 c 0,34,35
 695 1257 695 1257 799.5 1172.5 c 128,-1,36
 904 1088 904 1088 904 967 c 0,37,38
 904 792 904 792 697 678 c 1,39,-1
 697 672 l 1,40,41
 842 664 842 664 925.5 576.5 c 128,-1,42
 1009 489 1009 489 1009 380 c 0,43,44
 1009 318 1009 318 994 265 c 128,-1,45
 979 212 979 212 940.5 162 c 128,-1,46
 902 112 902 112 843 77 c 128,-1,47
 784 42 784 42 689.5 21 c 128,-1,48
 595 0 595 0 474 0 c 2,49,-1
 49 0 l 1,23,-1
EndSplineSet
Colour: ffff00
EndChar

StartChar: C
Encoding: 67 67 9
Width: 1061
VWidth: 0
Flags: HMW
LayerCount: 2
Fore
SplineSet
54 607 m 0,0,1
 54 682 54 682 69.5 759 c 128,-1,2
 85 836 85 836 114.5 910.5 c 128,-1,3
 144 985 144 985 192 1050 c 128,-1,4
 240 1115 240 1115 300.5 1164.5 c 128,-1,5
 361 1214 361 1214 442.5 1242.5 c 128,-1,6
 524 1271 524 1271 617 1271 c 0,7,8
 824 1271 824 1271 957 1171 c 1,9,-1
 926 834 l 1,10,-1
 879 842 l 1,11,-1
 849 1101 l 1,12,13
 762 1215 762 1215 570 1215 c 0,14,15
 402 1215 402 1215 281 1053.5 c 128,-1,16
 160 892 160 892 160 643 c 0,17,18
 160 362 160 362 277.5 208 c 128,-1,19
 395 54 395 54 611 54 c 0,20,21
 718 54 718 54 819 109 c 128,-1,22
 920 164 920 164 989 243 c 1,23,-1
 1012 206 l 1,24,25
 987 168 987 168 945 129.5 c 128,-1,26
 903 91 903 91 846.5 55 c 128,-1,27
 790 19 790 19 716 -3.5 c 128,-1,28
 642 -26 642 -26 565 -26 c 0,29,30
 335 -26 335 -26 194.5 146.5 c 128,-1,31
 54 319 54 319 54 607 c 0,0,1
EndSplineSet
Colour: ffff00
EndChar

StartChar: Ccedilla
Encoding: 199 199 10
Width: 1061
VWidth: 0
Flags: HMW
LayerCount: 2
Fore
SplineSet
33 607 m 0,0,1
 33 682 33 682 48.5 759 c 128,-1,2
 64 836 64 836 93.5 910.5 c 128,-1,3
 123 985 123 985 171 1050 c 128,-1,4
 219 1115 219 1115 279.5 1164.5 c 128,-1,5
 340 1214 340 1214 421.5 1242.5 c 128,-1,6
 503 1271 503 1271 596 1271 c 0,7,8
 803 1271 803 1271 936 1171 c 1,9,-1
 905 834 l 1,10,-1
 858 842 l 1,11,-1
 828 1101 l 1,12,13
 741 1215 741 1215 549 1215 c 0,14,15
 381 1215 381 1215 260 1053.5 c 128,-1,16
 139 892 139 892 139 643 c 0,17,18
 139 362 139 362 256.5 208 c 128,-1,19
 374 54 374 54 590 54 c 0,20,21
 697 54 697 54 798 109 c 128,-1,22
 899 164 899 164 968 243 c 1,23,-1
 991 206 l 1,24,25
 943 134 943 134 844.5 67 c 128,-1,26
 746 0 746 0 625 -19 c 1,27,-1
 586 -76 l 1,28,29
 675 -155 675 -155 675 -227 c 0,30,31
 675 -283 675 -283 623.5 -322 c 128,-1,32
 572 -361 572 -361 476 -390 c 1,33,-1
 465 -347 l 1,34,35
 508 -332 508 -332 545.5 -300.5 c 128,-1,36
 583 -269 583 -269 583 -247 c 0,37,38
 583 -224 583 -224 573.5 -203.5 c 128,-1,39
 564 -183 564 -183 555 -172.5 c 128,-1,40
 546 -162 546 -162 524.5 -143 c 128,-1,41
 503 -124 503 -124 497 -118 c 1,42,-1
 562 -26 l 1,43,44
 553 -26 553 -26 544 -26 c 0,45,46
 314 -26 314 -26 173.5 146.5 c 128,-1,47
 33 319 33 319 33 607 c 0,0,1
EndSplineSet
Colour: ffff00
EndChar

StartChar: D
Encoding: 68 68 11
Width: 1255
VWidth: 0
Flags: HMW
LayerCount: 2
Fore
SplineSet
327 54 m 1,0,-1
 507 54 l 2,1,2
 771 54 771 54 931.5 212 c 128,-1,3
 1092 370 1092 370 1092 625 c 0,4,5
 1092 906 1092 906 938 1055.5 c 128,-1,6
 784 1205 784 1205 501 1205 c 0,7,8
 355 1205 355 1205 327 1201 c 1,9,-1
 327 54 l 1,0,-1
49 0 m 1,10,-1
 57 42 l 1,11,-1
 226 72 l 1,12,-1
 226 1153 l 1,13,-1
 54 1175 l 1,14,-1
 64 1211 l 1,15,16
 369 1259 369 1259 538 1259 c 0,17,18
 679 1259 679 1259 792.5 1224.5 c 128,-1,19
 906 1190 906 1190 981 1132 c 128,-1,20
 1056 1074 1056 1074 1106 995 c 128,-1,21
 1156 916 1156 916 1178 831.5 c 128,-1,22
 1200 747 1200 747 1200 655 c 0,23,24
 1200 550 1200 550 1175 455.5 c 128,-1,25
 1150 361 1150 361 1094 277 c 128,-1,26
 1038 193 1038 193 955.5 132 c 128,-1,27
 873 71 873 71 751.5 35.5 c 128,-1,28
 630 0 630 0 480 0 c 2,29,-1
 49 0 l 1,10,-1
EndSplineSet
Colour: ffff00
EndChar

StartChar: E
Encoding: 69 69 12
Width: 1064
VWidth: 0
Flags: HMW
LayerCount: 2
Fore
SplineSet
50 1202 m 1,0,-1
 57 1244 l 1,1,-1
 963 1244 l 1,2,-1
 932 925 l 1,3,-1
 886 931 l 1,4,-1
 867 1193 l 1,5,-1
 333 1193 l 1,6,-1
 333 659 l 1,7,-1
 668 659 l 1,8,-1
 705 798 l 1,9,-1
 759 806 l 1,10,-1
 726 417 l 1,11,-1
 675 408 l 1,12,-1
 659 605 l 1,13,-1
 333 605 l 1,14,-1
 333 54 l 1,15,-1
 895 54 l 1,16,-1
 969 323 l 1,17,-1
 1010 313 l 1,18,-1
 980 0 l 1,19,-1
 53 0 l 1,20,-1
 59 42 l 1,21,-1
 229 72 l 1,22,-1
 229 1175 l 1,23,-1
 50 1202 l 1,0,-1
EndSplineSet
Colour: ffff00
EndChar

StartChar: Eacute
Encoding: 201 201 13
Width: 1064
VWidth: 0
Flags: HMW
LayerCount: 2
Fore
SplineSet
20 1202 m 1,0,-1
 27 1244 l 1,1,-1
 933 1244 l 1,2,-1
 902 925 l 1,3,-1
 856 931 l 1,4,-1
 837 1193 l 1,5,-1
 303 1193 l 1,6,-1
 303 659 l 1,7,-1
 638 659 l 1,8,-1
 675 798 l 1,9,-1
 729 806 l 1,10,-1
 696 417 l 1,11,-1
 645 408 l 1,12,-1
 629 605 l 1,13,-1
 303 605 l 1,14,-1
 303 54 l 1,15,-1
 865 54 l 1,16,-1
 939 323 l 1,17,-1
 980 313 l 1,18,-1
 950 0 l 1,19,-1
 23 0 l 1,20,-1
 29 42 l 1,21,-1
 199 72 l 1,22,-1
 199 1175 l 1,23,-1
 20 1202 l 1,0,-1
378 1376 m 1,24,-1
 510 1713 l 1,25,-1
 606 1674 l 1,26,-1
 423 1350 l 1,27,-1
 378 1376 l 1,24,-1
EndSplineSet
Colour: ffff00
EndChar

StartChar: Ecircumflex
Encoding: 202 202 14
Width: 1064
VWidth: 0
Flags: HMW
LayerCount: 2
Fore
SplineSet
20 1202 m 1,0,-1
 27 1244 l 1,1,-1
 933 1244 l 1,2,-1
 902 925 l 1,3,-1
 856 931 l 1,4,-1
 837 1193 l 1,5,-1
 303 1193 l 1,6,-1
 303 659 l 1,7,-1
 638 659 l 1,8,-1
 675 798 l 1,9,-1
 729 806 l 1,10,-1
 696 417 l 1,11,-1
 645 408 l 1,12,-1
 629 605 l 1,13,-1
 303 605 l 1,14,-1
 303 54 l 1,15,-1
 865 54 l 1,16,-1
 939 323 l 1,17,-1
 980 313 l 1,18,-1
 950 0 l 1,19,-1
 23 0 l 1,20,-1
 29 42 l 1,21,-1
 199 72 l 1,22,-1
 199 1175 l 1,23,-1
 20 1202 l 1,0,-1
351 1394 m 1,24,-1
 518 1575 l 1,25,-1
 572 1588 l 1,26,-1
 751 1402 l 1,27,-1
 719 1365 l 1,28,-1
 538 1500 l 1,29,-1
 529 1500 l 1,30,-1
 372 1364 l 1,31,-1
 351 1394 l 1,24,-1
EndSplineSet
Colour: ffff00
EndChar

StartChar: Edieresis
Encoding: 203 203 15
Width: 1064
VWidth: 0
Flags: HMW
LayerCount: 2
Fore
SplineSet
20 1202 m 1,0,-1
 27 1244 l 1,1,-1
 933 1244 l 1,2,-1
 902 925 l 1,3,-1
 856 931 l 1,4,-1
 837 1193 l 1,5,-1
 303 1193 l 1,6,-1
 303 659 l 1,7,-1
 638 659 l 1,8,-1
 675 798 l 1,9,-1
 729 806 l 1,10,-1
 696 417 l 1,11,-1
 645 408 l 1,12,-1
 629 605 l 1,13,-1
 303 605 l 1,14,-1
 303 54 l 1,15,-1
 865 54 l 1,16,-1
 939 323 l 1,17,-1
 980 313 l 1,18,-1
 950 0 l 1,19,-1
 23 0 l 1,20,-1
 29 42 l 1,21,-1
 199 72 l 1,22,-1
 199 1175 l 1,23,-1
 20 1202 l 1,0,-1
617 1454 m 0,24,25
 617 1532 617 1532 671 1532 c 0,26,27
 729 1532 729 1532 729 1454 c 0,28,29
 729 1373 729 1373 672 1373 c 0,30,31
 617 1373 617 1373 617 1454 c 0,24,25
348 1454 m 0,32,33
 348 1532 348 1532 403 1532 c 0,34,35
 461 1532 461 1532 461 1454 c 0,36,37
 461 1413 461 1413 448.5 1393 c 128,-1,38
 436 1373 436 1373 405 1373 c 0,39,40
 348 1373 348 1373 348 1454 c 0,32,33
EndSplineSet
Colour: ffff00
EndChar

StartChar: Egrave
Encoding: 200 200 16
Width: 1064
VWidth: 0
Flags: HMW
LayerCount: 2
Fore
SplineSet
20 1202 m 1,0,-1
 27 1244 l 1,1,-1
 933 1244 l 1,2,-1
 902 925 l 1,3,-1
 856 931 l 1,4,-1
 837 1193 l 1,5,-1
 303 1193 l 1,6,-1
 303 659 l 1,7,-1
 638 659 l 1,8,-1
 675 798 l 1,9,-1
 729 806 l 1,10,-1
 696 417 l 1,11,-1
 645 408 l 1,12,-1
 629 605 l 1,13,-1
 303 605 l 1,14,-1
 303 54 l 1,15,-1
 865 54 l 1,16,-1
 939 323 l 1,17,-1
 980 313 l 1,18,-1
 950 0 l 1,19,-1
 23 0 l 1,20,-1
 29 42 l 1,21,-1
 199 72 l 1,22,-1
 199 1175 l 1,23,-1
 20 1202 l 1,0,-1
328 1667 m 1,24,-1
 422 1704 l 1,25,-1
 555 1368 l 1,26,-1
 509 1341 l 1,27,-1
 328 1667 l 1,24,-1
EndSplineSet
Colour: ffff00
EndChar

StartChar: Eth
Encoding: 208 208 17
Width: 1267
VWidth: 0
Flags: HMW
LayerCount: 2
Fore
SplineSet
330 54 m 1,0,-1
 510 54 l 2,1,2
 776 54 776 54 937 202.5 c 128,-1,3
 1098 351 1098 351 1098 599 c 0,4,5
 1098 878 1098 878 944 1041.5 c 128,-1,6
 790 1205 790 1205 504 1205 c 0,7,8
 358 1205 358 1205 330 1201 c 1,9,-1
 330 672 l 1,10,-1
 617 691 l 1,11,-1
 609 631 l 1,12,-1
 330 612 l 1,13,-1
 330 54 l 1,0,-1
48 592 m 1,14,-1
 57 653 l 1,15,-1
 229 664 l 1,16,-1
 229 1153 l 1,17,-1
 57 1175 l 1,18,-1
 67 1211 l 1,19,20
 372 1259 372 1259 541 1259 c 0,21,22
 689 1259 689 1259 805.5 1225.5 c 128,-1,23
 922 1192 922 1192 997 1135.5 c 128,-1,24
 1072 1079 1072 1079 1121.5 1000 c 128,-1,25
 1171 921 1171 921 1191.5 836 c 128,-1,26
 1212 751 1212 751 1212 655 c 0,27,28
 1212 550 1212 550 1186 455.5 c 128,-1,29
 1160 361 1160 361 1102.5 277 c 128,-1,30
 1045 193 1045 193 961.5 132 c 128,-1,31
 878 71 878 71 755.5 35.5 c 128,-1,32
 633 0 633 0 483 0 c 2,33,-1
 52 0 l 1,34,-1
 60 42 l 1,35,-1
 229 72 l 1,36,-1
 229 605 l 1,37,-1
 48 592 l 1,14,-1
EndSplineSet
Colour: ffff00
EndChar

StartChar: Euro
Encoding: 8364 8364 18
Width: 1142
VWidth: 0
Flags: HMW
LayerCount: 2
Fore
SplineSet
54 693 m 1,0,-1
 56 758 l 1,1,-1
 237 758 l 1,2,3
 255 870 255 870 296.5 962.5 c 128,-1,4
 338 1055 338 1055 403 1124.5 c 128,-1,5
 468 1194 468 1194 561.5 1232.5 c 128,-1,6
 655 1271 655 1271 769 1271 c 0,7,8
 867 1271 867 1271 934 1249 c 128,-1,9
 1001 1227 1001 1227 1075 1171 c 1,10,-1
 1043 834 l 1,11,-1
 999 842 l 1,12,-1
 969 1101 l 1,13,14
 937 1155 937 1155 891.5 1180.5 c 128,-1,15
 846 1206 846 1206 765 1206 c 0,16,17
 592 1206 592 1206 486.5 1088.5 c 128,-1,18
 381 971 381 971 355 758 c 1,19,-1
 891 758 l 1,20,-1
 878 693 l 1,21,-1
 349 693 l 1,22,23
 347 656 347 656 347 616 c 0,24,25
 347 600 347 600 347 584 c 1,26,-1
 845 584 l 1,27,-1
 832 517 l 1,28,-1
 351 517 l 1,29,30
 370 283 370 283 478.5 163 c 128,-1,31
 587 43 587 43 764 43 c 0,32,33
 817 43 817 43 877.5 75.5 c 128,-1,34
 938 108 938 108 984 172 c 1,35,-1
 1016 432 l 1,36,-1
 1060 438 l 1,37,-1
 1091 103 l 1,38,39
 995 35 995 35 911.5 4.5 c 128,-1,40
 828 -26 828 -26 712 -26 c 0,41,42
 510 -26 510 -26 376.5 122 c 128,-1,43
 243 270 243 270 226 517 c 1,44,-1
 48 517 l 1,45,-1
 49 584 l 1,46,-1
 224 584 l 1,47,48
 224 640 224 640 229 693 c 1,49,-1
 54 693 l 1,0,-1
EndSplineSet
Colour: ffff00
EndChar

StartChar: F
Encoding: 70 70 19
Width: 1017
VWidth: 0
Flags: HMW
LayerCount: 2
Fore
SplineSet
50 1202 m 1,0,-1
 57 1244 l 1,1,-1
 963 1244 l 1,2,-1
 930 922 l 1,3,-1
 881 930 l 1,4,-1
 860 1193 l 1,5,-1
 330 1193 l 1,6,-1
 330 633 l 1,7,-1
 663 633 l 1,8,-1
 702 773 l 1,9,-1
 758 780 l 1,10,-1
 727 392 l 1,11,-1
 672 384 l 1,12,-1
 654 580 l 1,13,-1
 330 580 l 1,14,-1
 330 70 l 1,15,-1
 576 53 l 1,16,-1
 564 0 l 1,17,-1
 54 0 l 1,18,-1
 57 42 l 1,19,-1
 227 72 l 1,20,-1
 227 1175 l 1,21,-1
 50 1202 l 1,0,-1
EndSplineSet
Colour: ffff00
EndChar

StartChar: G
Encoding: 71 71 20
Width: 1219
VWidth: 0
Flags: HMW
LayerCount: 2
Fore
SplineSet
54 604 m 0,0,1
 54 696 54 696 79 789.5 c 128,-1,2
 104 883 104 883 155 967.5 c 128,-1,3
 206 1052 206 1052 276 1118 c 128,-1,4
 346 1184 346 1184 443.5 1223 c 128,-1,5
 541 1262 541 1262 652 1262 c 0,6,7
 760 1262 760 1262 863 1237 c 128,-1,8
 966 1212 966 1212 1035 1160 c 1,9,-1
 1005 842 l 1,10,-1
 960 847 l 1,11,-1
 929 1083 l 1,12,13
 890 1133 890 1133 810 1168 c 128,-1,14
 730 1203 730 1203 619 1203 c 0,15,16
 413 1203 413 1203 290.5 1042 c 128,-1,17
 168 881 168 881 168 633 c 0,18,19
 168 542 168 542 184 460 c 128,-1,20
 200 378 200 378 237 301 c 128,-1,21
 274 224 274 224 329.5 168 c 128,-1,22
 385 112 385 112 471 78.5 c 128,-1,23
 557 45 557 45 664 45 c 0,24,25
 819 45 819 45 924 118 c 1,26,-1
 926 492 l 1,27,-1
 685 517 l 1,28,-1
 691 556 l 1,29,-1
 1171 556 l 1,30,-1
 1164 517 l 1,31,-1
 1030 496 l 1,32,-1
 1030 79 l 1,33,34
 935 22 935 22 827 1 c 128,-1,35
 719 -20 719 -20 560 -20 c 0,36,37
 457 -20 457 -20 364.5 24 c 128,-1,38
 272 68 272 68 203.5 147 c 128,-1,39
 135 226 135 226 94.5 344.5 c 128,-1,40
 54 463 54 463 54 604 c 0,0,1
EndSplineSet
Colour: ffff00
EndChar

StartChar: H
Encoding: 72 72 21
Width: 1392
VWidth: 0
Flags: HMW
LayerCount: 2
Fore
SplineSet
49 1205 m 1,0,-1
 52 1244 l 1,1,-1
 508 1244 l 1,2,-1
 503 1205 l 1,3,-1
 334 1182 l 1,4,-1
 334 651 l 1,5,-1
 1052 651 l 1,6,-1
 1052 1180 l 1,7,-1
 868 1205 l 1,8,-1
 875 1244 l 1,9,-1
 1330 1244 l 1,10,-1
 1322 1205 l 1,11,-1
 1155 1182 l 1,12,-1
 1155 65 l 1,13,-1
 1338 46 l 1,14,-1
 1331 0 l 1,15,-1
 878 0 l 1,16,-1
 886 42 l 1,17,-1
 1052 72 l 1,18,-1
 1052 591 l 1,19,-1
 334 591 l 1,20,-1
 334 65 l 1,21,-1
 520 46 l 1,22,-1
 509 0 l 1,23,-1
 57 0 l 1,24,-1
 62 42 l 1,25,-1
 229 72 l 1,26,-1
 229 1180 l 1,27,-1
 49 1205 l 1,0,-1
EndSplineSet
Colour: ffff00
EndChar

StartChar: I
Encoding: 73 73 22
Width: 575
VWidth: 0
Flags: HMW
LayerCount: 2
Fore
SplineSet
47 1205 m 1,0,-1
 53 1244 l 1,1,-1
 510 1244 l 1,2,-1
 503 1205 l 1,3,-1
 328 1182 l 1,4,-1
 328 65 l 1,5,-1
 521 46 l 1,6,-1
 512 0 l 1,7,-1
 57 0 l 1,8,-1
 62 42 l 1,9,-1
 220 72 l 1,10,-1
 220 1180 l 1,11,-1
 47 1205 l 1,0,-1
EndSplineSet
Colour: ffff00
EndChar

StartChar: Iacute
Encoding: 205 205 23
Width: 572
VWidth: 0
Flags: HMW
LayerCount: 2
Fore
SplineSet
22 1205 m 1,0,-1
 28 1244 l 1,1,-1
 485 1244 l 1,2,-1
 478 1205 l 1,3,-1
 303 1182 l 1,4,-1
 303 65 l 1,5,-1
 496 46 l 1,6,-1
 487 0 l 1,7,-1
 32 0 l 1,8,-1
 37 42 l 1,9,-1
 195 72 l 1,10,-1
 195 1180 l 1,11,-1
 22 1205 l 1,0,-1
206 1376 m 1,12,-1
 338 1713 l 1,13,-1
 434 1674 l 1,14,-1
 251 1350 l 1,15,-1
 206 1376 l 1,12,-1
EndSplineSet
Colour: ffff00
EndChar

StartChar: Icircumflex
Encoding: 206 206 24
Width: 623
VWidth: 0
Flags: HMW
LayerCount: 2
Fore
SplineSet
23 1205 m 1,0,-1
 29 1244 l 1,1,-1
 486 1244 l 1,2,-1
 479 1205 l 1,3,-1
 304 1182 l 1,4,-1
 304 65 l 1,5,-1
 497 46 l 1,6,-1
 488 0 l 1,7,-1
 33 0 l 1,8,-1
 38 42 l 1,9,-1
 196 72 l 1,10,-1
 196 1180 l 1,11,-1
 23 1205 l 1,0,-1
52 1394 m 1,12,-1
 219 1575 l 1,13,-1
 273 1588 l 1,14,-1
 452 1402 l 1,15,-1
 420 1365 l 1,16,-1
 239 1500 l 1,17,-1
 230 1500 l 1,18,-1
 73 1364 l 1,19,-1
 52 1394 l 1,12,-1
EndSplineSet
Colour: ffff00
EndChar

StartChar: Idieresis
Encoding: 207 207 25
Width: 588
VWidth: 0
Flags: HMW
LayerCount: 2
Fore
SplineSet
23 1205 m 1,0,-1
 29 1244 l 1,1,-1
 486 1244 l 1,2,-1
 479 1205 l 1,3,-1
 304 1182 l 1,4,-1
 304 65 l 1,5,-1
 497 46 l 1,6,-1
 488 0 l 1,7,-1
 33 0 l 1,8,-1
 38 42 l 1,9,-1
 196 72 l 1,10,-1
 196 1180 l 1,11,-1
 23 1205 l 1,0,-1
336 1454 m 0,12,13
 336 1532 336 1532 390 1532 c 0,14,15
 448 1532 448 1532 448 1454 c 0,16,17
 448 1373 448 1373 391 1373 c 0,18,19
 336 1373 336 1373 336 1454 c 0,12,13
67 1454 m 0,20,21
 67 1532 67 1532 122 1532 c 0,22,23
 180 1532 180 1532 180 1454 c 0,24,25
 180 1413 180 1413 167.5 1393 c 128,-1,26
 155 1373 155 1373 124 1373 c 0,27,28
 67 1373 67 1373 67 1454 c 0,20,21
EndSplineSet
Colour: ffff00
EndChar

StartChar: Igrave
Encoding: 204 204 26
Width: 573
VWidth: 0
Flags: HMW
LayerCount: 2
Fore
SplineSet
23 1205 m 1,0,-1
 29 1244 l 1,1,-1
 486 1244 l 1,2,-1
 479 1205 l 1,3,-1
 304 1182 l 1,4,-1
 304 65 l 1,5,-1
 497 46 l 1,6,-1
 488 0 l 1,7,-1
 33 0 l 1,8,-1
 38 42 l 1,9,-1
 196 72 l 1,10,-1
 196 1180 l 1,11,-1
 23 1205 l 1,0,-1
83 1667 m 1,12,-1
 177 1704 l 1,13,-1
 310 1368 l 1,14,-1
 264 1341 l 1,15,-1
 83 1667 l 1,12,-1
EndSplineSet
Colour: ffff00
EndChar

StartChar: J
Encoding: 74 74 27
Width: 629
VWidth: 0
Flags: HMW
LayerCount: 2
Fore
SplineSet
44 -281 m 1,0,1
 177 -168 177 -168 236 -44 c 128,-1,2
 295 80 295 80 295 282 c 2,3,-1
 295 1180 l 1,4,-1
 115 1205 l 1,5,-1
 120 1244 l 1,6,-1
 579 1244 l 1,7,-1
 573 1205 l 1,8,-1
 406 1182 l 1,9,-1
 402 360 l 2,10,11
 401 212 401 212 384.5 113.5 c 128,-1,12
 368 15 368 15 325.5 -64 c 128,-1,13
 283 -143 283 -143 224.5 -199 c 128,-1,14
 166 -255 166 -255 66 -325 c 1,15,-1
 44 -281 l 1,0,1
EndSplineSet
Colour: ffff00
EndChar

StartChar: K
Encoding: 75 75 28
Width: 1205
VWidth: 0
Flags: HMW
LayerCount: 2
Fore
SplineSet
383 619 m 1,0,1
 477 720 477 720 530 783 c 2,2,-1
 861 1180 l 1,3,-1
 688 1205 l 1,4,-1
 692 1244 l 1,5,-1
 1099 1244 l 1,6,-1
 1096 1205 l 1,7,-1
 943 1182 l 1,8,-1
 487 629 l 1,9,-1
 749 321 l 2,10,11
 865 185 865 185 938.5 126 c 128,-1,12
 1012 67 1012 67 1097 54 c 2,13,-1
 1151 46 l 1,14,-1
 1139 3 l 1,15,16
 1119.5 -3.5 l 2,17,18
 1100 -10 1100 -10 1093 -12.5 c 128,-1,19
 1086 -15 1086 -15 1075.5 -17.5 c 128,-1,20
 1065 -20 1065 -20 1055 -21 c 128,-1,21
 1045 -22 1045 -22 1033 -22 c 0,22,23
 985 -22 985 -22 941.5 -4.5 c 128,-1,24
 898 13 898 13 852 53.5 c 128,-1,25
 806 94 806 94 774.5 129 c 128,-1,26
 743 164 743 164 688 230 c 1,27,-1
 385 604 l 1,28,-1
 383 619 l 1,0,1
48 1205 m 1,29,-1
 53 1244 l 1,30,-1
 502 1244 l 1,31,-1
 499 1205 l 1,32,-1
 329 1182 l 1,33,-1
 329 65 l 1,34,-1
 515 46 l 1,35,-1
 504 0 l 1,36,-1
 58 0 l 1,37,-1
 64 42 l 1,38,-1
 221 72 l 1,39,-1
 221 1180 l 1,40,-1
 48 1205 l 1,29,-1
EndSplineSet
Colour: ffff00
EndChar

StartChar: L
Encoding: 76 76 29
Width: 1039
VWidth: 0
Flags: HMW
LayerCount: 2
Fore
SplineSet
52 0 m 1,0,-1
 57 42 l 1,1,-1
 226 72 l 1,2,-1
 226 1178 l 1,3,-1
 54 1203 l 1,4,-1
 58 1243 l 1,5,-1
 513 1243 l 1,6,-1
 509 1203 l 1,7,-1
 333 1182 l 1,8,-1
 333 54 l 1,9,-1
 863 54 l 1,10,-1
 940 338 l 1,11,-1
 984 330 l 1,12,-1
 952 0 l 1,13,-1
 52 0 l 1,0,-1
EndSplineSet
Colour: ffff00
EndChar

StartChar: M
Encoding: 77 77 30
Width: 1683
VWidth: 0
Flags: HMW
LayerCount: 2
Fore
SplineSet
46 0 m 1,0,-1
 51 33 l 1,1,-1
 218 64 l 1,2,-1
 301 1175 l 1,3,-1
 117 1208 l 1,4,-1
 124 1244 l 1,5,-1
 443 1244 l 1,6,-1
 514 1056 l 1,7,-1
 828 227 l 1,8,-1
 1186 1099 l 1,9,-1
 1247 1244 l 1,10,-1
 1573 1244 l 1,11,-1
 1568 1208 l 1,12,-1
 1396 1178 l 1,13,-1
 1451 57 l 1,14,-1
 1631 40 l 1,15,-1
 1629 0 l 1,16,-1
 1167 0 l 1,17,-1
 1173 33 l 1,18,-1
 1344 64 l 1,19,-1
 1287 1169 l 1,20,-1
 822 60 l 1,21,-1
 772 50 l 1,22,-1
 364 1151 l 1,23,-1
 285 57 l 1,24,-1
 466 40 l 1,25,-1
 460 0 l 1,26,-1
 46 0 l 1,0,-1
EndSplineSet
Colour: ffff00
EndChar

StartChar: N
Encoding: 78 78 31
Width: 1346
VWidth: 0
Flags: HMW
LayerCount: 2
Fore
SplineSet
47 1208 m 1,0,-1
 55 1244 l 1,1,-1
 358 1244 l 1,2,-1
 1049 179 l 1,3,-1
 1049 1180 l 1,4,-1
 866 1205 l 1,5,-1
 872 1244 l 1,6,-1
 1296 1244 l 1,7,-1
 1288 1205 l 1,8,-1
 1122 1182 l 1,9,-1
 1122 -7 l 1,10,-1
 1068 -18 l 1,11,-1
 306 1133 l 1,12,-1
 306 65 l 1,13,-1
 490 46 l 1,14,-1
 480 0 l 1,15,-1
 59 0 l 1,16,-1
 65 42 l 1,17,-1
 232 72 l 1,18,-1
 232 1175 l 1,19,-1
 47 1208 l 1,0,-1
EndSplineSet
Colour: ffff00
EndChar

StartChar: Ntilde
Encoding: 209 209 32
Width: 1345
VWidth: 0
Flags: HMW
LayerCount: 2
Fore
SplineSet
51 1208 m 1,0,-1
 59 1244 l 1,1,-1
 362 1244 l 1,2,-1
 1053 179 l 1,3,-1
 1053 1180 l 1,4,-1
 870 1205 l 1,5,-1
 876 1244 l 1,6,-1
 1300 1244 l 1,7,-1
 1292 1205 l 1,8,-1
 1126 1182 l 1,9,-1
 1126 -7 l 1,10,-1
 1072 -18 l 1,11,-1
 310 1133 l 1,12,-1
 310 65 l 1,13,-1
 494 46 l 1,14,-1
 484 0 l 1,15,-1
 63 0 l 1,16,-1
 69 42 l 1,17,-1
 236 72 l 1,18,-1
 236 1175 l 1,19,-1
 51 1208 l 1,0,-1
403 1389 m 1,20,21
 403 1391 403 1391 404 1395 c 128,-1,22
 405 1399 405 1399 408.5 1410.5 c 128,-1,23
 412 1422 412 1422 416 1432 c 128,-1,24
 420 1442 420 1442 427.5 1457.5 c 128,-1,25
 435 1473 435 1473 443.5 1483 c 128,-1,26
 452 1493 452 1493 464.5 1505.5 c 128,-1,27
 477 1518 477 1518 491 1522 c 128,-1,28
 505 1526 505 1526 523 1529 c 128,-1,29
 541 1532 541 1532 561 1524 c 1,30,-1
 742 1470 l 2,31,32
 774 1460 774 1460 798 1477 c 128,-1,33
 822 1494 822 1494 830 1516 c 2,34,-1
 838 1537 l 1,35,-1
 872 1535 l 1,36,37
 871 1533 871 1533 870 1529.5 c 128,-1,38
 869 1526 869 1526 865.5 1514 c 128,-1,39
 862 1502 862 1502 861 1499.5 c 2,40,-1
 848.5 1474.5 l 2,41,42
 837 1452 837 1452 827.5 1441.5 c 128,-1,43
 818 1431 818 1431 805.5 1419 c 128,-1,44
 793 1407 793 1407 778.5 1403 c 128,-1,45
 764 1399 764 1399 745.5 1396 c 128,-1,46
 727 1393 727 1393 706 1401 c 1,47,-1
 530 1453 l 2,48,49
 502 1462 502 1462 477 1443 c 128,-1,50
 452 1424 452 1424 442 1400 c 2,51,-1
 431 1377 l 1,52,-1
 403 1389 l 1,20,21
EndSplineSet
Colour: ffff00
EndChar

StartChar: O
Encoding: 79 79 33
Width: 1221
VWidth: 0
Flags: HMW
LayerCount: 2
Fore
SplineSet
164 679 m 0,0,1
 164 493 164 493 217 349 c 128,-1,2
 270 205 270 205 375 121 c 128,-1,3
 480 37 480 37 623 37 c 0,4,5
 707 37 707 37 779 69.5 c 128,-1,6
 851 102 851 102 901.5 156 c 128,-1,7
 952 210 952 210 987.5 279.5 c 128,-1,8
 1023 349 1023 349 1040 424 c 128,-1,9
 1057 499 1057 499 1057 573 c 0,10,11
 1057 862 1057 862 932.5 1040 c 128,-1,12
 808 1218 808 1218 596 1218 c 0,13,14
 511 1218 511 1218 439 1187 c 128,-1,15
 367 1156 367 1156 317 1103.5 c 128,-1,16
 267 1051 267 1051 232 981.5 c 128,-1,17
 197 912 197 912 180.5 835.5 c 128,-1,18
 164 759 164 759 164 679 c 0,0,1
54 620 m 0,19,20
 54 912 54 912 214.5 1093 c 128,-1,21
 375 1274 375 1274 644 1274 c 0,22,23
 810 1274 810 1274 929.5 1188.5 c 128,-1,24
 1049 1103 1049 1103 1107 958.5 c 128,-1,25
 1165 814 1165 814 1165 627 c 0,26,27
 1165 533 1165 533 1143 441.5 c 128,-1,28
 1121 350 1121 350 1073.5 265 c 128,-1,29
 1026 180 1026 180 958.5 115 c 128,-1,30
 891 50 891 50 792 11.5 c 128,-1,31
 693 -27 693 -27 575 -27 c 0,32,33
 421 -27 421 -27 300.5 61.5 c 128,-1,34
 180 150 180 150 117 296.5 c 128,-1,35
 54 443 54 443 54 620 c 0,19,20
EndSplineSet
Colour: ffff00
EndChar

StartChar: Oacute
Encoding: 211 211 34
Width: 1221
VWidth: 0
Flags: HMW
LayerCount: 2
Fore
SplineSet
143 679 m 0,0,1
 143 493 143 493 196 349 c 128,-1,2
 249 205 249 205 354 121 c 128,-1,3
 459 37 459 37 602 37 c 0,4,5
 686 37 686 37 758 69.5 c 128,-1,6
 830 102 830 102 880.5 156 c 128,-1,7
 931 210 931 210 966.5 279.5 c 128,-1,8
 1002 349 1002 349 1019 424 c 128,-1,9
 1036 499 1036 499 1036 573 c 0,10,11
 1036 862 1036 862 911.5 1040 c 128,-1,12
 787 1218 787 1218 575 1218 c 0,13,14
 490 1218 490 1218 418 1187 c 128,-1,15
 346 1156 346 1156 296 1103.5 c 128,-1,16
 246 1051 246 1051 211 981.5 c 128,-1,17
 176 912 176 912 159.5 835.5 c 128,-1,18
 143 759 143 759 143 679 c 0,0,1
33 620 m 0,19,20
 33 912 33 912 193.5 1093 c 128,-1,21
 354 1274 354 1274 623 1274 c 0,22,23
 789 1274 789 1274 908.5 1188.5 c 128,-1,24
 1028 1103 1028 1103 1086 958.5 c 128,-1,25
 1144 814 1144 814 1144 627 c 0,26,27
 1144 533 1144 533 1122 441.5 c 128,-1,28
 1100 350 1100 350 1052.5 265 c 128,-1,29
 1005 180 1005 180 937.5 115 c 128,-1,30
 870 50 870 50 771 11.5 c 128,-1,31
 672 -27 672 -27 554 -27 c 0,32,33
 400 -27 400 -27 279.5 61.5 c 128,-1,34
 159 150 159 150 96 296.5 c 128,-1,35
 33 443 33 443 33 620 c 0,19,20
541 1376 m 1,36,-1
 673 1713 l 1,37,-1
 769 1674 l 1,38,-1
 586 1350 l 1,39,-1
 541 1376 l 1,36,-1
EndSplineSet
Colour: ffff00
EndChar

StartChar: Ocircumflex
Encoding: 212 212 35
Width: 1221
VWidth: 0
Flags: HMW
LayerCount: 2
Fore
SplineSet
143 679 m 0,0,1
 143 493 143 493 196 349 c 128,-1,2
 249 205 249 205 354 121 c 128,-1,3
 459 37 459 37 602 37 c 0,4,5
 686 37 686 37 758 69.5 c 128,-1,6
 830 102 830 102 880.5 156 c 128,-1,7
 931 210 931 210 966.5 279.5 c 128,-1,8
 1002 349 1002 349 1019 424 c 128,-1,9
 1036 499 1036 499 1036 573 c 0,10,11
 1036 862 1036 862 911.5 1040 c 128,-1,12
 787 1218 787 1218 575 1218 c 0,13,14
 490 1218 490 1218 418 1187 c 128,-1,15
 346 1156 346 1156 296 1103.5 c 128,-1,16
 246 1051 246 1051 211 981.5 c 128,-1,17
 176 912 176 912 159.5 835.5 c 128,-1,18
 143 759 143 759 143 679 c 0,0,1
33 620 m 0,19,20
 33 912 33 912 193.5 1093 c 128,-1,21
 354 1274 354 1274 623 1274 c 0,22,23
 789 1274 789 1274 908.5 1188.5 c 128,-1,24
 1028 1103 1028 1103 1086 958.5 c 128,-1,25
 1144 814 1144 814 1144 627 c 0,26,27
 1144 533 1144 533 1122 441.5 c 128,-1,28
 1100 350 1100 350 1052.5 265 c 128,-1,29
 1005 180 1005 180 937.5 115 c 128,-1,30
 870 50 870 50 771 11.5 c 128,-1,31
 672 -27 672 -27 554 -27 c 0,32,33
 400 -27 400 -27 279.5 61.5 c 128,-1,34
 159 150 159 150 96 296.5 c 128,-1,35
 33 443 33 443 33 620 c 0,19,20
409 1394 m 1,36,-1
 576 1575 l 1,37,-1
 630 1588 l 1,38,-1
 809 1402 l 1,39,-1
 777 1365 l 1,40,-1
 596 1500 l 1,41,-1
 587 1500 l 1,42,-1
 430 1364 l 1,43,-1
 409 1394 l 1,36,-1
EndSplineSet
Colour: ffff00
EndChar

StartChar: Odieresis
Encoding: 214 214 36
Width: 1221
VWidth: 0
Flags: HMW
LayerCount: 2
Fore
SplineSet
143 679 m 0,0,1
 143 493 143 493 196 349 c 128,-1,2
 249 205 249 205 354 121 c 128,-1,3
 459 37 459 37 602 37 c 0,4,5
 686 37 686 37 758 69.5 c 128,-1,6
 830 102 830 102 880.5 156 c 128,-1,7
 931 210 931 210 966.5 279.5 c 128,-1,8
 1002 349 1002 349 1019 424 c 128,-1,9
 1036 499 1036 499 1036 573 c 0,10,11
 1036 862 1036 862 911.5 1040 c 128,-1,12
 787 1218 787 1218 575 1218 c 0,13,14
 490 1218 490 1218 418 1187 c 128,-1,15
 346 1156 346 1156 296 1103.5 c 128,-1,16
 246 1051 246 1051 211 981.5 c 128,-1,17
 176 912 176 912 159.5 835.5 c 128,-1,18
 143 759 143 759 143 679 c 0,0,1
33 620 m 0,19,20
 33 912 33 912 193.5 1093 c 128,-1,21
 354 1274 354 1274 623 1274 c 0,22,23
 789 1274 789 1274 908.5 1188.5 c 128,-1,24
 1028 1103 1028 1103 1086 958.5 c 128,-1,25
 1144 814 1144 814 1144 627 c 0,26,27
 1144 533 1144 533 1122 441.5 c 128,-1,28
 1100 350 1100 350 1052.5 265 c 128,-1,29
 1005 180 1005 180 937.5 115 c 128,-1,30
 870 50 870 50 771 11.5 c 128,-1,31
 672 -27 672 -27 554 -27 c 0,32,33
 400 -27 400 -27 279.5 61.5 c 128,-1,34
 159 150 159 150 96 296.5 c 128,-1,35
 33 443 33 443 33 620 c 0,19,20
693 1454 m 0,36,37
 693 1532 693 1532 747 1532 c 0,38,39
 805 1532 805 1532 805 1454 c 0,40,41
 805 1373 805 1373 748 1373 c 0,42,43
 693 1373 693 1373 693 1454 c 0,36,37
424 1454 m 0,44,45
 424 1532 424 1532 479 1532 c 0,46,47
 537 1532 537 1532 537 1454 c 0,48,49
 537 1413 537 1413 524.5 1393 c 128,-1,50
 512 1373 512 1373 481 1373 c 0,51,52
 424 1373 424 1373 424 1454 c 0,44,45
EndSplineSet
Colour: ffff00
EndChar

StartChar: Ograve
Encoding: 210 210 37
Width: 1221
VWidth: 0
Flags: HMW
LayerCount: 2
Fore
SplineSet
143 679 m 0,0,1
 143 493 143 493 196 349 c 128,-1,2
 249 205 249 205 354 121 c 128,-1,3
 459 37 459 37 602 37 c 0,4,5
 686 37 686 37 758 69.5 c 128,-1,6
 830 102 830 102 880.5 156 c 128,-1,7
 931 210 931 210 966.5 279.5 c 128,-1,8
 1002 349 1002 349 1019 424 c 128,-1,9
 1036 499 1036 499 1036 573 c 0,10,11
 1036 862 1036 862 911.5 1040 c 128,-1,12
 787 1218 787 1218 575 1218 c 0,13,14
 490 1218 490 1218 418 1187 c 128,-1,15
 346 1156 346 1156 296 1103.5 c 128,-1,16
 246 1051 246 1051 211 981.5 c 128,-1,17
 176 912 176 912 159.5 835.5 c 128,-1,18
 143 759 143 759 143 679 c 0,0,1
33 620 m 0,19,20
 33 912 33 912 193.5 1093 c 128,-1,21
 354 1274 354 1274 623 1274 c 0,22,23
 789 1274 789 1274 908.5 1188.5 c 128,-1,24
 1028 1103 1028 1103 1086 958.5 c 128,-1,25
 1144 814 1144 814 1144 627 c 0,26,27
 1144 533 1144 533 1122 441.5 c 128,-1,28
 1100 350 1100 350 1052.5 265 c 128,-1,29
 1005 180 1005 180 937.5 115 c 128,-1,30
 870 50 870 50 771 11.5 c 128,-1,31
 672 -27 672 -27 554 -27 c 0,32,33
 400 -27 400 -27 279.5 61.5 c 128,-1,34
 159 150 159 150 96 296.5 c 128,-1,35
 33 443 33 443 33 620 c 0,19,20
410 1667 m 1,36,-1
 504 1704 l 1,37,-1
 637 1368 l 1,38,-1
 591 1341 l 1,39,-1
 410 1667 l 1,36,-1
EndSplineSet
Colour: ffff00
EndChar

StartChar: Oslash
Encoding: 216 216 38
Width: 1283
VWidth: 0
Flags: HMW
LayerCount: 2
Fore
SplineSet
84 620 m 0,0,1
 84 912 84 912 244.5 1093 c 128,-1,2
 405 1274 405 1274 674 1274 c 0,3,4
 930 1274 930 1274 1069 1083 c 1,5,-1
 1148 1161 l 1,6,-1
 1236 1127 l 1,7,-1
 1108 1022 l 1,8,9
 1195 861 1195 861 1195 627 c 0,10,11
 1195 533 1195 533 1173 441.5 c 128,-1,12
 1151 350 1151 350 1103.5 265 c 128,-1,13
 1056 180 1056 180 988.5 115 c 128,-1,14
 921 50 921 50 822 11.5 c 128,-1,15
 723 -27 723 -27 605 -27 c 0,16,17
 484 -27 484 -27 384 27.5 c 128,-1,18
 284 82 284 82 213 180 c 1,19,-1
 130 92 l 1,20,-1
 46 127 l 1,21,-1
 176 240 l 1,22,23
 84 406 84 406 84 620 c 0,0,1
289 261 m 1,24,25
 349 154 349 154 441.5 95.5 c 128,-1,26
 534 37 534 37 653 37 c 0,27,28
 737 37 737 37 809 69.5 c 128,-1,29
 881 102 881 102 931.5 156 c 128,-1,30
 982 210 982 210 1017.5 279.5 c 128,-1,31
 1053 349 1053 349 1070 424 c 128,-1,32
 1087 499 1087 499 1087 573 c 0,33,34
 1087 791 1087 791 1014 950 c 1,35,-1
 289 261 l 1,24,25
265 308 m 1,36,-1
 991 995 l 1,37,38
 931 1102 931 1102 837.5 1160 c 128,-1,39
 744 1218 744 1218 626 1218 c 0,40,41
 541 1218 541 1218 469 1187 c 128,-1,42
 397 1156 397 1156 347 1103.5 c 128,-1,43
 297 1051 297 1051 262 981.5 c 128,-1,44
 227 912 227 912 210.5 835.5 c 128,-1,45
 194 759 194 759 194 679 c 0,46,47
 194 465 194 465 265 308 c 1,36,-1
EndSplineSet
Colour: ffff00
EndChar

StartChar: Otilde
Encoding: 213 213 39
Width: 1221
VWidth: 0
Flags: HMW
LayerCount: 2
Fore
SplineSet
373 1383 m 1,0,1
 373 1385 373 1385 374 1389 c 128,-1,2
 375 1393 375 1393 378.5 1404.5 c 128,-1,3
 382 1416 382 1416 386 1426 c 128,-1,4
 390 1436 390 1436 397.5 1451.5 c 128,-1,5
 405 1467 405 1467 413.5 1477 c 128,-1,6
 422 1487 422 1487 434.5 1499.5 c 128,-1,7
 447 1512 447 1512 461 1516 c 128,-1,8
 475 1520 475 1520 493 1523 c 128,-1,9
 511 1526 511 1526 531 1518 c 1,10,-1
 712 1464 l 2,11,12
 744 1454 744 1454 768 1471 c 128,-1,13
 792 1488 792 1488 800 1510 c 2,14,-1
 808 1531 l 1,15,-1
 842 1529 l 1,16,17
 841 1527 841 1527 840 1523.5 c 128,-1,18
 839 1520 839 1520 835.5 1508 c 128,-1,19
 832 1496 832 1496 831 1493.5 c 2,20,-1
 818.5 1468.5 l 2,21,22
 807 1446 807 1446 797.5 1435.5 c 128,-1,23
 788 1425 788 1425 775.5 1413 c 128,-1,24
 763 1401 763 1401 748.5 1397 c 128,-1,25
 734 1393 734 1393 715.5 1390 c 128,-1,26
 697 1387 697 1387 676 1395 c 1,27,-1
 500 1447 l 2,28,29
 472 1456 472 1456 447 1437 c 128,-1,30
 422 1418 422 1418 412 1394 c 2,31,-1
 401 1371 l 1,32,-1
 373 1383 l 1,0,1
143 679 m 0,33,34
 143 493 143 493 196 349 c 128,-1,35
 249 205 249 205 354 121 c 128,-1,36
 459 37 459 37 602 37 c 0,37,38
 686 37 686 37 758 69.5 c 128,-1,39
 830 102 830 102 880.5 156 c 128,-1,40
 931 210 931 210 966.5 279.5 c 128,-1,41
 1002 349 1002 349 1019 424 c 128,-1,42
 1036 499 1036 499 1036 573 c 0,43,44
 1036 862 1036 862 911.5 1040 c 128,-1,45
 787 1218 787 1218 575 1218 c 0,46,47
 490 1218 490 1218 418 1187 c 128,-1,48
 346 1156 346 1156 296 1103.5 c 128,-1,49
 246 1051 246 1051 211 981.5 c 128,-1,50
 176 912 176 912 159.5 835.5 c 128,-1,51
 143 759 143 759 143 679 c 0,33,34
33 620 m 0,52,53
 33 912 33 912 193.5 1093 c 128,-1,54
 354 1274 354 1274 623 1274 c 0,55,56
 789 1274 789 1274 908.5 1188.5 c 128,-1,57
 1028 1103 1028 1103 1086 958.5 c 128,-1,58
 1144 814 1144 814 1144 627 c 0,59,60
 1144 533 1144 533 1122 441.5 c 128,-1,61
 1100 350 1100 350 1052.5 265 c 128,-1,62
 1005 180 1005 180 937.5 115 c 128,-1,63
 870 50 870 50 771 11.5 c 128,-1,64
 672 -27 672 -27 554 -27 c 0,65,66
 400 -27 400 -27 279.5 61.5 c 128,-1,67
 159 150 159 150 96 296.5 c 128,-1,68
 33 443 33 443 33 620 c 0,52,53
EndSplineSet
Colour: ffff00
EndChar

StartChar: P
Encoding: 80 80 40
Width: 999
VWidth: 0
Flags: HMW
LayerCount: 2
Fore
SplineSet
50 0 m 1,0,-1
 55 42 l 1,1,-1
 213 72 l 1,2,-1
 213 1153 l 1,3,-1
 51 1175 l 1,4,-1
 60 1211 l 1,5,6
 85 1215 85 1215 150.5 1226 c 128,-1,7
 216 1237 216 1237 249.5 1241.5 c 128,-1,8
 283 1246 283 1246 343 1251 c 128,-1,9
 403 1256 403 1256 464 1256 c 0,10,11
 565 1256 565 1256 651 1234.5 c 128,-1,12
 737 1213 737 1213 804.5 1170 c 128,-1,13
 872 1127 872 1127 910 1056 c 128,-1,14
 948 985 948 985 948 893 c 0,15,16
 948 804 948 804 907 726 c 128,-1,17
 866 648 866 648 798.5 595 c 128,-1,18
 731 542 731 542 643 512 c 128,-1,19
 555 482 555 482 462 482 c 0,20,21
 422 482 422 482 412 484 c 1,22,-1
 402 526 l 1,23,-1
 456 529 l 1,24,25
 553 533 553 533 625.5 562 c 128,-1,26
 698 591 698 591 740.5 639 c 128,-1,27
 783 687 783 687 803.5 745.5 c 128,-1,28
 824 804 824 804 824 873 c 0,29,30
 824 939 824 939 799.5 999 c 128,-1,31
 775 1059 775 1059 728 1107 c 128,-1,32
 681 1155 681 1155 604.5 1183.5 c 128,-1,33
 528 1212 528 1212 433 1212 c 1,34,-1
 323 1206 l 1,35,-1
 323 66 l 1,36,-1
 557 46 l 1,37,-1
 549 0 l 1,38,-1
 50 0 l 1,0,-1
EndSplineSet
Colour: ffff00
EndChar

StartChar: Q
Encoding: 81 81 41
Width: 1218
VWidth: 0
Flags: HMW
LayerCount: 2
Fore
SplineSet
158 660 m 0,0,1
 158 389 158 389 299.5 210.5 c 128,-1,2
 441 32 441 32 653 27 c 1,3,4
 818 61 818 61 938.5 219.5 c 128,-1,5
 1059 378 1059 378 1059 573 c 0,6,7
 1059 869 1059 869 930.5 1043.5 c 128,-1,8
 802 1218 802 1218 587 1218 c 0,9,10
 382 1218 382 1218 270 1064.5 c 128,-1,11
 158 911 158 911 158 660 c 0,0,1
54 615 m 0,12,13
 54 805 54 805 122 953.5 c 128,-1,14
 190 1102 190 1102 322 1188 c 128,-1,15
 454 1274 454 1274 632 1274 c 0,16,17
 732 1274 732 1274 818 1239 c 128,-1,18
 904 1204 904 1204 967 1143 c 128,-1,19
 1030 1082 1030 1082 1074.5 1000 c 128,-1,20
 1119 918 1119 918 1141 823 c 128,-1,21
 1163 728 1163 728 1163 627 c 0,22,23
 1163 525 1163 525 1129.5 422 c 128,-1,24
 1096 319 1096 319 1037 231 c 128,-1,25
 978 143 978 143 889 77.5 c 128,-1,26
 800 12 800 12 696 -12 c 1,27,28
 729 -84 729 -84 767 -136 c 128,-1,29
 805 -188 805 -188 843 -219.5 c 128,-1,30
 881 -251 881 -251 930.5 -271 c 128,-1,31
 980 -291 980 -291 1025.5 -299.5 c 128,-1,32
 1071 -308 1071 -308 1135 -313 c 1,33,34
 1134 -316 1134 -316 1131 -335.5 c 128,-1,35
 1128 -355 1128 -355 1126 -358 c 1,36,37
 1067 -385 1067 -385 973 -385 c 0,38,39
 847 -385 847 -385 760 -281 c 128,-1,40
 673 -177 673 -177 646 -22 c 1,41,42
 620 -25 620 -25 566 -25 c 0,43,44
 464 -25 464 -25 369.5 26 c 128,-1,45
 275 77 275 77 205.5 162.5 c 128,-1,46
 136 248 136 248 95 366.5 c 128,-1,47
 54 485 54 485 54 615 c 0,12,13
EndSplineSet
Colour: ffff00
EndChar

StartChar: R
Encoding: 82 82 42
Width: 1164
VWidth: 0
Flags: HMW
LayerCount: 2
Fore
SplineSet
316 627 m 1,0,-1
 543 627 l 1,1,2
 643 664 643 664 710 749 c 128,-1,3
 777 834 777 834 777 933 c 0,4,5
 777 1066 777 1066 686.5 1136.5 c 128,-1,6
 596 1207 596 1207 437 1207 c 1,7,-1
 316 1202 l 1,8,-1
 316 627 l 1,0,-1
50 0 m 1,9,-1
 57 42 l 1,10,-1
 213 72 l 1,11,-1
 213 1153 l 1,12,-1
 53 1174 l 1,13,-1
 62 1210 l 1,14,15
 329 1253 329 1253 487 1253 c 0,16,17
 599 1253 599 1253 688 1221 c 128,-1,18
 777 1189 777 1189 832 1121.5 c 128,-1,19
 887 1054 887 1054 887 960 c 0,20,21
 887 853 887 853 824.5 768.5 c 128,-1,22
 762 684 762 684 611 610 c 1,23,-1
 611 609 l 1,24,-1
 804 323 l 2,25,26
 908 170 908 170 958.5 120 c 128,-1,27
 1009 70 1009 70 1065 50 c 1,28,-1
 1113 34 l 1,29,-1
 1107 -3 l 1,30,31
 1064 -18 1064 -18 1014 -18 c 0,32,33
 972 -18 972 -18 935 -0.5 c 128,-1,34
 898 17 898 17 862.5 56 c 128,-1,35
 827 95 827 95 800 133.5 c 128,-1,36
 773 172 773 172 733 238 c 2,37,-1
 530 571 l 1,38,-1
 316 571 l 1,39,-1
 316 65 l 1,40,-1
 527 46 l 1,41,-1
 517 0 l 1,42,-1
 50 0 l 1,9,-1
EndSplineSet
Colour: ffff00
EndChar

StartChar: S
Encoding: 83 83 43
Width: 838
VWidth: 0
Flags: HMW
LayerCount: 2
Fore
SplineSet
51 116 m 1,0,-1
 81 401 l 1,1,-1
 129 393 l 1,2,-1
 157 174 l 1,3,4
 190 111 190 111 267.5 74 c 128,-1,5
 345 37 345 37 433 37 c 0,6,7
 533 37 533 37 603 96.5 c 128,-1,8
 673 156 673 156 673 262 c 0,9,10
 673 322 673 322 641.5 375.5 c 128,-1,11
 610 429 610 429 559.5 470 c 128,-1,12
 509 511 509 511 447.5 551 c 128,-1,13
 386 591 386 591 325 632.5 c 128,-1,14
 264 674 264 674 213.5 719.5 c 128,-1,15
 163 765 163 765 131.5 826.5 c 128,-1,16
 100 888 100 888 100 959 c 0,17,18
 100 1100 100 1100 201.5 1185.5 c 128,-1,19
 303 1271 303 1271 432 1271 c 0,20,21
 518 1271 518 1271 597 1243 c 128,-1,22
 676 1215 676 1215 724 1161 c 1,23,-1
 691 851 l 1,24,-1
 645 858 l 1,25,-1
 618 1101 l 1,26,27
 591 1150 591 1150 530 1182 c 128,-1,28
 469 1214 469 1214 406 1214 c 0,29,30
 319 1214 319 1214 258.5 1157.5 c 128,-1,31
 198 1101 198 1101 198 1006 c 0,32,33
 198 942 198 942 230.5 885 c 128,-1,34
 263 828 263 828 314.5 785 c 128,-1,35
 366 742 366 742 428 700.5 c 128,-1,36
 490 659 490 659 552.5 618 c 128,-1,37
 615 577 615 577 666.5 533 c 128,-1,38
 718 489 718 489 750.5 431 c 128,-1,39
 783 373 783 373 783 308 c 0,40,41
 783 163 783 163 673 68.5 c 128,-1,42
 563 -26 563 -26 381 -26 c 0,43,44
 277 -26 277 -26 189 14 c 128,-1,45
 101 54 101 54 51 116 c 1,0,-1
EndSplineSet
Colour: ffff00
EndChar

StartChar: T
Encoding: 84 84 44
Width: 1136
VWidth: 0
Flags: HMW
LayerCount: 2
Fore
SplineSet
49 1244 m 1,0,-1
 1082 1244 l 1,1,-1
 1047 912 l 1,2,-1
 997 918 l 1,3,-1
 980 1193 l 1,4,-1
 609 1193 l 1,5,-1
 609 73 l 1,6,-1
 786 46 l 1,7,-1
 775 0 l 1,8,-1
 322 0 l 1,9,-1
 327 42 l 1,10,-1
 502 72 l 1,11,-1
 502 1193 l 1,12,-1
 146 1193 l 1,13,-1
 111 914 l 1,14,-1
 59 922 l 1,15,-1
 49 1244 l 1,0,-1
EndSplineSet
Colour: ffff00
EndChar

StartChar: Thorn
Encoding: 222 222 45
Width: 1008
VWidth: 0
Flags: HMW
LayerCount: 2
Fore
SplineSet
49 1205 m 1,0,-1
 54 1244 l 1,1,-1
 512 1244 l 1,2,-1
 507 1205 l 1,3,-1
 329 1182 l 1,4,-1
 329 1021 l 1,5,6
 371 1024 371 1024 470 1024 c 0,7,8
 573 1024 573 1024 659 1002.5 c 128,-1,9
 745 981 745 981 812 938 c 128,-1,10
 879 895 879 895 916.5 824 c 128,-1,11
 954 753 954 753 954 660 c 0,12,13
 954 539 954 539 885 443.5 c 128,-1,14
 816 348 816 348 706.5 298 c 128,-1,15
 597 248 597 248 471 248 c 0,16,17
 429 248 429 248 418 250 c 1,18,-1
 408 293 l 1,19,-1
 462 296 l 1,20,21
 559 300 559 300 631.5 329 c 128,-1,22
 704 358 704 358 746.5 406 c 128,-1,23
 789 454 789 454 809.5 512.5 c 128,-1,24
 830 571 830 571 830 640 c 0,25,26
 830 706 830 706 805.5 766 c 128,-1,27
 781 826 781 826 734 874 c 128,-1,28
 687 922 687 922 610.5 950.5 c 128,-1,29
 534 979 534 979 439 979 c 1,30,-1
 329 972 l 1,31,-1
 329 66 l 1,32,-1
 563 46 l 1,33,-1
 555 0 l 1,34,-1
 56 0 l 1,35,-1
 61 42 l 1,36,-1
 219 72 l 1,37,-1
 222 1180 l 1,38,-1
 49 1205 l 1,0,-1
EndSplineSet
Colour: ffff00
EndChar

StartChar: U
Encoding: 85 85 46
Width: 1357
VWidth: 0
Flags: HMW
LayerCount: 2
Fore
SplineSet
46 1205 m 1,0,-1
 50 1244 l 1,1,-1
 504 1244 l 1,2,-1
 500 1205 l 1,3,-1
 331 1182 l 1,4,-1
 331 495 l 2,5,6
 331 369 331 369 357.5 279.5 c 128,-1,7
 384 190 384 190 435 139 c 128,-1,8
 486 88 486 88 551.5 65 c 128,-1,9
 617 42 617 42 703 42 c 0,10,11
 875 42 875 42 969 146.5 c 128,-1,12
 1063 251 1063 251 1063 449 c 2,13,-1
 1063 1180 l 1,14,-1
 877 1205 l 1,15,-1
 882 1244 l 1,16,-1
 1307 1244 l 1,17,-1
 1299 1205 l 1,18,-1
 1133 1182 l 1,19,-1
 1130 490 l 2,20,21
 1129 236 1129 236 1021 104.5 c 128,-1,22
 913 -27 913 -27 670 -27 c 0,23,24
 597 -27 597 -27 535 -13.5 c 128,-1,25
 473 -0 473 -0 415 34 c 128,-1,26
 357 68 357 68 316.5 122 c 128,-1,27
 276 176 276 176 251.5 262.5 c 128,-1,28
 227 349 227 349 227 462 c 2,29,-1
 227 1180 l 1,30,-1
 46 1205 l 1,0,-1
EndSplineSet
Colour: ffff00
EndChar

StartChar: Uacute
Encoding: 218 218 47
Width: 1356
VWidth: 0
Flags: HMW
LayerCount: 2
Fore
SplineSet
54 1205 m 1,0,-1
 58 1244 l 1,1,-1
 512 1244 l 1,2,-1
 508 1205 l 1,3,-1
 339 1182 l 1,4,-1
 339 495 l 2,5,6
 339 369 339 369 365.5 279.5 c 128,-1,7
 392 190 392 190 443 139 c 128,-1,8
 494 88 494 88 559.5 65 c 128,-1,9
 625 42 625 42 711 42 c 0,10,11
 883 42 883 42 977 146.5 c 128,-1,12
 1071 251 1071 251 1071 449 c 2,13,-1
 1071 1180 l 1,14,-1
 885 1205 l 1,15,-1
 890 1244 l 1,16,-1
 1315 1244 l 1,17,-1
 1307 1205 l 1,18,-1
 1141 1182 l 1,19,-1
 1138 490 l 2,20,21
 1137 236 1137 236 1029 104.5 c 128,-1,22
 921 -27 921 -27 678 -27 c 0,23,24
 605 -27 605 -27 543 -13.5 c 128,-1,25
 481 -0 481 -0 423 34 c 128,-1,26
 365 68 365 68 324.5 122 c 128,-1,27
 284 176 284 176 259.5 262.5 c 128,-1,28
 235 349 235 349 235 462 c 2,29,-1
 235 1180 l 1,30,-1
 54 1205 l 1,0,-1
627 1376 m 1,31,-1
 759 1713 l 1,32,-1
 855 1674 l 1,33,-1
 672 1350 l 1,34,-1
 627 1376 l 1,31,-1
EndSplineSet
Colour: ffff00
EndChar

StartChar: Ucircumflex
Encoding: 219 219 48
Width: 1356
VWidth: 0
Flags: HMW
LayerCount: 2
Fore
SplineSet
54 1205 m 1,0,-1
 58 1244 l 1,1,-1
 512 1244 l 1,2,-1
 508 1205 l 1,3,-1
 339 1182 l 1,4,-1
 339 495 l 2,5,6
 339 369 339 369 365.5 279.5 c 128,-1,7
 392 190 392 190 443 139 c 128,-1,8
 494 88 494 88 559.5 65 c 128,-1,9
 625 42 625 42 711 42 c 0,10,11
 883 42 883 42 977 146.5 c 128,-1,12
 1071 251 1071 251 1071 449 c 2,13,-1
 1071 1180 l 1,14,-1
 885 1205 l 1,15,-1
 890 1244 l 1,16,-1
 1315 1244 l 1,17,-1
 1307 1205 l 1,18,-1
 1141 1182 l 1,19,-1
 1138 490 l 2,20,21
 1137 236 1137 236 1029 104.5 c 128,-1,22
 921 -27 921 -27 678 -27 c 0,23,24
 605 -27 605 -27 543 -13.5 c 128,-1,25
 481 -0 481 -0 423 34 c 128,-1,26
 365 68 365 68 324.5 122 c 128,-1,27
 284 176 284 176 259.5 262.5 c 128,-1,28
 235 349 235 349 235 462 c 2,29,-1
 235 1180 l 1,30,-1
 54 1205 l 1,0,-1
494 1394 m 1,31,-1
 661 1575 l 1,32,-1
 715 1588 l 1,33,-1
 894 1402 l 1,34,-1
 862 1365 l 1,35,-1
 681 1500 l 1,36,-1
 672 1500 l 1,37,-1
 515 1364 l 1,38,-1
 494 1394 l 1,31,-1
EndSplineSet
Colour: ffff00
EndChar

StartChar: Udieresis
Encoding: 220 220 49
Width: 1357
VWidth: 0
Flags: HMW
LayerCount: 2
Fore
SplineSet
54 1205 m 1,0,-1
 58 1244 l 1,1,-1
 512 1244 l 1,2,-1
 508 1205 l 1,3,-1
 339 1182 l 1,4,-1
 339 495 l 2,5,6
 339 369 339 369 365.5 279.5 c 128,-1,7
 392 190 392 190 443 139 c 128,-1,8
 494 88 494 88 559.5 65 c 128,-1,9
 625 42 625 42 711 42 c 0,10,11
 883 42 883 42 977 146.5 c 128,-1,12
 1071 251 1071 251 1071 449 c 2,13,-1
 1071 1180 l 1,14,-1
 885 1205 l 1,15,-1
 890 1244 l 1,16,-1
 1315 1244 l 1,17,-1
 1307 1205 l 1,18,-1
 1141 1182 l 1,19,-1
 1138 490 l 2,20,21
 1137 236 1137 236 1029 104.5 c 128,-1,22
 921 -27 921 -27 678 -27 c 0,23,24
 605 -27 605 -27 543 -13.5 c 128,-1,25
 481 -0 481 -0 423 34 c 128,-1,26
 365 68 365 68 324.5 122 c 128,-1,27
 284 176 284 176 259.5 262.5 c 128,-1,28
 235 349 235 349 235 462 c 2,29,-1
 235 1180 l 1,30,-1
 54 1205 l 1,0,-1
762 1454 m 0,31,32
 762 1532 762 1532 816 1532 c 0,33,34
 874 1532 874 1532 874 1454 c 0,35,36
 874 1373 874 1373 817 1373 c 0,37,38
 762 1373 762 1373 762 1454 c 0,31,32
493 1454 m 0,39,40
 493 1532 493 1532 548 1532 c 0,41,42
 606 1532 606 1532 606 1454 c 0,43,44
 606 1413 606 1413 593.5 1393 c 128,-1,45
 581 1373 581 1373 550 1373 c 0,46,47
 493 1373 493 1373 493 1454 c 0,39,40
EndSplineSet
Colour: ffff00
EndChar

StartChar: Ugrave
Encoding: 217 217 50
Width: 1356
VWidth: 0
Flags: HMW
LayerCount: 2
Fore
SplineSet
54 1205 m 1,0,-1
 58 1244 l 1,1,-1
 512 1244 l 1,2,-1
 508 1205 l 1,3,-1
 339 1182 l 1,4,-1
 339 495 l 2,5,6
 339 369 339 369 365.5 279.5 c 128,-1,7
 392 190 392 190 443 139 c 128,-1,8
 494 88 494 88 559.5 65 c 128,-1,9
 625 42 625 42 711 42 c 0,10,11
 883 42 883 42 977 146.5 c 128,-1,12
 1071 251 1071 251 1071 449 c 2,13,-1
 1071 1180 l 1,14,-1
 885 1205 l 1,15,-1
 890 1244 l 1,16,-1
 1315 1244 l 1,17,-1
 1307 1205 l 1,18,-1
 1141 1182 l 1,19,-1
 1138 490 l 2,20,21
 1137 236 1137 236 1029 104.5 c 128,-1,22
 921 -27 921 -27 678 -27 c 0,23,24
 605 -27 605 -27 543 -13.5 c 128,-1,25
 481 -0 481 -0 423 34 c 128,-1,26
 365 68 365 68 324.5 122 c 128,-1,27
 284 176 284 176 259.5 262.5 c 128,-1,28
 235 349 235 349 235 462 c 2,29,-1
 235 1180 l 1,30,-1
 54 1205 l 1,0,-1
515 1667 m 1,31,-1
 609 1704 l 1,32,-1
 742 1368 l 1,33,-1
 696 1341 l 1,34,-1
 515 1667 l 1,31,-1
EndSplineSet
Colour: ffff00
EndChar

StartChar: V
Encoding: 86 86 51
Width: 1285
VWidth: 0
Flags: HMW
LayerCount: 2
Fore
SplineSet
47 1208 m 1,0,-1
 51 1244 l 1,1,-1
 475 1244 l 1,2,-1
 471 1208 l 1,3,-1
 303 1182 l 1,4,-1
 649 160 l 1,5,-1
 1026 1178 l 1,6,-1
 840 1208 l 1,7,-1
 843 1244 l 1,8,-1
 1233 1244 l 1,9,-1
 1229 1208 l 1,10,-1
 1100 1182 l 1,11,-1
 659 -11 l 1,12,-1
 608 -26 l 1,13,-1
 194 1178 l 1,14,-1
 47 1208 l 1,0,-1
EndSplineSet
Colour: ffff00
EndChar

StartChar: W
Encoding: 87 87 52
Width: 1769
VWidth: 0
Flags: HMW
LayerCount: 2
Fore
SplineSet
46 1207 m 1,0,-1
 53 1244 l 1,1,-1
 446 1244 l 1,2,-1
 443 1212 l 1,3,-1
 278 1182 l 1,4,-1
 564 178 l 1,5,-1
 863 1202 l 1,6,-1
 909 1208 l 1,7,-1
 1192 178 l 1,8,-1
 1516 1175 l 1,9,-1
 1329 1210 l 1,10,-1
 1334 1244 l 1,11,-1
 1717 1244 l 1,12,-1
 1714 1208 l 1,13,-1
 1596 1178 l 1,14,-1
 1202 -13 l 1,15,-1
 1137 -26 l 1,16,-1
 869 990 l 1,17,-1
 574 -13 l 1,18,-1
 503 -25 l 1,19,-1
 168 1178 l 1,20,-1
 46 1207 l 1,0,-1
EndSplineSet
Colour: ffff00
EndChar

StartChar: X
Encoding: 88 88 53
Width: 1305
VWidth: 0
Flags: HMW
LayerCount: 2
Fore
SplineSet
50 0 m 1,0,-1
 56 36 l 1,1,-1
 180 64 l 1,2,-1
 596 625 l 1,3,-1
 207 1184 l 1,4,-1
 71 1212 l 1,5,-1
 75 1244 l 1,6,-1
 495 1244 l 1,7,-1
 490 1212 l 1,8,-1
 334 1182 l 1,9,-1
 666 703 l 1,10,-1
 1023 1184 l 1,11,-1
 851 1207 l 1,12,-1
 856 1244 l 1,13,-1
 1224 1244 l 1,14,-1
 1224 1208 l 1,15,-1
 1098 1187 l 1,16,-1
 702 651 l 1,17,-1
 1116 53 l 1,18,-1
 1253 36 l 1,19,-1
 1246 0 l 1,20,-1
 821 0 l 1,21,-1
 825 27 l 1,22,-1
 988 60 l 1,23,-1
 634 571 l 1,24,-1
 259 60 l 1,25,-1
 424 42 l 1,26,-1
 416 0 l 1,27,-1
 50 0 l 1,0,-1
EndSplineSet
Colour: ffff00
EndChar

StartChar: Y
Encoding: 89 89 54
Width: 1182
VWidth: 0
Flags: HMW
LayerCount: 2
Fore
SplineSet
48 1207 m 1,0,-1
 52 1243 l 1,1,-1
 469 1243 l 1,2,-1
 465 1207 l 1,3,-1
 299 1181 l 1,4,-1
 612 571 l 1,5,-1
 922 1178 l 1,6,-1
 737 1208 l 1,7,-1
 739 1244 l 1,8,-1
 1129 1244 l 1,9,-1
 1126 1208 l 1,10,-1
 997 1182 l 1,11,-1
 648 489 l 1,12,-1
 648 67 l 1,13,-1
 829 46 l 1,14,-1
 821 0 l 1,15,-1
 361 0 l 1,16,-1
 367 42 l 1,17,-1
 542 72 l 1,18,-1
 542 489 l 1,19,-1
 187 1177 l 1,20,-1
 48 1207 l 1,0,-1
EndSplineSet
Colour: ffff00
EndChar

StartChar: Yacute
Encoding: 221 221 55
Width: 1180
VWidth: 0
Flags: HMW
LayerCount: 2
Fore
SplineSet
54 1207 m 1,0,-1
 58 1243 l 1,1,-1
 475 1243 l 1,2,-1
 471 1207 l 1,3,-1
 305 1181 l 1,4,-1
 618 571 l 1,5,-1
 928 1178 l 1,6,-1
 743 1208 l 1,7,-1
 745 1244 l 1,8,-1
 1135 1244 l 1,9,-1
 1132 1208 l 1,10,-1
 1003 1182 l 1,11,-1
 654 489 l 1,12,-1
 654 67 l 1,13,-1
 835 46 l 1,14,-1
 827 0 l 1,15,-1
 367 0 l 1,16,-1
 373 42 l 1,17,-1
 548 72 l 1,18,-1
 548 489 l 1,19,-1
 193 1177 l 1,20,-1
 54 1207 l 1,0,-1
514 1376 m 1,21,-1
 646 1713 l 1,22,-1
 742 1674 l 1,23,-1
 559 1350 l 1,24,-1
 514 1376 l 1,21,-1
EndSplineSet
Colour: ffff00
EndChar

StartChar: Z
Encoding: 90 90 56
Width: 1057
VWidth: 0
Flags: HMW
LayerCount: 2
Fore
SplineSet
51 37 m 1,0,-1
 853 1189 l 1,1,-1
 217 1189 l 1,2,-1
 139 903 l 1,3,-1
 99 914 l 1,4,-1
 108 1244 l 1,5,-1
 984 1244 l 1,6,-1
 989 1207 l 1,7,-1
 184 58 l 1,8,-1
 851 58 l 1,9,-1
 957 342 l 1,10,-1
 1001 335 l 1,11,-1
 961 0 l 1,12,-1
 56 0 l 1,13,-1
 51 37 l 1,0,-1
EndSplineSet
Colour: ffff00
EndChar

StartChar: a
Encoding: 97 97 57
Width: 812
VWidth: 0
Flags: HMW
LayerCount: 2
Fore
SplineSet
152 199 m 0,0,1
 152 135 152 135 190 89 c 128,-1,2
 228 43 228 43 292 43 c 0,3,4
 361 43 361 43 419.5 82.5 c 128,-1,5
 478 122 478 122 515 185 c 1,6,-1
 515 432 l 1,7,8
 448 422 448 422 399.5 411.5 c 128,-1,9
 351 401 351 401 301.5 383 c 128,-1,10
 252 365 252 365 221.5 341.5 c 128,-1,11
 191 318 191 318 171.5 281.5 c 128,-1,12
 152 245 152 245 152 199 c 0,0,1
52 169 m 0,13,14
 52 296 52 296 168.5 379.5 c 128,-1,15
 285 463 285 463 515 477 c 1,16,-1
 515 516 l 2,17,18
 515 681 515 681 475 753.5 c 128,-1,19
 435 826 435 826 324 826 c 0,20,21
 248 826 248 826 214.5 770 c 128,-1,22
 181 714 181 714 168 609 c 1,23,24
 133 609 133 609 109.5 626.5 c 128,-1,25
 86 644 86 644 86 676 c 0,26,27
 86 752 86 752 179.5 814.5 c 128,-1,28
 273 877 273 877 377 877 c 0,29,30
 493 877 493 877 549 802 c 128,-1,31
 605 727 605 727 605 569 c 2,32,-1
 605 229 l 2,33,34
 605 200 605 200 605.5 184.5 c 128,-1,35
 606 169 606 169 608.5 146 c 128,-1,36
 611 123 611 123 616.5 110 c 128,-1,37
 622 97 622 97 631.5 83 c 128,-1,38
 641 69 641 69 656.5 61.5 c 128,-1,39
 672 54 672 54 693 50 c 2,40,-1
 759 37 l 1,41,-1
 754 3 l 1,42,43
 707 -18 707 -18 653 -18 c 0,44,45
 594 -18 594 -18 561 21 c 128,-1,46
 528 60 528 60 528 117 c 2,47,-1
 528 130 l 1,48,-1
 523 130 l 1,49,50
 504 76 504 76 429.5 25 c 128,-1,51
 355 -26 355 -26 260 -26 c 0,52,53
 176 -26 176 -26 114 27.5 c 128,-1,54
 52 81 52 81 52 169 c 0,13,14
EndSplineSet
Colour: ffff00
EndChar

StartChar: aacute
Encoding: 225 225 58
Width: 812
VWidth: 0
Flags: HMW
LayerCount: 2
Fore
SplineSet
118 199 m 0,0,1
 118 135 118 135 156 89 c 128,-1,2
 194 43 194 43 258 43 c 0,3,4
 327 43 327 43 385.5 82.5 c 128,-1,5
 444 122 444 122 481 185 c 1,6,-1
 481 432 l 1,7,8
 414 422 414 422 365.5 411.5 c 128,-1,9
 317 401 317 401 267.5 383 c 128,-1,10
 218 365 218 365 187.5 341.5 c 128,-1,11
 157 318 157 318 137.5 281.5 c 128,-1,12
 118 245 118 245 118 199 c 0,0,1
18 169 m 0,13,14
 18 296 18 296 134.5 379.5 c 128,-1,15
 251 463 251 463 481 477 c 1,16,-1
 481 516 l 2,17,18
 481 681 481 681 441 753.5 c 128,-1,19
 401 826 401 826 290 826 c 0,20,21
 214 826 214 826 180.5 770 c 128,-1,22
 147 714 147 714 134 609 c 1,23,24
 99 609 99 609 75.5 626.5 c 128,-1,25
 52 644 52 644 52 676 c 0,26,27
 52 752 52 752 145.5 814.5 c 128,-1,28
 239 877 239 877 343 877 c 0,29,30
 459 877 459 877 515 802 c 128,-1,31
 571 727 571 727 571 569 c 2,32,-1
 571 229 l 2,33,34
 571 200 571 200 571.5 184.5 c 128,-1,35
 572 169 572 169 574.5 146 c 128,-1,36
 577 123 577 123 582.5 110 c 128,-1,37
 588 97 588 97 597.5 83 c 128,-1,38
 607 69 607 69 622.5 61.5 c 128,-1,39
 638 54 638 54 659 50 c 2,40,-1
 725 37 l 1,41,-1
 720 3 l 1,42,43
 673 -18 673 -18 619 -18 c 0,44,45
 560 -18 560 -18 527 21 c 128,-1,46
 494 60 494 60 494 117 c 2,47,-1
 494 130 l 1,48,-1
 489 130 l 1,49,50
 470 76 470 76 395.5 25 c 128,-1,51
 321 -26 321 -26 226 -26 c 0,52,53
 142 -26 142 -26 80 27.5 c 128,-1,54
 18 81 18 81 18 169 c 0,13,14
244 1007 m 1,55,-1
 376 1344 l 1,56,-1
 472 1305 l 1,57,-1
 289 981 l 1,58,-1
 244 1007 l 1,55,-1
EndSplineSet
Colour: ffff00
EndChar

StartChar: acircumflex
Encoding: 226 226 59
Width: 812
VWidth: 0
Flags: HMW
LayerCount: 2
Fore
SplineSet
119 199 m 0,0,1
 119 135 119 135 157 89 c 128,-1,2
 195 43 195 43 259 43 c 0,3,4
 328 43 328 43 386.5 82.5 c 128,-1,5
 445 122 445 122 482 185 c 1,6,-1
 482 432 l 1,7,8
 415 422 415 422 366.5 411.5 c 128,-1,9
 318 401 318 401 268.5 383 c 128,-1,10
 219 365 219 365 188.5 341.5 c 128,-1,11
 158 318 158 318 138.5 281.5 c 128,-1,12
 119 245 119 245 119 199 c 0,0,1
19 169 m 0,13,14
 19 296 19 296 135.5 379.5 c 128,-1,15
 252 463 252 463 482 477 c 1,16,-1
 482 516 l 2,17,18
 482 681 482 681 442 753.5 c 128,-1,19
 402 826 402 826 291 826 c 0,20,21
 215 826 215 826 181.5 770 c 128,-1,22
 148 714 148 714 135 609 c 1,23,24
 100 609 100 609 76.5 626.5 c 128,-1,25
 53 644 53 644 53 676 c 0,26,27
 53 752 53 752 146.5 814.5 c 128,-1,28
 240 877 240 877 344 877 c 0,29,30
 460 877 460 877 516 802 c 128,-1,31
 572 727 572 727 572 569 c 2,32,-1
 572 229 l 2,33,34
 572 200 572 200 572.5 184.5 c 128,-1,35
 573 169 573 169 575.5 146 c 128,-1,36
 578 123 578 123 583.5 110 c 128,-1,37
 589 97 589 97 598.5 83 c 128,-1,38
 608 69 608 69 623.5 61.5 c 128,-1,39
 639 54 639 54 660 50 c 2,40,-1
 726 37 l 1,41,-1
 721 3 l 1,42,43
 674 -18 674 -18 620 -18 c 0,44,45
 561 -18 561 -18 528 21 c 128,-1,46
 495 60 495 60 495 117 c 2,47,-1
 495 130 l 1,48,-1
 490 130 l 1,49,50
 471 76 471 76 396.5 25 c 128,-1,51
 322 -26 322 -26 227 -26 c 0,52,53
 143 -26 143 -26 81 27.5 c 128,-1,54
 19 81 19 81 19 169 c 0,13,14
113 1025 m 1,55,-1
 280 1206 l 1,56,-1
 334 1219 l 1,57,-1
 513 1033 l 1,58,-1
 481 996 l 1,59,-1
 300 1131 l 1,60,-1
 291 1131 l 1,61,-1
 134 995 l 1,62,-1
 113 1025 l 1,55,-1
EndSplineSet
Colour: ffff00
EndChar

StartChar: acute
Encoding: 180 180 60
Width: 385
VWidth: 0
Flags: HMW
LayerCount: 2
Fore
SplineSet
79 1370 m 1,0,-1
 211 1707 l 1,1,-1
 307 1668 l 1,2,-1
 124 1344 l 1,3,-1
 79 1370 l 1,0,-1
EndSplineSet
Colour: ffff00
EndChar

StartChar: adieresis
Encoding: 228 228 61
Width: 812
VWidth: 0
Flags: HMW
LayerCount: 2
Fore
SplineSet
119 199 m 0,0,1
 119 135 119 135 157 89 c 128,-1,2
 195 43 195 43 259 43 c 0,3,4
 328 43 328 43 386.5 82.5 c 128,-1,5
 445 122 445 122 482 185 c 1,6,-1
 482 432 l 1,7,8
 415 422 415 422 366.5 411.5 c 128,-1,9
 318 401 318 401 268.5 383 c 128,-1,10
 219 365 219 365 188.5 341.5 c 128,-1,11
 158 318 158 318 138.5 281.5 c 128,-1,12
 119 245 119 245 119 199 c 0,0,1
19 169 m 0,13,14
 19 296 19 296 135.5 379.5 c 128,-1,15
 252 463 252 463 482 477 c 1,16,-1
 482 516 l 2,17,18
 482 681 482 681 442 753.5 c 128,-1,19
 402 826 402 826 291 826 c 0,20,21
 215 826 215 826 181.5 770 c 128,-1,22
 148 714 148 714 135 609 c 1,23,24
 100 609 100 609 76.5 626.5 c 128,-1,25
 53 644 53 644 53 676 c 0,26,27
 53 752 53 752 146.5 814.5 c 128,-1,28
 240 877 240 877 344 877 c 0,29,30
 460 877 460 877 516 802 c 128,-1,31
 572 727 572 727 572 569 c 2,32,-1
 572 229 l 2,33,34
 572 200 572 200 572.5 184.5 c 128,-1,35
 573 169 573 169 575.5 146 c 128,-1,36
 578 123 578 123 583.5 110 c 128,-1,37
 589 97 589 97 598.5 83 c 128,-1,38
 608 69 608 69 623.5 61.5 c 128,-1,39
 639 54 639 54 660 50 c 2,40,-1
 726 37 l 1,41,-1
 721 3 l 1,42,43
 674 -18 674 -18 620 -18 c 0,44,45
 561 -18 561 -18 528 21 c 128,-1,46
 495 60 495 60 495 117 c 2,47,-1
 495 130 l 1,48,-1
 490 130 l 1,49,50
 471 76 471 76 396.5 25 c 128,-1,51
 322 -26 322 -26 227 -26 c 0,52,53
 143 -26 143 -26 81 27.5 c 128,-1,54
 19 81 19 81 19 169 c 0,13,14
390 1085 m 0,55,56
 390 1163 390 1163 444 1163 c 0,57,58
 502 1163 502 1163 502 1085 c 0,59,60
 502 1004 502 1004 445 1004 c 0,61,62
 390 1004 390 1004 390 1085 c 0,55,56
121 1085 m 0,63,64
 121 1163 121 1163 176 1163 c 0,65,66
 234 1163 234 1163 234 1085 c 0,67,68
 234 1044 234 1044 221.5 1024 c 128,-1,69
 209 1004 209 1004 178 1004 c 0,70,71
 121 1004 121 1004 121 1085 c 0,63,64
EndSplineSet
Colour: ffff00
EndChar

StartChar: ae
Encoding: 230 230 62
Width: 1195
VWidth: 0
Flags: HMW
LayerCount: 2
Fore
SplineSet
600 476 m 1,0,-1
 987 514 l 1,1,2
 997 538 997 538 997 607 c 0,3,4
 997 695 997 695 944.5 756.5 c 128,-1,5
 892 818 892 818 819 818 c 0,6,7
 720 818 720 818 660 724.5 c 128,-1,8
 600 631 600 631 600 476 c 1,0,-1
150 196 m 0,9,10
 150 132 150 132 188.5 87 c 128,-1,11
 227 42 227 42 291 42 c 0,12,13
 372 42 372 42 443 102 c 128,-1,14
 514 162 514 162 514 248 c 2,15,-1
 514 424 l 1,16,17
 446 414 446 414 398.5 404.5 c 128,-1,18
 351 395 351 395 300.5 377 c 128,-1,19
 250 359 250 359 219.5 336.5 c 128,-1,20
 189 314 189 314 169.5 278 c 128,-1,21
 150 242 150 242 150 196 c 0,9,10
52 169 m 0,22,23
 52 293 52 293 161 366.5 c 128,-1,24
 270 440 270 440 514 467 c 1,25,-1
 514 538 l 2,26,27
 514 699 514 699 474.5 762 c 128,-1,28
 435 825 435 825 322 825 c 0,29,30
 246 825 246 825 213 769.5 c 128,-1,31
 180 714 180 714 167 609 c 1,32,33
 132 609 132 609 109 625 c 128,-1,34
 86 641 86 641 86 673 c 0,35,36
 86 749 86 749 178.5 812 c 128,-1,37
 271 875 271 875 377 875 c 0,38,39
 455 875 455 875 514.5 835 c 128,-1,40
 574 795 574 795 593 718 c 1,41,42
 690 874 690 874 868 874 c 0,43,44
 1101 874 1101 874 1101 573 c 0,45,46
 1101 515 1101 515 1085 451 c 1,47,-1
 599 429 l 1,48,49
 599 255 599 255 672 154 c 128,-1,50
 745 53 745 53 895 53 c 0,51,52
 1025 53 1025 53 1109 137 c 1,53,-1
 1127 104 l 1,54,55
 1081 44 1081 44 1007.5 7.5 c 128,-1,56
 934 -29 934 -29 839 -29 c 0,57,58
 759 -29 759 -29 669 28 c 128,-1,59
 579 85 579 85 546 169 c 1,60,61
 539 143 539 143 515.5 111 c 128,-1,62
 492 79 492 79 456.5 47.5 c 128,-1,63
 421 16 421 16 368 -5.5 c 128,-1,64
 315 -27 315 -27 259 -27 c 0,65,66
 175 -27 175 -27 113.5 27 c 128,-1,67
 52 81 52 81 52 169 c 0,22,23
EndSplineSet
Colour: ffff00
EndChar

StartChar: agrave
Encoding: 224 224 63
Width: 812
VWidth: 0
Flags: HMW
LayerCount: 2
Fore
SplineSet
118 199 m 0,0,1
 118 135 118 135 156 89 c 128,-1,2
 194 43 194 43 258 43 c 0,3,4
 327 43 327 43 385.5 82.5 c 128,-1,5
 444 122 444 122 481 185 c 1,6,-1
 481 432 l 1,7,8
 414 422 414 422 365.5 411.5 c 128,-1,9
 317 401 317 401 267.5 383 c 128,-1,10
 218 365 218 365 187.5 341.5 c 128,-1,11
 157 318 157 318 137.5 281.5 c 128,-1,12
 118 245 118 245 118 199 c 0,0,1
18 169 m 0,13,14
 18 296 18 296 134.5 379.5 c 128,-1,15
 251 463 251 463 481 477 c 1,16,-1
 481 516 l 2,17,18
 481 681 481 681 441 753.5 c 128,-1,19
 401 826 401 826 290 826 c 0,20,21
 214 826 214 826 180.5 770 c 128,-1,22
 147 714 147 714 134 609 c 1,23,24
 99 609 99 609 75.5 626.5 c 128,-1,25
 52 644 52 644 52 676 c 0,26,27
 52 752 52 752 145.5 814.5 c 128,-1,28
 239 877 239 877 343 877 c 0,29,30
 459 877 459 877 515 802 c 128,-1,31
 571 727 571 727 571 569 c 2,32,-1
 571 229 l 2,33,34
 571 200 571 200 571.5 184.5 c 128,-1,35
 572 169 572 169 574.5 146 c 128,-1,36
 577 123 577 123 582.5 110 c 128,-1,37
 588 97 588 97 597.5 83 c 128,-1,38
 607 69 607 69 622.5 61.5 c 128,-1,39
 638 54 638 54 659 50 c 2,40,-1
 725 37 l 1,41,-1
 720 3 l 1,42,43
 673 -18 673 -18 619 -18 c 0,44,45
 560 -18 560 -18 527 21 c 128,-1,46
 494 60 494 60 494 117 c 2,47,-1
 494 130 l 1,48,-1
 489 130 l 1,49,50
 470 76 470 76 395.5 25 c 128,-1,51
 321 -26 321 -26 226 -26 c 0,52,53
 142 -26 142 -26 80 27.5 c 128,-1,54
 18 81 18 81 18 169 c 0,13,14
144 1298 m 1,55,-1
 238 1335 l 1,56,-1
 371 999 l 1,57,-1
 325 972 l 1,58,-1
 144 1298 l 1,55,-1
EndSplineSet
Colour: ffff00
EndChar

StartChar: ampersand
Encoding: 38 38 64
Width: 1237
VWidth: 0
Flags: HMW
LayerCount: 2
Fore
SplineSet
295 1026 m 0,0,1
 295 922 295 922 449 731 c 1,2,3
 544 803 544 803 595 865.5 c 128,-1,4
 646 928 646 928 646 1000 c 0,5,6
 646 1087 646 1087 592.5 1149.5 c 128,-1,7
 539 1212 539 1212 464 1212 c 0,8,9
 390 1212 390 1212 342.5 1156.5 c 128,-1,10
 295 1101 295 1101 295 1026 c 0,0,1
162 281 m 0,11,12
 162 191 162 191 225 128 c 128,-1,13
 288 65 288 65 380 65 c 0,14,15
 550 65 550 65 693 290 c 1,16,-1
 410 622 l 1,17,-1
 407 622 l 1,18,19
 350 579 350 579 312.5 546.5 c 128,-1,20
 275 514 275 514 237 471 c 128,-1,21
 199 428 199 428 180.5 380.5 c 128,-1,22
 162 333 162 333 162 281 c 0,11,12
50 243 m 0,23,24
 50 298 50 298 70 351 c 128,-1,25
 90 404 90 404 115.5 441.5 c 128,-1,26
 141 479 141 479 191.5 527 c 128,-1,27
 242 575 242 575 274 600 c 128,-1,28
 306 625 306 625 368 672 c 1,29,30
 217 855 217 855 217 975 c 128,-1,31
 217 1095 217 1095 296 1183.5 c 128,-1,32
 375 1272 375 1272 492 1272 c 0,33,34
 608 1272 608 1272 676.5 1204 c 128,-1,35
 745 1136 745 1136 745 1021 c 0,36,37
 745 980 745 980 730.5 940 c 128,-1,38
 716 900 716 900 695 869 c 128,-1,39
 674 838 674 838 637 802.5 c 128,-1,40
 600 767 600 767 570 742.5 c 128,-1,41
 540 718 540 718 492 683 c 1,42,-1
 492 680 l 1,43,-1
 747 385 l 1,44,-1
 935 721 l 1,45,-1
 774 752 l 1,46,-1
 776 786 l 1,47,-1
 1192 786 l 1,48,-1
 1187 752 l 1,49,-1
 1019 723 l 1,50,-1
 796 332 l 1,51,52
 973 100 973 100 1141 47 c 1,53,-1
 1187 34 l 1,54,-1
 1180 -3 l 1,55,56
 1131 -20 1131 -20 1089 -20 c 0,57,58
 1021 -20 1021 -20 954.5 20.5 c 128,-1,59
 888 61 888 61 842 116 c 2,60,-1
 739 236 l 1,61,62
 711 194 711 194 683.5 160.5 c 128,-1,63
 656 127 656 127 617.5 92 c 128,-1,64
 579 57 579 57 538.5 33.5 c 128,-1,65
 498 10 498 10 446 -5 c 128,-1,66
 394 -20 394 -20 337 -20 c 0,67,68
 207 -20 207 -20 128.5 55.5 c 128,-1,69
 50 131 50 131 50 243 c 0,23,24
EndSplineSet
Colour: ffff00
EndChar

StartChar: aring
Encoding: 229 229 65
Width: 812
VWidth: 0
Flags: HMW
LayerCount: 2
Fore
SplineSet
208 1150 m 0,0,1
 208 1097 208 1097 234.5 1055.5 c 128,-1,2
 261 1014 261 1014 309 1014 c 0,3,4
 353 1014 353 1014 378 1045 c 128,-1,5
 403 1076 403 1076 403 1133 c 0,6,7
 403 1186 403 1186 374.5 1228 c 128,-1,8
 346 1270 346 1270 299 1270 c 0,9,10
 254 1270 254 1270 231 1235 c 128,-1,11
 208 1200 208 1200 208 1150 c 0,0,1
143 1139 m 0,12,13
 143 1209 143 1209 192 1259.5 c 128,-1,14
 241 1310 241 1310 311 1310 c 0,15,16
 383 1310 383 1310 426 1264.5 c 128,-1,17
 469 1219 469 1219 469 1148 c 128,-1,18
 469 1077 469 1077 421 1025 c 128,-1,19
 373 973 373 973 299 973 c 0,20,21
 229 973 229 973 186 1018 c 128,-1,22
 143 1063 143 1063 143 1139 c 0,12,13
118 199 m 0,23,24
 118 135 118 135 156 89 c 128,-1,25
 194 43 194 43 258 43 c 0,26,27
 327 43 327 43 385.5 82.5 c 128,-1,28
 444 122 444 122 481 185 c 1,29,-1
 481 432 l 1,30,31
 414 422 414 422 365.5 411.5 c 128,-1,32
 317 401 317 401 267.5 383 c 128,-1,33
 218 365 218 365 187.5 341.5 c 128,-1,34
 157 318 157 318 137.5 281.5 c 128,-1,35
 118 245 118 245 118 199 c 0,23,24
18 169 m 0,36,37
 18 296 18 296 134.5 379.5 c 128,-1,38
 251 463 251 463 481 477 c 1,39,-1
 481 516 l 2,40,41
 481 681 481 681 441 753.5 c 128,-1,42
 401 826 401 826 290 826 c 0,43,44
 214 826 214 826 180.5 770 c 128,-1,45
 147 714 147 714 134 609 c 1,46,47
 99 609 99 609 75.5 626.5 c 128,-1,48
 52 644 52 644 52 676 c 0,49,50
 52 752 52 752 145.5 814.5 c 128,-1,51
 239 877 239 877 343 877 c 0,52,53
 459 877 459 877 515 802 c 128,-1,54
 571 727 571 727 571 569 c 2,55,-1
 571 229 l 2,56,57
 571 200 571 200 571.5 184.5 c 128,-1,58
 572 169 572 169 574.5 146 c 128,-1,59
 577 123 577 123 582.5 110 c 128,-1,60
 588 97 588 97 597.5 83 c 128,-1,61
 607 69 607 69 622.5 61.5 c 128,-1,62
 638 54 638 54 659 50 c 2,63,-1
 725 37 l 1,64,-1
 720 3 l 1,65,66
 673 -18 673 -18 619 -18 c 0,67,68
 560 -18 560 -18 527 21 c 128,-1,69
 494 60 494 60 494 117 c 2,70,-1
 494 130 l 1,71,-1
 489 130 l 1,72,73
 470 76 470 76 395.5 25 c 128,-1,74
 321 -26 321 -26 226 -26 c 0,75,76
 142 -26 142 -26 80 27.5 c 128,-1,77
 18 81 18 81 18 169 c 0,36,37
EndSplineSet
Colour: ffff00
EndChar

StartChar: asciicircum
Encoding: 94 94 66
Width: 743
VWidth: 0
Flags: HMW
LayerCount: 2
Fore
SplineSet
51 826 m 1,0,-1
 339 1238 l 1,1,-1
 395 1251 l 1,2,-1
 689 824 l 1,3,-1
 650 796 l 1,4,-1
 366 1123 l 1,5,-1
 357 1123 l 1,6,-1
 84 802 l 1,7,-1
 51 826 l 1,0,-1
EndSplineSet
Colour: ffff00
EndChar

StartChar: asciitilde
Encoding: 126 126 67
Width: 901
VWidth: 0
Flags: HMW
LayerCount: 2
Fore
SplineSet
58 422 m 1,0,1
 61 432 61 432 66 448 c 128,-1,2
 71 464 71 464 91.5 502.5 c 128,-1,3
 112 541 112 541 137 568 c 128,-1,4
 162 595 162 595 205 611 c 128,-1,5
 248 627 248 627 297 614 c 2,6,-1
 646 516 l 2,7,8
 674 508 674 508 700 516 c 128,-1,9
 726 524 726 524 743 541 c 128,-1,10
 760 558 760 558 773 575 c 128,-1,11
 786 592 786 592 792 606 c 2,12,-1
 798 620 l 1,13,-1
 844 619 l 1,14,15
 841 609 841 609 835.5 592.5 c 128,-1,16
 830 576 830 576 808.5 536 c 128,-1,17
 787 496 787 496 761 467.5 c 128,-1,18
 735 439 735 439 691.5 422.5 c 128,-1,19
 648 406 648 406 598 419 c 2,20,-1
 250 516 l 2,21,22
 224 523 224 523 199 514.5 c 128,-1,23
 174 506 174 506 156.5 489 c 128,-1,24
 139 472 139 472 125 454 c 128,-1,25
 111 436 111 436 104 422 c 2,26,-1
 97 408 l 1,27,-1
 58 422 l 1,0,1
EndSplineSet
Colour: ffff00
EndChar

StartChar: asterisk
Encoding: 42 42 68
Width: 796
VWidth: 0
Flags: HMW
LayerCount: 2
Fore
SplineSet
345 1289 m 1,0,-1
 454 1280 l 1,1,-1
 429 973 l 1,2,-1
 722 1097 l 1,3,-1
 747 990 l 1,4,-1
 447 923 l 1,5,-1
 654 680 l 1,6,-1
 562 623 l 1,7,-1
 405 893 l 1,8,-1
 236 616 l 1,9,-1
 153 684 l 1,10,-1
 357 919 l 1,11,-1
 47 990 l 1,12,-1
 89 1093 l 1,13,-1
 373 970 l 1,14,-1
 345 1289 l 1,0,-1
EndSplineSet
Colour: ffff00
EndChar

StartChar: at
Encoding: 64 64 69
Width: 1291
VWidth: 0
Flags: HMW
LayerCount: 2
Fore
SplineSet
442 369 m 0,0,1
 442 258 442 258 464.5 198 c 128,-1,2
 487 138 487 138 526 138 c 0,3,4
 564 138 564 138 629 174.5 c 128,-1,5
 694 211 694 211 723 243 c 1,6,-1
 778 714 l 1,7,8
 745 725 745 725 663 725 c 0,9,10
 569 725 569 725 505.5 624.5 c 128,-1,11
 442 524 442 524 442 369 c 0,0,1
56 333 m 0,12,13
 56 468 56 468 102.5 595 c 128,-1,14
 149 722 149 722 233 822.5 c 128,-1,15
 317 923 317 923 445 983.5 c 128,-1,16
 573 1044 573 1044 725 1044 c 0,17,18
 865 1044 865 1044 982 984 c 128,-1,19
 1099 924 1099 924 1168 815.5 c 128,-1,20
 1237 707 1237 707 1237 573 c 0,21,22
 1237 438 1237 438 1177.5 323 c 128,-1,23
 1118 208 1118 208 1010 138.5 c 128,-1,24
 902 69 902 69 768 69 c 0,25,26
 743 69 743 69 731 84.5 c 128,-1,27
 719 100 719 100 719 123.5 c 128,-1,28
 719 147 719 147 720 174 c 0,29,30
 721 183 721 183 721 188 c 1,31,-1
 712 188 l 1,32,33
 680 140 680 140 617 100 c 128,-1,34
 554 60 554 60 500 60 c 0,35,36
 430 60 430 60 391.5 128.5 c 128,-1,37
 353 197 353 197 353 325 c 0,38,39
 353 427 353 427 386 516.5 c 128,-1,40
 419 606 419 606 471.5 664.5 c 128,-1,41
 524 723 524 723 588.5 756.5 c 128,-1,42
 653 790 653 790 717 790 c 0,43,44
 776 790 776 790 856 772 c 1,45,-1
 871 752 l 1,46,-1
 829 385 l 2,47,48
 826 361 826 361 821 319 c 0,49,50
 807 221 807 221 809 178.5 c 128,-1,51
 811 136 811 136 840 136 c 0,52,53
 899 136 899 136 954 163 c 128,-1,54
 1009 190 1009 190 1054 240 c 128,-1,55
 1099 290 1099 290 1126 368 c 128,-1,56
 1153 446 1153 446 1153 540 c 0,57,58
 1153 639 1153 639 1113.5 724.5 c 128,-1,59
 1074 810 1074 810 1008.5 866.5 c 128,-1,60
 943 923 943 923 859.5 955.5 c 128,-1,61
 776 988 776 988 687 988 c 0,62,63
 533 988 533 988 409 906.5 c 128,-1,64
 285 825 285 825 215.5 681 c 128,-1,65
 146 537 146 537 146 358 c 0,66,67
 146 121 146 121 284.5 -21 c 128,-1,68
 423 -163 423 -163 665 -163 c 0,69,70
 766 -163 766 -163 877.5 -121.5 c 128,-1,71
 989 -80 989 -80 1032 -43 c 1,72,-1
 1053 -82 l 1,73,74
 1010 -113 1010 -113 978.5 -132.5 c 128,-1,75
 947 -152 947 -152 893.5 -177 c 128,-1,76
 840 -202 840 -202 773 -214.5 c 128,-1,77
 706 -227 706 -227 628 -227 c 0,78,79
 512 -227 512 -227 409.5 -190 c 128,-1,80
 307 -153 307 -153 228 -84.5 c 128,-1,81
 149 -16 149 -16 102.5 92 c 128,-1,82
 56 200 56 200 56 333 c 0,12,13
EndSplineSet
Colour: ffff00
EndChar

StartChar: atilde
Encoding: 227 227 70
Width: 812
VWidth: 0
Flags: HMW
LayerCount: 2
Fore
SplineSet
84 990 m 1,0,1
 84 992 84 992 85 996 c 128,-1,2
 86 1000 86 1000 89.5 1011.5 c 128,-1,3
 93 1023 93 1023 97 1033 c 128,-1,4
 101 1043 101 1043 108.5 1058.5 c 128,-1,5
 116 1074 116 1074 124.5 1084 c 128,-1,6
 133 1094 133 1094 145.5 1106.5 c 128,-1,7
 158 1119 158 1119 172 1123 c 128,-1,8
 186 1127 186 1127 204 1130 c 128,-1,9
 222 1133 222 1133 242 1125 c 1,10,-1
 423 1071 l 2,11,12
 455 1061 455 1061 479 1077.5 c 128,-1,13
 503 1094 503 1094 511 1116 c 2,14,-1
 519 1138 l 1,15,-1
 553 1136 l 1,16,17
 552 1134 552 1134 551 1130.5 c 128,-1,18
 550 1127 550 1127 546.5 1115 c 128,-1,19
 543 1103 543 1103 541.5 1100.5 c 2,20,-1
 529 1075.5 l 2,21,22
 518 1053 518 1053 508.5 1042.5 c 128,-1,23
 499 1032 499 1032 486.5 1020 c 128,-1,24
 474 1008 474 1008 459.5 1004 c 128,-1,25
 445 1000 445 1000 426.5 997 c 128,-1,26
 408 994 408 994 387 1002 c 1,27,-1
 211 1054 l 2,28,29
 183 1063 183 1063 157.5 1044.5 c 128,-1,30
 132 1026 132 1026 122 1002 c 2,31,-1
 112 978 l 1,32,-1
 84 990 l 1,0,1
119 199 m 0,33,34
 119 135 119 135 157 89 c 128,-1,35
 195 43 195 43 259 43 c 0,36,37
 328 43 328 43 386.5 82.5 c 128,-1,38
 445 122 445 122 482 185 c 1,39,-1
 482 432 l 1,40,41
 415 422 415 422 366.5 411.5 c 128,-1,42
 318 401 318 401 268.5 383 c 128,-1,43
 219 365 219 365 188.5 341.5 c 128,-1,44
 158 318 158 318 138.5 281.5 c 128,-1,45
 119 245 119 245 119 199 c 0,33,34
19 169 m 0,46,47
 19 296 19 296 135.5 379.5 c 128,-1,48
 252 463 252 463 482 477 c 1,49,-1
 482 516 l 2,50,51
 482 681 482 681 442 753.5 c 128,-1,52
 402 826 402 826 291 826 c 0,53,54
 215 826 215 826 181.5 770 c 128,-1,55
 148 714 148 714 135 609 c 1,56,57
 100 609 100 609 76.5 626.5 c 128,-1,58
 53 644 53 644 53 676 c 0,59,60
 53 752 53 752 146.5 814.5 c 128,-1,61
 240 877 240 877 344 877 c 0,62,63
 460 877 460 877 516 802 c 128,-1,64
 572 727 572 727 572 569 c 2,65,-1
 572 229 l 2,66,67
 572 200 572 200 572.5 184.5 c 128,-1,68
 573 169 573 169 575.5 146 c 128,-1,69
 578 123 578 123 583.5 110 c 128,-1,70
 589 97 589 97 598.5 83 c 128,-1,71
 608 69 608 69 623.5 61.5 c 128,-1,72
 639 54 639 54 660 50 c 2,73,-1
 726 37 l 1,74,-1
 721 3 l 1,75,76
 674 -18 674 -18 620 -18 c 0,77,78
 561 -18 561 -18 528 21 c 128,-1,79
 495 60 495 60 495 117 c 2,80,-1
 495 130 l 1,81,-1
 490 130 l 1,82,83
 471 76 471 76 396.5 25 c 128,-1,84
 322 -26 322 -26 227 -26 c 0,85,86
 143 -26 143 -26 81 27.5 c 128,-1,87
 19 81 19 81 19 169 c 0,46,47
EndSplineSet
Colour: ffff00
EndChar

StartChar: b
Encoding: 98 98 71
Width: 957
VWidth: 0
Flags: HMW
LayerCount: 2
Fore
SplineSet
296 98 m 1,0,1
 357 37 357 37 500 37 c 0,2,3
 551 37 551 37 603.5 63.5 c 128,-1,4
 656 90 656 90 699.5 136 c 128,-1,5
 743 182 743 182 770 252.5 c 128,-1,6
 797 323 797 323 797 404 c 0,7,8
 797 607 797 607 730 704.5 c 128,-1,9
 663 802 663 802 521 802 c 0,10,11
 468 802 468 802 414 767 c 128,-1,12
 360 732 360 732 296 664 c 1,13,-1
 296 98 l 1,0,1
46 1221 m 1,14,-1
 52 1252 l 1,15,-1
 291 1271 l 1,16,-1
 296 1262 l 1,17,-1
 296 824 l 1,18,-1
 281 721 l 1,19,-1
 294 721 l 1,20,21
 431 874 431 874 588 874 c 0,22,23
 732 874 732 874 816.5 761.5 c 128,-1,24
 901 649 901 649 901 460 c 0,25,26
 901 344 901 344 863 251 c 128,-1,27
 825 158 825 158 759.5 98.5 c 128,-1,28
 694 39 694 39 608 7.5 c 128,-1,29
 522 -24 522 -24 424 -24 c 0,30,31
 358 -24 358 -24 308 -7 c 128,-1,32
 258 10 258 10 201 48 c 1,33,-1
 201 1190 l 1,34,-1
 46 1221 l 1,14,-1
EndSplineSet
Colour: ffff00
EndChar

StartChar: backslash
Encoding: 92 92 72
Width: 627
VWidth: 0
Flags: HMW
LayerCount: 2
Fore
SplineSet
43 1244 m 1,0,-1
 126 1241 l 1,1,-1
 587 -358 l 1,2,-1
 508 -354 l 1,3,-1
 43 1244 l 1,0,-1
EndSplineSet
Colour: ffff00
EndChar

StartChar: bar
Encoding: 124 124 73
Width: 226
VWidth: 0
Flags: HMW
LayerCount: 2
Fore
SplineSet
75 -368 m 1,0,-1
 75 1260 l 1,1,-1
 151 1248 l 1,2,-1
 151 -380 l 1,3,-1
 75 -368 l 1,0,-1
EndSplineSet
Colour: ffff00
EndChar

StartChar: braceleft
Encoding: 123 123 74
Width: 614
VWidth: 0
Flags: HMW
LayerCount: 2
Fore
SplineSet
575 -378 m 1,0,-1
 473 -378 l 2,1,2
 389 -378 389 -378 338.5 -336.5 c 128,-1,3
 288 -295 288 -295 270 -228 c 128,-1,4
 252 -161 252 -161 247.5 -79.5 c 128,-1,5
 243 2 243 2 242.5 84.5 c 128,-1,6
 242 167 242 167 234 237 c 128,-1,7
 226 307 226 307 193.5 354 c 128,-1,8
 161 401 161 401 101 408 c 2,9,-1
 48 414 l 1,10,-1
 48 463 l 1,11,-1
 97 470 l 2,12,13
 145 476 145 476 175.5 506.5 c 128,-1,14
 206 537 206 537 218.5 584 c 128,-1,15
 231 631 231 631 236 690 c 128,-1,16
 241 749 241 749 241.5 813 c 128,-1,17
 242 877 242 877 244 940 c 128,-1,18
 246 1003 246 1003 257.5 1060 c 128,-1,19
 269 1117 269 1117 291 1161 c 128,-1,20
 313 1205 313 1205 358 1230.5 c 128,-1,21
 403 1256 403 1256 468 1256 c 2,22,-1
 571 1256 l 1,23,-1
 563 1207 l 1,24,-1
 457 1200 l 2,25,26
 413 1198 413 1198 390 1159 c 128,-1,27
 367 1120 367 1120 361 1059 c 128,-1,28
 355 998 355 998 354.5 923 c 128,-1,29
 354 848 354 848 348.5 770.5 c 128,-1,30
 343 693 343 693 328 626 c 128,-1,31
 313 559 313 559 272 508.5 c 128,-1,32
 231 458 231 458 164 441 c 1,33,-1
 164 437 l 1,34,35
 231 426 231 426 272 379 c 128,-1,36
 313 332 313 332 328.5 265 c 128,-1,37
 344 198 344 198 349.5 119 c 128,-1,38
 355 40 355 40 356.5 -37 c 128,-1,39
 358 -114 358 -114 365 -177.5 c 128,-1,40
 372 -241 372 -241 397 -281 c 128,-1,41
 422 -321 422 -321 468 -323 c 2,42,-1
 569 -329 l 1,43,-1
 575 -378 l 1,0,-1
EndSplineSet
Colour: ffff00
EndChar

StartChar: braceright
Encoding: 125 125 75
Width: 614
VWidth: 0
Flags: HMW
LayerCount: 2
Fore
SplineSet
42 -378 m 1,0,-1
 48 -329 l 1,1,-1
 149 -323 l 2,2,3
 195 -321 195 -321 220 -281 c 128,-1,4
 245 -241 245 -241 252 -177.5 c 128,-1,5
 259 -114 259 -114 260.5 -37 c 128,-1,6
 262 40 262 40 267.5 119 c 128,-1,7
 273 198 273 198 288.5 265 c 128,-1,8
 304 332 304 332 345 379 c 128,-1,9
 386 426 386 426 453 437 c 1,10,-1
 453 441 l 1,11,12
 386 458 386 458 345 508.5 c 128,-1,13
 304 559 304 559 289 626 c 128,-1,14
 274 693 274 693 268.5 770.5 c 128,-1,15
 263 848 263 848 262.5 923 c 128,-1,16
 262 998 262 998 256 1059 c 128,-1,17
 250 1120 250 1120 227 1159 c 128,-1,18
 204 1198 204 1198 160 1200 c 2,19,-1
 54 1207 l 1,20,-1
 46 1256 l 1,21,-1
 149 1256 l 2,22,23
 214 1256 214 1256 259 1230.5 c 128,-1,24
 304 1205 304 1205 326 1161 c 128,-1,25
 348 1117 348 1117 359.5 1060 c 128,-1,26
 371 1003 371 1003 373 940 c 128,-1,27
 375 877 375 877 375.5 813 c 128,-1,28
 376 749 376 749 381 690 c 128,-1,29
 386 631 386 631 398.5 584 c 128,-1,30
 411 537 411 537 441.5 506.5 c 128,-1,31
 472 476 472 476 520 470 c 2,32,-1
 569 463 l 1,33,-1
 569 414 l 1,34,-1
 516 408 l 2,35,36
 456 401 456 401 423.5 354 c 128,-1,37
 391 307 391 307 383 237 c 128,-1,38
 375 167 375 167 374.5 84.5 c 128,-1,39
 374 2 374 2 369.5 -79.5 c 128,-1,40
 365 -161 365 -161 347 -228 c 128,-1,41
 329 -295 329 -295 278.5 -336.5 c 128,-1,42
 228 -378 228 -378 144 -378 c 2,43,-1
 42 -378 l 1,0,-1
EndSplineSet
Colour: ffff00
EndChar

StartChar: bracketleft
Encoding: 91 91 76
Width: 485
VWidth: 0
Flags: HMW
LayerCount: 2
Fore
SplineSet
447 -333 m 1,0,-1
 441 -374 l 1,1,-1
 79 -374 l 1,2,-1
 79 1256 l 1,3,-1
 441 1256 l 1,4,-1
 444 1203 l 1,5,-1
 189 1182 l 1,6,-1
 189 -312 l 1,7,-1
 447 -333 l 1,0,-1
EndSplineSet
Colour: ffff00
EndChar

StartChar: bracketright
Encoding: 93 93 77
Width: 485
VWidth: 0
Flags: HMW
LayerCount: 2
Fore
SplineSet
42 -333 m 1,0,-1
 300 -312 l 1,1,-1
 300 1182 l 1,2,-1
 45 1203 l 1,3,-1
 48 1256 l 1,4,-1
 410 1256 l 1,5,-1
 410 -374 l 1,6,-1
 48 -374 l 1,7,-1
 42 -333 l 1,0,-1
EndSplineSet
Colour: ffff00
EndChar

StartChar: brokenbar
Encoding: 166 166 78
Width: 215
VWidth: 0
Flags: HMW
LayerCount: 2
Fore
SplineSet
73 535 m 1,0,-1
 73 1253 l 1,1,-1
 141 1248 l 1,2,-1
 138 529 l 1,3,-1
 73 535 l 1,0,-1
73 -374 m 1,4,-1
 73 414 l 1,5,-1
 142 410 l 1,6,-1
 142 -380 l 1,7,-1
 73 -374 l 1,4,-1
EndSplineSet
Colour: ffff00
EndChar

StartChar: c
Encoding: 99 99 79
Width: 743
VWidth: 0
Flags: HMW
LayerCount: 2
Fore
SplineSet
57 395 m 0,0,1
 57 614 57 614 162 744.5 c 128,-1,2
 267 875 267 875 432 875 c 0,3,4
 548 875 548 875 600.5 825 c 128,-1,5
 653 775 653 775 653 706 c 0,6,7
 653 632 653 632 588 612 c 1,8,9
 552 718 552 718 506 765.5 c 128,-1,10
 460 813 460 813 384 813 c 0,11,12
 289 813 289 813 223 719.5 c 128,-1,13
 157 626 157 626 157 453 c 0,14,15
 157 45 157 45 442 45 c 0,16,17
 510 45 510 45 573 74.5 c 128,-1,18
 636 104 636 104 677 144 c 1,19,-1
 695 111 l 1,20,21
 658 53 658 53 573.5 12 c 128,-1,22
 489 -29 489 -29 394 -29 c 0,23,24
 233 -29 233 -29 145 89.5 c 128,-1,25
 57 208 57 208 57 395 c 0,0,1
EndSplineSet
Colour: ffff00
EndChar

StartChar: ccedilla
Encoding: 231 231 80
Width: 743
VWidth: 0
Flags: HMW
LayerCount: 2
Fore
SplineSet
34 395 m 0,0,1
 34 614 34 614 139 744.5 c 128,-1,2
 244 875 244 875 409 875 c 0,3,4
 525 875 525 875 577.5 825 c 128,-1,5
 630 775 630 775 630 706 c 0,6,7
 630 632 630 632 565 612 c 1,8,9
 529 718 529 718 483 765.5 c 128,-1,10
 437 813 437 813 361 813 c 0,11,12
 266 813 266 813 200 719.5 c 128,-1,13
 134 626 134 626 134 453 c 0,14,15
 134 45 134 45 419 45 c 0,16,17
 487 45 487 45 550 74.5 c 128,-1,18
 613 104 613 104 654 144 c 1,19,-1
 672 111 l 1,20,21
 641 62 641 62 574 24 c 128,-1,22
 507 -14 507 -14 428 -25 c 1,23,-1
 392 -76 l 1,24,25
 481 -155 481 -155 481 -227 c 0,26,27
 481 -283 481 -283 429.5 -322 c 128,-1,28
 378 -361 378 -361 282 -390 c 1,29,-1
 271 -347 l 1,30,31
 314 -332 314 -332 351.5 -300.5 c 128,-1,32
 389 -269 389 -269 389 -247 c 0,33,34
 389 -224 389 -224 379.5 -203.5 c 128,-1,35
 370 -183 370 -183 361 -172.5 c 128,-1,36
 352 -162 352 -162 330.5 -143 c 128,-1,37
 309 -124 309 -124 303 -118 c 1,38,-1
 366 -29 l 1,39,40
 260 -28 260 -28 183.5 29.5 c 128,-1,41
 107 87 107 87 70.5 180.5 c 128,-1,42
 34 274 34 274 34 395 c 0,0,1
EndSplineSet
Colour: ffff00
EndChar

StartChar: cedilla
Encoding: 184 184 81
Width: 328
VWidth: 0
Flags: HMW
LayerCount: 2
Fore
SplineSet
56 -347 m 1,0,1
 99 -332 99 -332 136.5 -300.5 c 128,-1,2
 174 -269 174 -269 174 -247 c 0,3,4
 174 -224 174 -224 164.5 -203.5 c 128,-1,5
 155 -183 155 -183 146 -172.5 c 128,-1,6
 137 -162 137 -162 115.5 -143 c 128,-1,7
 94 -124 94 -124 88 -118 c 1,8,-1
 173 3 l 1,9,-1
 232 3 l 1,10,-1
 177 -76 l 1,11,12
 266 -155 266 -155 266 -227 c 0,13,14
 266 -283 266 -283 214.5 -322 c 128,-1,15
 163 -361 163 -361 67 -390 c 1,16,-1
 56 -347 l 1,0,1
EndSplineSet
Colour: ffff00
EndChar

StartChar: cent
Encoding: 162 162 82
Width: 735
VWidth: 0
Flags: HMW
LayerCount: 2
Back
SplineSet
113.135 349.123 m 4,0,1
 113.135 537.88 113.135 537.88 203.028 653.808 c 0
 292.92 769.736 292.92 769.736 433.802 769.736 c 0,2,3
 485.502 769.736 485.502 769.736 523.799 756.947 c 0
 562.096 744.158 562.096 744.158 582.741 722.498 c 0
 603.385 700.838 603.385 700.838 612.988 676.629 c 0
 622.591 652.42 622.591 652.42 622.591 625.367 c 0,4,5
 622.591 594.109 622.591 594.109 610.16 574.574 c 0
 597.729 555.039 597.729 555.039 567.76 545.549 c 1,6,7
 536.873 636.58 536.873 636.58 497.587 677.478 c 0
 458.3 718.375 458.3 718.375 392.851 718.375 c 0,8,9
 312.277 718.375 312.277 718.375 255.392 632.773 c 0
 198.507 547.172 198.507 547.172 198.507 398.403 c 0,10,11
 198.507 216.447 198.507 216.447 265.71 128.699 c 0
 332.913 40.9512 332.913 40.9512 442.824 40.9512 c 0,12,13
 501.923 40.9512 501.923 40.9512 555.54 65.0656 c 0
 609.158 89.1801 609.158 89.1801 644.108 123.547 c 1,14,-1
 659.378 95.0898 l 1,15,16
 626.933 45.3402 626.933 45.3402 554.391 10.1764 c 0
 481.848 -24.9873 481.848 -24.9873 401.179 -24.9873 c 0,17,18
 309.535 -24.9873 309.535 -24.9873 243.095 26.4126 c 0
 176.656 77.8124 176.656 77.8124 144.895 161.22 c 0
 113.135 244.627 113.135 244.627 113.135 349.123 c 4,0,1
345.652 954.363 m 1,19,-1
 436.577 968.938 l 1,20,-1
 415.756 739.197 l 1,21,-1
 372.722 739.197 l 1,22,-1
 345.652 954.363 l 1,19,-1
354.676 -228.353 m 1,23,-1
 376.886 0 l 1,24,-1
 418.531 0 l 1,25,-1
 446.989 -214.472 l 1,26,-1
 354.676 -228.353 l 1,23,-1
EndSplineSet
Fore
SplineSet
327 1115 m 1,0,-1
 433 1133 l 1,1,-1
 412 899 l 1,2,3
 421 899 421 899 430 899 c 0,4,5
 546 899 546 899 598.5 849.5 c 128,-1,6
 651 800 651 800 651 731 c 0,7,8
 651 658 651 658 586 638 c 1,9,10
 550 744 550 744 504 792 c 128,-1,11
 458 840 458 840 382 840 c 0,12,13
 288 840 288 840 221.5 739.5 c 128,-1,14
 155 639 155 639 155 465 c 0,15,16
 155 252 155 252 233 149.5 c 128,-1,17
 311 47 311 47 440 47 c 0,18,19
 509 47 509 47 571.5 75.5 c 128,-1,20
 634 104 634 104 675 144 c 1,21,-1
 693 111 l 1,22,23
 658 57 658 57 581 17 c 128,-1,24
 504 -23 504 -23 416 -28 c 1,25,-1
 445 -250 l 1,26,-1
 337 -267 l 1,27,-1
 361 -28 l 1,28,29
 263 -20 263 -20 192.5 42 c 128,-1,30
 122 104 122 104 88.5 198 c 128,-1,31
 55 292 55 292 55 408 c 0,32,33
 55 602 55 602 137.5 731.5 c 128,-1,34
 220 861 220 861 355 891 c 1,35,-1
 327 1115 l 1,0,-1
EndSplineSet
Colour: ffff00
EndChar

StartChar: circumflex
Encoding: 710 710 83
Width: 558
VWidth: 0
Flags: HMW
LayerCount: 2
Fore
SplineSet
79 1388 m 1,0,-1
 246 1569 l 1,1,-1
 300 1582 l 1,2,-1
 479 1396 l 1,3,-1
 447 1359 l 1,4,-1
 266 1494 l 1,5,-1
 257 1494 l 1,6,-1
 100 1358 l 1,7,-1
 79 1388 l 1,0,-1
EndSplineSet
Colour: ff00ff
EndChar

StartChar: colon
Encoding: 58 58 84
Width: 258
VWidth: 0
Flags: HMW
LayerCount: 2
Fore
SplineSet
68 103 m 0,0,1
 68 200 68 200 131 200 c 128,-1,2
 194 200 194 200 194 103 c 0,3,4
 194 0 194 0 131 0 c 128,-1,5
 68 0 68 0 68 103 c 0,0,1
65 734 m 0,6,7
 65 829 65 829 128 829 c 0,8,9
 190 829 190 829 190 734 c 0,10,11
 190 682 190 682 176 656.5 c 128,-1,12
 162 631 162 631 129 631 c 0,13,14
 65 631 65 631 65 734 c 0,6,7
EndSplineSet
Colour: ffff00
EndChar

StartChar: comma
Encoding: 44 44 85
Width: 394
VWidth: 0
Flags: HMW
LayerCount: 2
Fore
SplineSet
54 -236 m 1,0,1
 155 -196 155 -196 193.5 -146.5 c 128,-1,2
 232 -97 232 -97 232 -30 c 0,3,4
 232 34 232 34 200.5 73 c 128,-1,5
 169 112 169 112 123 112 c 0,6,7
 105 112 105 112 96 108 c 1,8,9
 93 117 93 117 93 127 c 0,10,11
 93 168 93 168 119.5 193 c 128,-1,12
 146 218 146 218 189 218 c 0,13,14
 249 218 249 218 290.5 163 c 128,-1,15
 332 108 332 108 332 9 c 0,16,17
 332 -29 332 -29 319 -67 c 128,-1,18
 306 -105 306 -105 278 -145.5 c 128,-1,19
 250 -186 250 -186 195.5 -221.5 c 128,-1,20
 141 -257 141 -257 66 -281 c 1,21,-1
 54 -236 l 1,0,1
EndSplineSet
Colour: ffff00
EndChar

StartChar: copyright
Encoding: 169 169 86
Width: 1326
VWidth: 0
Flags: HMW
LayerCount: 2
Fore
SplineSet
121 631 m 0,0,1
 121 460 121 460 188 323 c 128,-1,2
 255 186 255 186 376 108.5 c 128,-1,3
 497 31 497 31 651 31 c 0,4,5
 890 31 890 31 1047.5 196.5 c 128,-1,6
 1205 362 1205 362 1205 613 c 0,7,8
 1205 787 1205 787 1133.5 927.5 c 128,-1,9
 1062 1068 1062 1068 935.5 1147 c 128,-1,10
 809 1226 809 1226 653 1226 c 0,11,12
 499 1226 499 1226 377.5 1149 c 128,-1,13
 256 1072 256 1072 188.5 936 c 128,-1,14
 121 800 121 800 121 631 c 0,0,1
53 620 m 0,15,16
 53 766 53 766 99 890.5 c 128,-1,17
 145 1015 145 1015 225 1100 c 128,-1,18
 305 1185 305 1185 415 1233 c 128,-1,19
 525 1281 525 1281 651 1281 c 0,20,21
 933 1281 933 1281 1101.5 1100 c 128,-1,22
 1270 919 1270 919 1270 623 c 0,23,24
 1270 329 1270 329 1099.5 151 c 128,-1,25
 929 -27 929 -27 642 -27 c 0,26,27
 370 -27 370 -27 211.5 149.5 c 128,-1,28
 53 326 53 326 53 620 c 0,15,16
308 610 m 0,29,30
 308 790 308 790 394 897 c 128,-1,31
 480 1004 480 1004 615 1004 c 0,32,33
 665 1004 665 1004 701.5 991.5 c 128,-1,34
 738 979 738 979 758 958 c 128,-1,35
 778 937 778 937 787 914 c 128,-1,36
 796 891 796 891 796 865 c 0,37,38
 796 805 796 805 743 788 c 1,39,40
 714 875 714 875 676 914 c 128,-1,41
 638 953 638 953 576 953 c 0,42,43
 498 953 498 953 444 876 c 128,-1,44
 390 799 390 799 390 657 c 0,45,46
 390 481 390 481 450.5 402 c 128,-1,47
 511 323 511 323 623 323 c 0,48,49
 679 323 679 323 730.5 347 c 128,-1,50
 782 371 782 371 816 404 c 1,51,-1
 831 377 l 1,52,53
 800 329 800 329 731 295.5 c 128,-1,54
 662 262 662 262 584 262 c 0,55,56
 496 262 496 262 432.5 308.5 c 128,-1,57
 369 355 369 355 338.5 432.5 c 128,-1,58
 308 510 308 510 308 610 c 0,29,30
EndSplineSet
Colour: ffff00
EndChar

StartChar: currency
Encoding: 164 164 87
Width: 700
VWidth: 0
Flags: HMW
LayerCount: 2
Fore
SplineSet
161 496 m 0,0,1
 161 403 161 403 212 345.5 c 128,-1,2
 263 288 263 288 346 288 c 0,3,4
 433 288 433 288 486.5 344 c 128,-1,5
 540 400 540 400 540 489 c 0,6,7
 540 584 540 584 486 642 c 128,-1,8
 432 700 432 700 344 700 c 0,9,10
 261 700 261 700 211 643.5 c 128,-1,11
 161 587 161 587 161 496 c 0,0,1
52 734 m 1,12,-1
 102 782 l 1,13,-1
 180 693 l 1,14,15
 216 723 216 723 265.5 747.5 c 128,-1,16
 315 772 315 772 349 772 c 0,17,18
 386 772 386 772 437 749.5 c 128,-1,19
 488 727 488 727 524 701 c 1,20,-1
 602 783 l 1,21,-1
 644 730 l 1,22,-1
 560 656 l 1,23,24
 578 625 578 625 595.5 575 c 128,-1,25
 613 525 613 525 613 493 c 0,26,27
 613 457 613 457 594 407 c 128,-1,28
 575 357 575 357 553 327 c 1,29,-1
 646 241 l 1,30,-1
 594 193 l 1,31,-1
 515 283 l 1,32,33
 475 259 475 259 425 239.5 c 128,-1,34
 375 220 375 220 343 220 c 0,35,36
 315 220 315 220 271 238 c 128,-1,37
 227 256 227 256 191 278 c 1,38,-1
 113 190 l 1,39,-1
 64 239 l 1,40,-1
 148 317 l 1,41,42
 125 352 125 352 106 403.5 c 128,-1,43
 87 455 87 455 87 492 c 0,44,45
 87 524 87 524 105 570.5 c 128,-1,46
 123 617 123 617 143 647 c 1,47,-1
 52 734 l 1,12,-1
EndSplineSet
Colour: ffff00
EndChar

StartChar: d
Encoding: 100 100 88
Width: 956
VWidth: 0
Flags: HMW
LayerCount: 2
Fore
SplineSet
156 442 m 0,0,1
 156 259 156 259 222.5 153 c 128,-1,2
 289 47 289 47 423 47 c 0,3,4
 485 47 485 47 556.5 89.5 c 128,-1,5
 628 132 628 132 668 190 c 1,6,-1
 668 704 l 1,7,8
 625 760 625 760 560.5 789 c 128,-1,9
 496 818 496 818 422 818 c 0,10,11
 315 818 315 818 235.5 719.5 c 128,-1,12
 156 621 156 621 156 442 c 0,0,1
56 386 m 0,13,14
 56 498 56 498 90.5 592 c 128,-1,15
 125 686 125 686 183 747.5 c 128,-1,16
 241 809 241 809 316 843 c 128,-1,17
 391 877 391 877 472 877 c 0,18,19
 521 877 521 877 581 861 c 128,-1,20
 641 845 641 845 666 825 c 1,21,-1
 676 825 l 1,22,-1
 660 960 l 1,23,-1
 660 1190 l 1,24,-1
 507 1221 l 1,25,-1
 513 1252 l 1,26,-1
 751 1272 l 1,27,-1
 759 1262 l 1,28,-1
 759 229 l 2,29,30
 759 184 759 184 765 151.5 c 128,-1,31
 771 119 771 119 779 101.5 c 128,-1,32
 787 84 787 84 801 72 c 128,-1,33
 815 60 815 60 824 57 c 128,-1,34
 833 54 833 54 848 50 c 2,35,-1
 908 37 l 1,36,-1
 902 1 l 1,37,38
 855 -20 855 -20 807 -20 c 0,39,40
 741 -20 741 -20 709.5 19 c 128,-1,41
 678 58 678 58 678 124 c 2,42,-1
 678 131 l 1,43,-1
 668 131 l 1,44,45
 620 66 620 66 542 22 c 128,-1,46
 464 -22 464 -22 368 -22 c 0,47,48
 230 -22 230 -22 143 85 c 128,-1,49
 56 192 56 192 56 386 c 0,13,14
EndSplineSet
Colour: ffff00
EndChar

StartChar: dagger
Encoding: 8224 8224 89
Width: 772
VWidth: 0
Flags: HMW
LayerCount: 2
Fore
SplineSet
43 734 m 1,0,-1
 52 810 l 1,1,-1
 349 803 l 1,2,-1
 339 1256 l 1,3,-1
 433 1244 l 1,4,-1
 422 803 l 1,5,-1
 728 810 l 1,6,-1
 721 730 l 1,7,-1
 422 740 l 1,8,-1
 439 -363 l 1,9,-1
 333 -351 l 1,10,-1
 349 742 l 1,11,-1
 43 734 l 1,0,-1
EndSplineSet
Colour: ff00ff
EndChar

StartChar: daggerdbl
Encoding: 8225 8225 90
Width: 780
VWidth: 0
Flags: HMW
LayerCount: 2
Fore
SplineSet
45 734 m 1,0,-1
 54 809 l 1,1,-1
 350 802 l 1,2,-1
 340 1256 l 1,3,-1
 434 1244 l 1,4,-1
 423 802 l 1,5,-1
 728 809 l 1,6,-1
 720 729 l 1,7,-1
 423 739 l 1,8,-1
 415 429 l 1,9,-1
 423 154 l 1,10,-1
 734 162 l 1,11,-1
 728 87 l 1,12,-1
 423 97 l 1,13,-1
 429 -363 l 1,14,-1
 337 -353 l 1,15,-1
 347 97 l 1,16,-1
 61 87 l 1,17,-1
 66 169 l 1,18,-1
 347 157 l 1,19,-1
 353 498 l 1,20,-1
 350 740 l 1,21,-1
 45 734 l 1,0,-1
EndSplineSet
Colour: ff00ff
EndChar

StartChar: degree
Encoding: 176 176 91
Width: 483
VWidth: 0
Flags: HMW
LayerCount: 2
Fore
SplineSet
120 1129 m 0,0,1
 120 1053 120 1053 153.5 1010 c 128,-1,2
 187 967 187 967 244 967 c 0,3,4
 291 967 291 967 326 1006 c 128,-1,5
 361 1045 361 1045 361 1105 c 0,6,7
 361 1176 361 1176 327 1220.5 c 128,-1,8
 293 1265 293 1265 238 1265 c 128,-1,9
 183 1265 183 1265 151.5 1228.5 c 128,-1,10
 120 1192 120 1192 120 1129 c 0,0,1
59 1107 m 0,11,12
 59 1186 59 1186 115.5 1245 c 128,-1,13
 172 1304 172 1304 252 1304 c 0,14,15
 337 1304 337 1304 380 1258 c 128,-1,16
 423 1212 423 1212 423 1128 c 0,17,18
 423 1043 423 1043 366 985.5 c 128,-1,19
 309 928 309 928 228 928 c 0,20,21
 150 928 150 928 104.5 974.5 c 128,-1,22
 59 1021 59 1021 59 1107 c 0,11,12
EndSplineSet
Colour: ffff00
EndChar

StartChar: dieresis
Encoding: 168 168 92
Width: 541
VWidth: 0
Flags: HMW
LayerCount: 2
Fore
SplineSet
349 1465 m 0,0,1
 349 1543 349 1543 403 1543 c 0,2,3
 461 1543 461 1543 461 1465 c 0,4,5
 461 1384 461 1384 404 1384 c 0,6,7
 349 1384 349 1384 349 1465 c 0,0,1
80 1465 m 0,8,9
 80 1543 80 1543 135 1543 c 0,10,11
 193 1543 193 1543 193 1465 c 0,12,13
 193 1424 193 1424 180.5 1404 c 128,-1,14
 168 1384 168 1384 137 1384 c 0,15,16
 80 1384 80 1384 80 1465 c 0,8,9
EndSplineSet
Colour: ffff00
EndChar

StartChar: divide
Encoding: 247 247 93
Width: 929
VWidth: 0
Flags: HMW
LayerCount: 2
Fore
SplineSet
397 789 m 0,0,1
 397 885 397 885 457 885 c 0,2,3
 524 885 524 885 524 789 c 0,4,5
 524 685 524 685 459 685 c 0,6,7
 397 685 397 685 397 789 c 0,0,1
397 224 m 0,8,9
 397 272 397 272 411 294.5 c 128,-1,10
 425 317 425 317 457 317 c 0,11,12
 524 317 524 317 524 224 c 0,13,14
 524 120 524 120 459 120 c 0,15,16
 397 120 397 120 397 224 c 0,8,9
53 476 m 1,17,-1
 65 541 l 1,18,-1
 877 541 l 1,19,-1
 866 476 l 1,20,-1
 53 476 l 1,17,-1
EndSplineSet
Colour: ffff00
EndChar

StartChar: dollar
Encoding: 36 36 94
Width: 822
VWidth: 0
Flags: HMW
LayerCount: 2
Fore
SplineSet
46 116 m 1,0,-1
 76 401 l 1,1,-1
 124 393 l 1,2,-1
 152 174 l 1,3,4
 179 121 179 121 239 86 c 128,-1,5
 299 51 299 51 373 41 c 1,6,-1
 378 54 l 1,7,-1
 378 594 l 1,8,9
 341 618 341 618 317 634.5 c 128,-1,10
 293 651 293 651 260.5 676 c 128,-1,11
 228 701 228 701 206.5 722 c 128,-1,12
 185 743 185 743 162 771.5 c 128,-1,13
 139 800 139 800 125.5 827.5 c 128,-1,14
 112 855 112 855 103.5 889 c 128,-1,15
 95 923 95 923 95 959 c 0,16,17
 95 1022 95 1022 117.5 1076 c 128,-1,18
 140 1130 140 1130 178 1168 c 128,-1,19
 216 1206 216 1206 263.5 1231 c 128,-1,20
 311 1256 311 1256 365 1265 c 1,21,-1
 356 1396 l 1,22,-1
 465 1411 l 1,23,-1
 452 1270 l 1,24,25
 531 1266 531 1266 603 1238.5 c 128,-1,26
 675 1211 675 1211 719 1161 c 1,27,-1
 686 851 l 1,28,-1
 640 858 l 1,29,-1
 613 1101 l 1,30,31
 590 1143 590 1143 540.5 1173 c 128,-1,32
 491 1203 491 1203 435 1211 c 1,33,-1
 432 1205 l 1,34,-1
 432 694 l 1,35,36
 449 683 449 683 480.5 662.5 c 128,-1,37
 512 642 512 642 530.5 630 c 128,-1,38
 549 618 549 618 578 598 c 128,-1,39
 607 578 607 578 624.5 564 c 128,-1,40
 642 550 642 550 665.5 529 c 128,-1,41
 689 508 689 508 703 491 c 128,-1,42
 717 474 717 474 733 451.5 c 128,-1,43
 749 429 749 429 758 407.5 c 128,-1,44
 767 386 767 386 772.5 360.5 c 128,-1,45
 778 335 778 335 778 308 c 0,46,47
 778 180 778 180 691 90 c 128,-1,48
 604 0 604 0 455 -21 c 1,49,-1
 466 -164 l 1,50,-1
 348 -179 l 1,51,-1
 358 -26 l 1,52,53
 260 -22 260 -22 177 17.5 c 128,-1,54
 94 57 94 57 46 116 c 1,0,-1
383 728 m 1,55,-1
 383 1208 l 1,56,-1
 381 1213 l 1,57,58
 300 1206 300 1206 246.5 1150.5 c 128,-1,59
 193 1095 193 1095 193 1006 c 0,60,61
 193 923 193 923 242.5 857.5 c 128,-1,62
 292 792 292 792 383 728 c 1,55,-1
434 557 m 1,63,-1
 434 54 l 1,64,-1
 443 37 l 1,65,66
 538 42 538 42 603 101 c 128,-1,67
 668 160 668 160 668 262 c 0,68,69
 668 300 668 300 655 335.5 c 128,-1,70
 642 371 642 371 622 398.5 c 128,-1,71
 602 426 602 426 569 456 c 128,-1,72
 536 486 536 486 506.5 507.5 c 128,-1,73
 477 529 477 529 434 557 c 1,63,-1
EndSplineSet
Colour: ffff00
EndChar

StartChar: dotaccent
Encoding: 729 729 95
Width: 286
VWidth: 0
Flags: HMW
LayerCount: 2
Fore
SplineSet
80 1479 m 0,0,1
 80 1576 80 1576 143 1576 c 128,-1,2
 206 1576 206 1576 206 1479 c 0,3,4
 206 1376 206 1376 143 1376 c 128,-1,5
 80 1376 80 1376 80 1479 c 0,0,1
EndSplineSet
Colour: ff00ff
EndChar

StartChar: e
Encoding: 101 101 96
Width: 740
VWidth: 0
Flags: HMW
LayerCount: 2
Fore
SplineSet
162 492 m 1,0,-1
 549 514 l 1,1,2
 559 533 559 533 559 605 c 0,3,4
 559 695 559 695 507 756.5 c 128,-1,5
 455 818 455 818 380 818 c 0,6,7
 281 818 281 818 221.5 732 c 128,-1,8
 162 646 162 646 162 492 c 1,0,-1
57 411 m 0,9,10
 57 625 57 625 166.5 749.5 c 128,-1,11
 276 874 276 874 429 874 c 0,12,13
 543 874 543 874 602 804.5 c 128,-1,14
 661 735 661 735 661 582 c 0,15,16
 661 523 661 523 643 451 c 1,17,-1
 160 444 l 1,18,19
 160 359 160 359 177 289.5 c 128,-1,20
 194 220 194 220 229 166.5 c 128,-1,21
 264 113 264 113 321.5 83 c 128,-1,22
 379 53 379 53 455 53 c 0,23,24
 587 53 587 53 671 137 c 1,25,-1
 688 104 l 1,26,27
 643 44 643 44 568 7.5 c 128,-1,28
 493 -29 493 -29 398 -29 c 0,29,30
 247 -29 247 -29 152 82.5 c 128,-1,31
 57 194 57 194 57 411 c 0,9,10
EndSplineSet
Colour: ffff00
EndChar

StartChar: eacute
Encoding: 233 233 97
Width: 740
VWidth: 0
Flags: HMW
LayerCount: 2
Fore
SplineSet
139 492 m 1,0,-1
 526 514 l 1,1,2
 536 533 536 533 536 605 c 0,3,4
 536 695 536 695 484 756.5 c 128,-1,5
 432 818 432 818 357 818 c 0,6,7
 258 818 258 818 198.5 732 c 128,-1,8
 139 646 139 646 139 492 c 1,0,-1
34 411 m 0,9,10
 34 625 34 625 143.5 749.5 c 128,-1,11
 253 874 253 874 406 874 c 0,12,13
 520 874 520 874 579 804.5 c 128,-1,14
 638 735 638 735 638 582 c 0,15,16
 638 523 638 523 620 451 c 1,17,-1
 137 444 l 1,18,19
 137 359 137 359 154 289.5 c 128,-1,20
 171 220 171 220 206 166.5 c 128,-1,21
 241 113 241 113 298.5 83 c 128,-1,22
 356 53 356 53 432 53 c 0,23,24
 564 53 564 53 648 137 c 1,25,-1
 665 104 l 1,26,27
 620 44 620 44 545 7.5 c 128,-1,28
 470 -29 470 -29 375 -29 c 0,29,30
 224 -29 224 -29 129 82.5 c 128,-1,31
 34 194 34 194 34 411 c 0,9,10
314 998 m 1,32,-1
 446 1335 l 1,33,-1
 542 1296 l 1,34,-1
 359 972 l 1,35,-1
 314 998 l 1,32,-1
EndSplineSet
Colour: ffff00
EndChar

StartChar: ecircumflex
Encoding: 234 234 98
Width: 740
VWidth: 0
Flags: HMW
LayerCount: 2
Fore
SplineSet
139 492 m 1,0,-1
 526 514 l 1,1,2
 536 533 536 533 536 605 c 0,3,4
 536 695 536 695 484 756.5 c 128,-1,5
 432 818 432 818 357 818 c 0,6,7
 258 818 258 818 198.5 732 c 128,-1,8
 139 646 139 646 139 492 c 1,0,-1
34 411 m 0,9,10
 34 625 34 625 143.5 749.5 c 128,-1,11
 253 874 253 874 406 874 c 0,12,13
 520 874 520 874 579 804.5 c 128,-1,14
 638 735 638 735 638 582 c 0,15,16
 638 523 638 523 620 451 c 1,17,-1
 137 444 l 1,18,19
 137 359 137 359 154 289.5 c 128,-1,20
 171 220 171 220 206 166.5 c 128,-1,21
 241 113 241 113 298.5 83 c 128,-1,22
 356 53 356 53 432 53 c 0,23,24
 564 53 564 53 648 137 c 1,25,-1
 665 104 l 1,26,27
 620 44 620 44 545 7.5 c 128,-1,28
 470 -29 470 -29 375 -29 c 0,29,30
 224 -29 224 -29 129 82.5 c 128,-1,31
 34 194 34 194 34 411 c 0,9,10
170 1025 m 1,32,-1
 337 1206 l 1,33,-1
 391 1219 l 1,34,-1
 570 1033 l 1,35,-1
 538 996 l 1,36,-1
 357 1131 l 1,37,-1
 348 1131 l 1,38,-1
 191 995 l 1,39,-1
 170 1025 l 1,32,-1
EndSplineSet
Colour: ffff00
EndChar

StartChar: edieresis
Encoding: 235 235 99
Width: 740
VWidth: 0
Flags: HMW
LayerCount: 2
Fore
SplineSet
139 492 m 1,0,-1
 526 514 l 1,1,2
 536 533 536 533 536 605 c 0,3,4
 536 695 536 695 484 756.5 c 128,-1,5
 432 818 432 818 357 818 c 0,6,7
 258 818 258 818 198.5 732 c 128,-1,8
 139 646 139 646 139 492 c 1,0,-1
34 411 m 0,9,10
 34 625 34 625 143.5 749.5 c 128,-1,11
 253 874 253 874 406 874 c 0,12,13
 520 874 520 874 579 804.5 c 128,-1,14
 638 735 638 735 638 582 c 0,15,16
 638 523 638 523 620 451 c 1,17,-1
 137 444 l 1,18,19
 137 359 137 359 154 289.5 c 128,-1,20
 171 220 171 220 206 166.5 c 128,-1,21
 241 113 241 113 298.5 83 c 128,-1,22
 356 53 356 53 432 53 c 0,23,24
 564 53 564 53 648 137 c 1,25,-1
 665 104 l 1,26,27
 620 44 620 44 545 7.5 c 128,-1,28
 470 -29 470 -29 375 -29 c 0,29,30
 224 -29 224 -29 129 82.5 c 128,-1,31
 34 194 34 194 34 411 c 0,9,10
455 1085 m 0,32,33
 455 1163 455 1163 509 1163 c 0,34,35
 567 1163 567 1163 567 1085 c 0,36,37
 567 1004 567 1004 510 1004 c 0,38,39
 455 1004 455 1004 455 1085 c 0,32,33
186 1085 m 0,40,41
 186 1163 186 1163 241 1163 c 0,42,43
 299 1163 299 1163 299 1085 c 0,44,45
 299 1044 299 1044 286.5 1024 c 128,-1,46
 274 1004 274 1004 243 1004 c 0,47,48
 186 1004 186 1004 186 1085 c 0,40,41
EndSplineSet
Colour: ffff00
EndChar

StartChar: egrave
Encoding: 232 232 100
Width: 740
VWidth: 0
Flags: HMW
LayerCount: 2
Fore
SplineSet
139 492 m 1,0,-1
 526 514 l 1,1,2
 536 533 536 533 536 605 c 0,3,4
 536 695 536 695 484 756.5 c 128,-1,5
 432 818 432 818 357 818 c 0,6,7
 258 818 258 818 198.5 732 c 128,-1,8
 139 646 139 646 139 492 c 1,0,-1
34 411 m 0,9,10
 34 625 34 625 143.5 749.5 c 128,-1,11
 253 874 253 874 406 874 c 0,12,13
 520 874 520 874 579 804.5 c 128,-1,14
 638 735 638 735 638 582 c 0,15,16
 638 523 638 523 620 451 c 1,17,-1
 137 444 l 1,18,19
 137 359 137 359 154 289.5 c 128,-1,20
 171 220 171 220 206 166.5 c 128,-1,21
 241 113 241 113 298.5 83 c 128,-1,22
 356 53 356 53 432 53 c 0,23,24
 564 53 564 53 648 137 c 1,25,-1
 665 104 l 1,26,27
 620 44 620 44 545 7.5 c 128,-1,28
 470 -29 470 -29 375 -29 c 0,29,30
 224 -29 224 -29 129 82.5 c 128,-1,31
 34 194 34 194 34 411 c 0,9,10
176 1307 m 1,32,-1
 270 1344 l 1,33,-1
 403 1008 l 1,34,-1
 357 981 l 1,35,-1
 176 1307 l 1,32,-1
EndSplineSet
Colour: ffff00
EndChar

StartChar: eight
Encoding: 56 56 101
Width: 777
VWidth: 0
Flags: HMW
LayerCount: 2
Fore
SplineSet
170 955 m 0,0,1
 170 875 170 875 225.5 811.5 c 128,-1,2
 281 748 281 748 447 634 c 1,3,4
 509 680 509 680 552.5 745.5 c 128,-1,5
 596 811 596 811 596 891 c 0,6,7
 596 995 596 995 526.5 1075.5 c 128,-1,8
 457 1156 457 1156 376 1156 c 0,9,10
 286 1156 286 1156 228 1102 c 128,-1,11
 170 1048 170 1048 170 955 c 0,0,1
140 319 m 0,12,13
 140 254 140 254 167 198 c 128,-1,14
 194 142 194 142 234.5 107 c 128,-1,15
 275 72 275 72 321 52.5 c 128,-1,16
 367 33 367 33 408 33 c 0,17,18
 517 33 517 33 579 88 c 128,-1,19
 641 143 641 143 641 230 c 0,20,21
 641 316 641 316 576 385.5 c 128,-1,22
 511 455 511 455 315 580 c 1,23,24
 242 535 242 535 191 465.5 c 128,-1,25
 140 396 140 396 140 319 c 0,12,13
50 281 m 0,26,27
 50 368 50 368 107.5 453 c 128,-1,28
 165 538 165 538 276 605 c 1,29,-1
 276 610 l 1,30,31
 95 735 95 735 95 914 c 0,32,33
 95 1037 95 1037 178.5 1119.5 c 128,-1,34
 262 1202 262 1202 403 1202 c 0,35,36
 539 1202 539 1202 607.5 1124.5 c 128,-1,37
 676 1047 676 1047 676 926 c 0,38,39
 676 738 676 738 490 610 c 1,40,-1
 489 607 l 1,41,42
 614 527 614 527 672 451 c 128,-1,43
 730 375 730 375 730 281 c 0,44,45
 730 148 730 148 620 60.5 c 128,-1,46
 510 -27 510 -27 364 -27 c 0,47,48
 228 -27 228 -27 139 61.5 c 128,-1,49
 50 150 50 150 50 281 c 0,26,27
EndSplineSet
Substitution2: "'onum' Oldstyle Figures lookup 1-1" eight.osf
Colour: ffff00
EndChar

StartChar: eight.osf
Encoding: 65536 -1 102
Width: 776
VWidth: 0
Flags: HMW
LayerCount: 2
Fore
SplineSet
171 955 m 0,0,1
 171 875 171 875 226.5 811.5 c 128,-1,2
 282 748 282 748 447 634 c 1,3,4
 509 680 509 680 553 745.5 c 128,-1,5
 597 811 597 811 597 891 c 0,6,7
 597 994 597 994 527 1075 c 128,-1,8
 457 1156 457 1156 376 1156 c 0,9,10
 287 1156 287 1156 229 1102 c 128,-1,11
 171 1048 171 1048 171 955 c 0,0,1
141 319 m 0,12,13
 141 254 141 254 168 198 c 128,-1,14
 195 142 195 142 235.5 107 c 128,-1,15
 276 72 276 72 322 52.5 c 128,-1,16
 368 33 368 33 409 33 c 0,17,18
 518 33 518 33 580.5 88.5 c 128,-1,19
 643 144 643 144 643 230 c 128,-1,20
 643 316 643 316 578 385.5 c 128,-1,21
 513 455 513 455 316 580 c 1,22,23
 237 531 237 531 189 469.5 c 128,-1,24
 141 408 141 408 141 319 c 0,12,13
50 281 m 0,25,26
 50 450 50 450 277 605 c 1,27,-1
 277 610 l 1,28,29
 96 735 96 735 96 914 c 0,30,31
 96 1037 96 1037 178.5 1119.5 c 128,-1,32
 261 1202 261 1202 402 1202 c 0,33,34
 538 1202 538 1202 606.5 1124.5 c 128,-1,35
 675 1047 675 1047 675 926 c 0,36,37
 675 739 675 739 488 610 c 1,38,-1
 487 607 l 1,39,40
 612 527 612 527 670.5 451 c 128,-1,41
 729 375 729 375 729 281 c 0,42,43
 729 148 729 148 618.5 60.5 c 128,-1,44
 508 -27 508 -27 362 -27 c 0,45,46
 226 -27 226 -27 138 61.5 c 128,-1,47
 50 150 50 150 50 281 c 0,25,26
EndSplineSet
Colour: ff00ff
EndChar

StartChar: emdash
Encoding: 8212 8212 103
Width: 1261
VWidth: 0
Flags: HMW
LayerCount: 2
Fore
SplineSet
66 430 m 1,0,-1
 79 493 l 1,1,-1
 1198 498 l 1,2,-1
 1186 437 l 1,3,-1
 66 430 l 1,0,-1
EndSplineSet
Colour: ffff00
EndChar

StartChar: endash
Encoding: 8211 8211 104
Width: 750
VWidth: 0
Flags: HMW
LayerCount: 2
Fore
SplineSet
66 430 m 1,0,-1
 78 493 l 1,1,-1
 687 498 l 1,2,-1
 678 437 l 1,3,-1
 66 430 l 1,0,-1
EndSplineSet
Colour: ffff00
EndChar

StartChar: equal
Encoding: 61 61 105
Width: 755
VWidth: 0
Flags: HMW
LayerCount: 2
Fore
SplineSet
65 580 m 1,0,-1
 78 645 l 1,1,-1
 691 645 l 1,2,-1
 680 580 l 1,3,-1
 65 580 l 1,0,-1
62 340 m 1,4,-1
 74 405 l 1,5,-1
 689 405 l 1,6,-1
 678 340 l 1,7,-1
 62 340 l 1,4,-1
EndSplineSet
Colour: ffff00
EndChar

StartChar: eth
Encoding: 240 240 106
Width: 844
VWidth: 0
Flags: HMW
LayerCount: 2
Fore
SplineSet
156 498 m 0,0,1
 156 274 156 274 236 151.5 c 128,-1,2
 316 29 316 29 436 29 c 0,3,4
 510 29 510 29 563.5 84 c 128,-1,5
 617 139 617 139 642 227 c 128,-1,6
 667 315 667 315 667 425 c 0,7,8
 667 539 667 539 641 631 c 128,-1,9
 615 723 615 723 572 778.5 c 128,-1,10
 529 834 529 834 478.5 863.5 c 128,-1,11
 428 893 428 893 375 893 c 2,12,-1
 371 893 l 1,13,14
 298 892 298 892 247.5 832 c 128,-1,15
 197 772 197 772 176.5 686.5 c 128,-1,16
 156 601 156 601 156 498 c 0,0,1
55 451 m 0,17,18
 55 677 55 677 143 813 c 128,-1,19
 231 949 231 949 387 949 c 0,20,21
 469 949 469 949 536 897.5 c 128,-1,22
 603 846 603 846 627 782 c 1,23,-1
 634 783 l 1,24,25
 595 941 595 941 479 1099 c 1,26,-1
 230 1048 l 1,27,-1
 242 1099 l 1,28,-1
 448 1141 l 1,29,30
 397 1205 397 1205 296 1302 c 1,31,-1
 362 1302 l 1,32,33
 450 1246 450 1246 527 1157 c 1,34,-1
 689 1192 l 1,35,-1
 680 1141 l 1,36,-1
 562 1117 l 1,37,38
 768 848 768 848 768 465 c 0,39,40
 768 236 768 236 671.5 104.5 c 128,-1,41
 575 -27 575 -27 412 -27 c 0,42,43
 341 -27 341 -27 281.5 -0.5 c 128,-1,44
 222 26 222 26 181 71.5 c 128,-1,45
 140 117 140 117 111 178 c 128,-1,46
 82 239 82 239 68.5 308 c 128,-1,47
 55 377 55 377 55 451 c 0,17,18
EndSplineSet
Colour: ffff00
EndChar

StartChar: exclam
Encoding: 33 33 107
Width: 248
VWidth: 0
Flags: HMW
LayerCount: 2
Fore
SplineSet
68 1253 m 0,0,1
 68 1272 68 1272 88 1283 c 128,-1,2
 108 1294 108 1294 137 1294 c 0,3,4
 190 1294 190 1294 190 1253 c 0,5,6
 190 946 190 946 141 360 c 1,7,-1
 97 369 l 1,8,9
 68 986 68 986 68 1253 c 0,0,1
62 66 m 0,10,11
 62 107 62 107 78 133 c 128,-1,12
 94 159 94 159 119 159 c 0,13,14
 146 159 146 159 162.5 133 c 128,-1,15
 179 107 179 107 179 66 c 0,16,17
 179 -33 179 -33 120 -33 c 0,18,19
 62 -33 62 -33 62 66 c 0,10,11
EndSplineSet
Colour: ffff00
EndChar

StartChar: exclamdown
Encoding: 161 161 108
Width: 249
VWidth: 0
Flags: HMW
LayerCount: 2
Fore
SplineSet
70 809 m 0,0,1
 70 910 70 910 129 910 c 0,2,3
 186 910 186 910 186 809 c 0,4,5
 186 768 186 768 170 742.5 c 128,-1,6
 154 717 154 717 129 717 c 0,7,8
 102 717 102 717 86 742.5 c 128,-1,9
 70 768 70 768 70 809 c 0,0,1
58 -375 m 0,10,11
 58 -71 58 -71 107 515 c 1,12,-1
 113 517 l 1,13,-1
 153 509 l 1,14,-1
 153 507 l 1,15,16
 182 -106 182 -106 182 -374 c 2,17,-1
 182 -375 l 1,18,19
 168 -416 168 -416 112 -416 c 0,20,21
 58 -416 58 -416 58 -375 c 0,10,11
EndSplineSet
Colour: ffff00
EndChar

StartChar: f
Encoding: 102 102 109
Width: 609
VWidth: 0
Flags: HMW
LayerCount: 2
Fore
SplineSet
44 0 m 1,0,-1
 57 30 l 1,1,-1
 207 59 l 1,2,-1
 207 798 l 1,3,-1
 59 798 l 1,4,-1
 71 833 l 1,5,-1
 210 855 l 1,6,7
 219 969 219 969 250 1058 c 128,-1,8
 281 1147 281 1147 325.5 1199 c 128,-1,9
 370 1251 370 1251 421.5 1277.5 c 128,-1,10
 473 1304 473 1304 528 1304 c 0,11,12
 604 1304 604 1304 650.5 1271.5 c 128,-1,13
 697 1239 697 1239 697 1194 c 0,14,15
 697 1140 697 1140 649 1121 c 1,16,17
 576 1241 576 1241 471 1241 c 0,18,19
 406 1241 406 1241 358 1170.5 c 128,-1,20
 310 1100 310 1100 310 982 c 2,21,-1
 310 848 l 1,22,-1
 566 848 l 1,23,-1
 555 798 l 1,24,-1
 310 798 l 1,25,-1
 310 61 l 1,26,-1
 555 39 l 1,27,-1
 548 0 l 1,28,-1
 44 0 l 1,0,-1
EndSplineSet
Colour: ffff00
EndChar

StartChar: five
Encoding: 53 53 110
Width: 796
VWidth: 0
Flags: HMW
LayerCount: 2
Fore
SplineSet
50 103 m 1,0,-1
 81 351 l 1,1,-1
 129 340 l 1,2,-1
 144 154 l 1,3,4
 246 47 246 47 370 47 c 0,5,6
 489 47 489 47 557 123 c 128,-1,7
 625 199 625 199 625 325 c 0,8,9
 625 472 625 472 491 568.5 c 128,-1,10
 357 665 357 665 155 677 c 1,11,-1
 266 1171 l 1,12,-1
 694 1198 l 1,13,-1
 678 1081 l 1,14,-1
 295 1063 l 1,15,-1
 244 779 l 1,16,17
 480 761 480 761 612 652 c 128,-1,18
 744 543 744 543 744 383 c 0,19,20
 744 222 744 222 625.5 107.5 c 128,-1,21
 507 -7 507 -7 327 -7 c 0,22,23
 172 -7 172 -7 50 103 c 1,0,-1
EndSplineSet
Substitution2: "'onum' Oldstyle Figures lookup 1-1" five.osf
Colour: ffff00
EndChar

StartChar: five.osf
Encoding: 65537 -1 111
Width: 823
VWidth: 0
Flags: HMW
LayerCount: 2
Fore
SplineSet
42 -136 m 0,0,1
 42 -98 42 -98 70.5 -57.5 c 128,-1,2
 99 -17 99 -17 133 -15 c 1,3,4
 161 -125 161 -125 217 -180 c 128,-1,5
 273 -235 273 -235 368 -235 c 0,6,7
 419 -235 419 -235 468 -217.5 c 128,-1,8
 517 -200 517 -200 560 -165.5 c 128,-1,9
 603 -131 603 -131 629.5 -71.5 c 128,-1,10
 656 -12 656 -12 656 64 c 0,11,12
 656 211 656 211 535 298.5 c 128,-1,13
 414 386 414 386 205 401 c 1,14,-1
 291 912 l 1,15,-1
 737 948 l 1,16,-1
 720 831 l 1,17,-1
 346 804 l 1,18,-1
 291 503 l 1,19,20
 511 484 511 484 642 385 c 128,-1,21
 773 286 773 286 773 120 c 0,22,23
 773 -63 773 -63 649 -180 c 128,-1,24
 525 -297 525 -297 328 -297 c 0,25,26
 260 -297 260 -297 197 -281 c 128,-1,27
 134 -265 134 -265 88 -227 c 128,-1,28
 42 -189 42 -189 42 -136 c 0,0,1
EndSplineSet
Colour: ff00ff
EndChar

StartChar: four
Encoding: 52 52 112
Width: 963
VWidth: 0
Flags: HMW
LayerCount: 2
Fore
SplineSet
155 444 m 1,0,-1
 551 444 l 1,1,-1
 551 984 l 1,2,-1
 155 444 l 1,0,-1
45 398 m 1,3,-1
 635 1187 l 1,4,-1
 669 1175 l 1,5,6
 660 1023 660 1023 660 683 c 2,7,-1
 660 444 l 1,8,-1
 916 444 l 1,9,-1
 899 369 l 1,10,-1
 660 369 l 1,11,-1
 660 66 l 1,12,-1
 862 47 l 1,13,-1
 852 1 l 1,14,-1
 289 1 l 1,15,-1
 297 43 l 1,16,-1
 554 73 l 1,17,-1
 554 372 l 1,18,-1
 59 372 l 1,19,-1
 45 398 l 1,3,-1
EndSplineSet
Substitution2: "'onum' Oldstyle Figures lookup 1-1" four.osf
Colour: ffff00
EndChar

StartChar: four.osf
Encoding: 65538 -1 113
Width: 954
VWidth: 0
Flags: HMW
LayerCount: 2
Fore
SplineSet
158 200 m 1,0,-1
 548 200 l 1,1,-1
 548 751 l 1,2,-1
 158 200 l 1,0,-1
42 154 m 1,3,-1
 634 969 l 1,4,-1
 668 958 l 1,5,6
 657 773 657 773 657 476 c 2,7,-1
 657 200 l 1,8,-1
 912 200 l 1,9,-1
 897 125 l 1,10,-1
 657 125 l 1,11,-1
 657 -271 l 1,12,-1
 552 -297 l 1,13,-1
 552 127 l 1,14,-1
 57 127 l 1,15,-1
 42 154 l 1,3,-1
EndSplineSet
Colour: ff00ff
EndChar

StartChar: g
Encoding: 103 103 114
Width: 884
VWidth: 0
Flags: HMW
LayerCount: 2
Fore
SplineSet
219 589 m 0,0,1
 219 494 219 494 275.5 415.5 c 128,-1,2
 332 337 332 337 421 337 c 0,3,4
 491 337 491 337 540.5 393.5 c 128,-1,5
 590 450 590 450 590 551 c 0,6,7
 590 667 590 667 537.5 747 c 128,-1,8
 485 827 485 827 406 827 c 0,9,10
 311 827 311 827 265 761 c 128,-1,11
 219 695 219 695 219 589 c 0,0,1
140 -123 m 0,12,13
 140 -319 140 -319 432 -319 c 0,14,15
 503 -319 503 -319 567 -298.5 c 128,-1,16
 631 -278 631 -278 674.5 -235 c 128,-1,17
 718 -192 718 -192 718 -135 c 0,18,19
 718 -56 718 -56 668 -12.5 c 128,-1,20
 618 31 618 31 497 31 c 2,21,-1
 275 31 l 1,22,23
 270 29 270 29 260.5 25.5 c 128,-1,24
 251 22 251 22 228 8.5 c 128,-1,25
 205 -5 205 -5 187 -21 c 128,-1,26
 169 -37 169 -37 154.5 -64.5 c 128,-1,27
 140 -92 140 -92 140 -123 c 0,12,13
44 -169 m 0,28,29
 44 -129 44 -129 60.5 -95 c 128,-1,30
 77 -61 77 -61 108.5 -35 c 128,-1,31
 140 -9 140 -9 164.5 6 c 128,-1,32
 189 21 189 21 224 39 c 1,33,-1
 224 44 l 1,34,35
 184 61 184 61 156 91 c 128,-1,36
 128 121 128 121 128 160 c 0,37,38
 128 192 128 192 167.5 234.5 c 128,-1,39
 207 277 207 277 265 317 c 1,40,41
 215 342 215 342 171 408 c 128,-1,42
 127 474 127 474 127 565 c 0,43,44
 127 691 127 691 214.5 782 c 128,-1,45
 302 873 302 873 430 873 c 0,46,47
 510 873 510 873 601 809 c 1,48,-1
 826 826 l 1,49,-1
 836 813 l 1,50,-1
 805 734 l 1,51,-1
 797 732 l 1,52,-1
 638 772 l 1,53,-1
 633 768 l 1,54,55
 648 746 648 746 666.5 685.5 c 128,-1,56
 685 625 685 625 685 576 c 0,57,58
 685 458 685 458 594.5 369.5 c 128,-1,59
 504 281 504 281 394 281 c 0,60,61
 336 281 336 281 298 300 c 1,62,63
 244 253 244 253 231 233.5 c 128,-1,64
 218 214 218 214 218 195 c 0,65,66
 218 114 218 114 374 114 c 2,67,-1
 514 114 l 1,68,69
 660 113 660 113 732.5 65.5 c 128,-1,70
 805 18 805 18 805 -84 c 0,71,72
 805 -206 805 -206 677.5 -296.5 c 128,-1,73
 550 -387 550 -387 374 -387 c 0,74,75
 221 -387 221 -387 132.5 -326 c 128,-1,76
 44 -265 44 -265 44 -169 c 0,28,29
EndSplineSet
Colour: ffff00
EndChar

StartChar: germandbls
Encoding: 223 223 115
Width: 1063
VWidth: 0
Flags: HMW
LayerCount: 2
Fore
SplineSet
46 0 m 1,0,-1
 59 30 l 1,1,-1
 209 59 l 1,2,-1
 209 824 l 1,3,-1
 61 824 l 1,4,-1
 73 858 l 1,5,-1
 212 880 l 1,6,7
 222 1070 222 1070 305 1186 c 128,-1,8
 388 1302 388 1302 543 1302 c 0,9,10
 653 1302 653 1302 733.5 1235.5 c 128,-1,11
 814 1169 814 1169 814 1055 c 0,12,13
 814 1011 814 1011 791.5 965 c 128,-1,14
 769 919 769 919 737 882 c 128,-1,15
 705 845 705 845 673 810 c 128,-1,16
 641 775 641 775 618.5 741 c 128,-1,17
 596 707 596 707 596 680 c 0,18,19
 596 637 596 637 619 599 c 128,-1,20
 642 561 642 561 678.5 531.5 c 128,-1,21
 715 502 715 502 759.5 473.5 c 128,-1,22
 804 445 804 445 848 416.5 c 128,-1,23
 892 388 892 388 928.5 357.5 c 128,-1,24
 965 327 965 327 988 288 c 128,-1,25
 1011 249 1011 249 1011 205 c 0,26,27
 1011 97 1011 97 927.5 30.5 c 128,-1,28
 844 -36 844 -36 724 -36 c 0,29,30
 615 -36 615 -36 536.5 22.5 c 128,-1,31
 458 81 458 81 458 174 c 0,32,33
 458 243 458 243 538 263 c 1,34,35
 558 129 558 129 606 72 c 128,-1,36
 654 15 654 15 754 15 c 0,37,38
 826 15 826 15 874.5 58.5 c 128,-1,39
 923 102 923 102 923 154 c 0,40,41
 923 194 923 194 893 232 c 128,-1,42
 863 270 863 270 818 299 c 128,-1,43
 773 328 773 328 720 363.5 c 128,-1,44
 667 399 667 399 622 433.5 c 128,-1,45
 577 468 577 468 547 518 c 128,-1,46
 517 568 517 568 517 625 c 0,47,48
 517 677 517 677 537.5 723 c 128,-1,49
 558 769 558 769 587.5 804 c 128,-1,50
 617 839 617 839 646.5 872 c 128,-1,51
 676 905 676 905 696.5 945 c 128,-1,52
 717 985 717 985 717 1027 c 0,53,54
 717 1113 717 1113 647.5 1177 c 128,-1,55
 578 1241 578 1241 494 1241 c 0,56,57
 406 1241 406 1241 359 1167 c 128,-1,58
 312 1093 312 1093 312 982 c 2,59,-1
 312 0 l 1,60,-1
 46 0 l 1,0,-1
EndSplineSet
Colour: ffff00
EndChar

StartChar: grave
Encoding: 96 96 116
Width: 384
VWidth: 0
Flags: HMW
LayerCount: 2
Fore
SplineSet
78 1661 m 1,0,-1
 172 1698 l 1,1,-1
 305 1362 l 1,2,-1
 259 1335 l 1,3,-1
 78 1661 l 1,0,-1
EndSplineSet
Colour: ffff00
EndChar

StartChar: greater
Encoding: 62 62 117
Width: 747
VWidth: 0
Flags: HMW
LayerCount: 2
Fore
SplineSet
44 -37 m 1,0,-1
 564 444 l 1,1,-1
 63 926 l 1,2,-1
 79 973 l 1,3,-1
 698 456 l 1,4,-1
 700 426 l 1,5,-1
 66 -82 l 1,6,-1
 44 -37 l 1,0,-1
EndSplineSet
Colour: ffff00
EndChar

StartChar: guillemotleft
Encoding: 171 171 118
Width: 644
VWidth: 0
Flags: HMW
LayerCount: 2
Fore
SplineSet
268 469 m 1,0,-1
 536 822 l 1,1,-1
 564 786 l 1,2,-1
 376 462 l 1,3,-1
 563 116 l 1,4,-1
 531 78 l 1,5,-1
 271 449 l 1,6,-1
 268 469 l 1,0,-1
21 469 m 1,7,-1
 289 822 l 1,8,-1
 317 786 l 1,9,-1
 129 462 l 1,10,-1
 316 116 l 1,11,-1
 284 78 l 1,12,-1
 24 449 l 1,13,-1
 21 469 l 1,7,-1
EndSplineSet
Colour: ffff00
EndChar

StartChar: guillemotright
Encoding: 187 187 119
Width: 645
VWidth: 0
Flags: HMW
LayerCount: 2
Fore
SplineSet
403 469 m 1,0,-1
 400 449 l 1,1,-1
 140 78 l 1,2,-1
 108 116 l 1,3,-1
 295 462 l 1,4,-1
 107 786 l 1,5,-1
 135 822 l 1,6,-1
 403 469 l 1,0,-1
650 469 m 1,7,-1
 647 449 l 1,8,-1
 387 78 l 1,9,-1
 355 116 l 1,10,-1
 542 462 l 1,11,-1
 354 786 l 1,12,-1
 382 822 l 1,13,-1
 650 469 l 1,7,-1
EndSplineSet
Colour: ffff00
EndChar

StartChar: guilsinglleft
Encoding: 8249 8249 120
Width: 397
VWidth: 0
Flags: HMW
LayerCount: 2
Fore
SplineSet
49 469 m 1,0,-1
 317 822 l 1,1,-1
 345 786 l 1,2,-1
 157 462 l 1,3,-1
 344 116 l 1,4,-1
 312 78 l 1,5,-1
 52 449 l 1,6,-1
 49 469 l 1,0,-1
EndSplineSet
Colour: ffff00
EndChar

StartChar: guilsinglright
Encoding: 8250 8250 121
Width: 398
VWidth: 0
Flags: HMW
LayerCount: 2
Fore
SplineSet
377 469 m 1,0,-1
 374 449 l 1,1,-1
 114 78 l 1,2,-1
 82 116 l 1,3,-1
 269 462 l 1,4,-1
 81 786 l 1,5,-1
 109 822 l 1,6,-1
 377 469 l 1,0,-1
EndSplineSet
Colour: ffff00
EndChar

StartChar: h
Encoding: 104 104 122
Width: 1028
VWidth: 0
Flags: HMW
LayerCount: 2
Fore
SplineSet
45 0 m 1,0,-1
 56 34 l 1,1,-1
 210 59 l 1,2,-1
 210 1190 l 1,3,-1
 57 1221 l 1,4,-1
 63 1252 l 1,5,-1
 301 1272 l 1,6,-1
 308 1262 l 1,7,-1
 308 826 l 1,8,-1
 298 721 l 1,9,-1
 303 721 l 1,10,11
 365 788 365 788 449.5 834 c 128,-1,12
 534 880 534 880 617 880 c 0,13,14
 724 880 724 880 782 805.5 c 128,-1,15
 840 731 840 731 840 576 c 2,16,-1
 840 57 l 1,17,-1
 980 37 l 1,18,-1
 974 0 l 1,19,-1
 600 0 l 1,20,-1
 606 33 l 1,21,-1
 746 57 l 1,22,-1
 749 549 l 1,23,-1
 749 555 l 2,24,25
 749 683 749 683 702 742.5 c 128,-1,26
 655 802 655 802 573 802 c 0,27,28
 488 802 488 802 427 767 c 128,-1,29
 366 732 366 732 308 664 c 1,30,-1
 308 59 l 1,31,-1
 450 36 l 1,32,-1
 443 0 l 1,33,-1
 45 0 l 1,0,-1
EndSplineSet
Colour: ffff00
EndChar

StartChar: hyphen
Encoding: 45 45 123
Width: 544
VWidth: 0
Flags: HMW
LayerCount: 2
Fore
SplineSet
66 419 m 1,0,-1
 76 480 l 1,1,-1
 482 497 l 1,2,-1
 473 437 l 1,3,-1
 66 419 l 1,0,-1
EndSplineSet
Colour: ffff00
EndChar

StartChar: i
Encoding: 105 105 124
Width: 511
VWidth: 0
Flags: HMW
LayerCount: 2
Fore
SplineSet
190 1193 m 0,0,1
 190 1290 190 1290 252 1290 c 0,2,3
 316 1290 316 1290 316 1193 c 0,4,5
 316 1091 316 1091 253 1091 c 128,-1,6
 190 1091 190 1091 190 1193 c 0,0,1
46 0 m 1,7,-1
 59 31 l 1,8,-1
 209 59 l 1,9,-1
 209 788 l 1,10,-1
 56 816 l 1,11,-1
 59 843 l 1,12,-1
 295 863 l 1,13,-1
 303 854 l 1,14,-1
 303 59 l 1,15,-1
 463 33 l 1,16,-1
 452 0 l 1,17,-1
 46 0 l 1,7,-1
EndSplineSet
Colour: ffff00
EndChar

StartChar: iacute
Encoding: 237 237 125
Width: 511
VWidth: 0
Flags: HMW
LayerCount: 2
Fore
SplineSet
45 0 m 1,0,-1
 58 31 l 1,1,-1
 208 59 l 1,2,-1
 208 812 l 1,3,-1
 55 842 l 1,4,-1
 58 867 l 1,5,-1
 294 888 l 1,6,-1
 302 880 l 1,7,-1
 302 59 l 1,8,-1
 462 33 l 1,9,-1
 451 0 l 1,10,-1
 45 0 l 1,0,-1
214 1032 m 1,11,-1
 346 1369 l 1,12,-1
 442 1330 l 1,13,-1
 259 1006 l 1,14,-1
 214 1032 l 1,11,-1
EndSplineSet
Colour: ffff00
EndChar

StartChar: icircumflex
Encoding: 238 238 126
Width: 511
VWidth: 0
Flags: HMW
LayerCount: 2
Fore
SplineSet
50 0 m 1,0,-1
 63 31 l 1,1,-1
 213 59 l 1,2,-1
 213 812 l 1,3,-1
 60 842 l 1,4,-1
 63 867 l 1,5,-1
 299 888 l 1,6,-1
 307 880 l 1,7,-1
 307 59 l 1,8,-1
 467 33 l 1,9,-1
 456 0 l 1,10,-1
 50 0 l 1,0,-1
35 1050 m 1,11,-1
 202 1231 l 1,12,-1
 256 1244 l 1,13,-1
 435 1058 l 1,14,-1
 403 1021 l 1,15,-1
 222 1156 l 1,16,-1
 213 1156 l 1,17,-1
 56 1020 l 1,18,-1
 35 1050 l 1,11,-1
EndSplineSet
Colour: ffff00
EndChar

StartChar: idieresis
Encoding: 239 239 127
Width: 511
VWidth: 0
Flags: HMW
LayerCount: 2
Fore
SplineSet
53 0 m 1,0,-1
 66 31 l 1,1,-1
 216 59 l 1,2,-1
 216 812 l 1,3,-1
 63 842 l 1,4,-1
 66 867 l 1,5,-1
 302 888 l 1,6,-1
 310 880 l 1,7,-1
 310 59 l 1,8,-1
 470 33 l 1,9,-1
 459 0 l 1,10,-1
 53 0 l 1,0,-1
333 1111 m 0,11,12
 333 1189 333 1189 387 1189 c 0,13,14
 445 1189 445 1189 445 1111 c 0,15,16
 445 1030 445 1030 388 1030 c 0,17,18
 333 1030 333 1030 333 1111 c 0,11,12
64 1111 m 0,19,20
 64 1189 64 1189 119 1189 c 0,21,22
 177 1189 177 1189 177 1111 c 0,23,24
 177 1070 177 1070 164.5 1050 c 128,-1,25
 152 1030 152 1030 121 1030 c 0,26,27
 64 1030 64 1030 64 1111 c 0,19,20
EndSplineSet
Colour: ffff00
EndChar

StartChar: igrave
Encoding: 236 236 128
Width: 511
VWidth: 0
Flags: HMW
LayerCount: 2
Fore
SplineSet
56 0 m 1,0,-1
 69 31 l 1,1,-1
 219 59 l 1,2,-1
 219 812 l 1,3,-1
 66 842 l 1,4,-1
 69 867 l 1,5,-1
 305 888 l 1,6,-1
 313 880 l 1,7,-1
 313 59 l 1,8,-1
 473 33 l 1,9,-1
 462 0 l 1,10,-1
 56 0 l 1,0,-1
53 1323 m 1,11,-1
 147 1360 l 1,12,-1
 280 1024 l 1,13,-1
 234 997 l 1,14,-1
 53 1323 l 1,11,-1
EndSplineSet
Colour: ffff00
EndChar

StartChar: j
Encoding: 106 106 129
Width: 424
VWidth: 0
Flags: HMW
LayerCount: 2
Fore
SplineSet
226 1193 m 0,0,1
 226 1290 226 1290 289 1290 c 0,2,3
 356 1290 356 1290 356 1193 c 0,4,5
 356 1091 356 1091 290 1091 c 0,6,7
 226 1091 226 1091 226 1193 c 0,0,1
44 -335 m 1,8,9
 104 -289 104 -289 145.5 -233.5 c 128,-1,10
 187 -178 187 -178 217 -79 c 128,-1,11
 247 20 247 20 247 149 c 2,12,-1
 247 789 l 1,13,-1
 95 816 l 1,14,-1
 99 843 l 1,15,-1
 335 863 l 1,16,-1
 342 854 l 1,17,-1
 342 151 l 2,18,19
 342 -196 342 -196 120 -353 c 1,20,-1
 77 -384 l 1,21,-1
 44 -335 l 1,8,9
EndSplineSet
Colour: ffff00
EndChar

StartChar: k
Encoding: 107 107 130
Width: 983
VWidth: 0
Flags: HMW
LayerCount: 2
Fore
SplineSet
337 425 m 1,0,-1
 337 442 l 1,1,-1
 649 785 l 1,2,-1
 515 818 l 1,3,-1
 520 852 l 1,4,-1
 881 852 l 1,5,-1
 874 818 l 1,6,-1
 724 786 l 1,7,-1
 431 459 l 1,8,-1
 551 323 l 2,9,10
 574 296 574 296 617 246.5 c 128,-1,11
 660 197 660 197 674 182 c 128,-1,12
 688 167 688 167 717 136.5 c 128,-1,13
 746 106 746 106 759.5 97 c 128,-1,14
 773 88 773 88 797 73.5 c 128,-1,15
 821 59 821 59 842 54 c 128,-1,16
 863 49 863 49 890 46 c 2,17,-1
 929 42 l 1,18,-1
 922 0 l 1,19,20
 872 -20 872 -20 818 -20 c 0,21,22
 744 -20 744 -20 688.5 24 c 128,-1,23
 633 68 633 68 500 228 c 2,24,-1
 337 425 l 1,0,-1
46 0 m 1,25,-1
 55 31 l 1,26,-1
 209 59 l 1,27,-1
 209 1194 l 1,28,-1
 56 1223 l 1,29,-1
 56 1251 l 1,30,-1
 294 1271 l 1,31,-1
 301 1262 l 1,32,-1
 301 59 l 1,33,-1
 460 33 l 1,34,-1
 454 0 l 1,35,-1
 46 0 l 1,25,-1
EndSplineSet
Colour: ffff00
EndChar

StartChar: l
Encoding: 108 108 131
Width: 509
VWidth: 0
Flags: HMW
LayerCount: 2
Fore
SplineSet
45 0 m 1,0,-1
 55 31 l 1,1,-1
 208 59 l 1,2,-1
 208 1194 l 1,3,-1
 55 1223 l 1,4,-1
 55 1251 l 1,5,-1
 291 1271 l 1,6,-1
 300 1262 l 1,7,-1
 300 59 l 1,8,-1
 462 33 l 1,9,-1
 451 0 l 1,10,-1
 45 0 l 1,0,-1
EndSplineSet
Colour: ffff00
EndChar

StartChar: less
Encoding: 60 60 132
Width: 745
VWidth: 0
Flags: HMW
LayerCount: 2
Fore
SplineSet
714 -37 m 1,0,-1
 692 -82 l 1,1,-1
 58 426 l 1,2,-1
 60 456 l 1,3,-1
 679 973 l 1,4,-1
 695 926 l 1,5,-1
 194 444 l 1,6,-1
 714 -37 l 1,0,-1
EndSplineSet
Colour: ffff00
EndChar

StartChar: logicalnot
Encoding: 172 172 133
Width: 878
VWidth: 0
Flags: HMW
LayerCount: 2
Fore
SplineSet
54 609 m 1,0,-1
 66 664 l 1,1,-1
 812 664 l 1,2,-1
 812 351 l 1,3,-1
 740 333 l 1,4,-1
 740 609 l 1,5,-1
 54 609 l 1,0,-1
EndSplineSet
Colour: ffff00
EndChar

StartChar: m
Encoding: 109 109 134
Width: 1571
VWidth: 0
Flags: HMW
LayerCount: 2
Fore
SplineSet
50 0 m 1,0,-1
 57 33 l 1,1,-1
 211 57 l 1,2,-1
 211 788 l 1,3,-1
 57 816 l 1,4,-1
 59 843 l 1,5,-1
 293 863 l 1,6,-1
 299 855 l 1,7,-1
 295 716 l 1,8,-1
 302 716 l 1,9,10
 356 782 356 782 441.5 831 c 128,-1,11
 527 880 527 880 616 880 c 0,12,13
 698 880 698 880 752.5 836.5 c 128,-1,14
 807 793 807 793 821 716 c 1,15,-1
 831 716 l 1,16,17
 884 782 884 782 966.5 831 c 128,-1,18
 1049 880 1049 880 1137 880 c 0,19,20
 1267 880 1267 880 1320 803.5 c 128,-1,21
 1373 727 1373 727 1373 586 c 2,22,-1
 1373 59 l 1,23,-1
 1518 40 l 1,24,-1
 1507 3 l 1,25,-1
 1137 3 l 1,26,-1
 1142 33 l 1,27,-1
 1278 57 l 1,28,-1
 1278 559 l 2,29,30
 1278 800 1278 800 1093 800 c 0,31,32
 970 800 970 800 836 660 c 1,33,-1
 836 57 l 1,34,-1
 967 37 l 1,35,-1
 959 0 l 1,36,-1
 607 0 l 1,37,-1
 613 33 l 1,38,-1
 748 57 l 1,39,-1
 748 559 l 2,40,41
 748 671 748 671 704 737 c 128,-1,42
 660 803 660 803 573 803 c 0,43,44
 496 803 496 803 423 761.5 c 128,-1,45
 350 720 350 720 304 659 c 1,46,-1
 304 57 l 1,47,-1
 446 37 l 1,48,-1
 438 0 l 1,49,-1
 50 0 l 1,0,-1
EndSplineSet
Colour: ffff00
EndChar

StartChar: macron
Encoding: 175 175 135
Width: 609
VWidth: 0
Flags: HMW
LayerCount: 2
Fore
SplineSet
80 1380 m 1,0,-1
 89 1432 l 1,1,-1
 529 1432 l 1,2,-1
 521 1380 l 1,3,-1
 80 1380 l 1,0,-1
EndSplineSet
Colour: ffff00
EndChar

StartChar: multiply
Encoding: 215 215 136
Width: 562
VWidth: 0
Flags: HMW
LayerCount: 2
Fore
SplineSet
56 294 m 1,0,-1
 240 462 l 1,1,-1
 58 630 l 1,2,-1
 116 678 l 1,3,-1
 280 496 l 1,4,-1
 452 680 l 1,5,-1
 498 622 l 1,6,-1
 318 459 l 1,7,-1
 506 287 l 1,8,-1
 448 242 l 1,9,-1
 277 425 l 1,10,-1
 102 236 l 1,11,-1
 56 294 l 1,0,-1
EndSplineSet
Colour: ffff00
EndChar

StartChar: n
Encoding: 110 110 137
Width: 1033
VWidth: 0
Flags: HMW
LayerCount: 2
Fore
SplineSet
50 0 m 1,0,-1
 57 31 l 1,1,-1
 211 57 l 1,2,-1
 211 788 l 1,3,-1
 57 815 l 1,4,-1
 59 843 l 1,5,-1
 293 863 l 1,6,-1
 299 854 l 1,7,-1
 295 717 l 1,8,-1
 302 717 l 1,9,10
 345 773 345 773 436.5 826.5 c 128,-1,11
 528 880 528 880 623 880 c 0,12,13
 720 880 720 880 782 808.5 c 128,-1,14
 844 737 844 737 844 584 c 2,15,-1
 844 57 l 1,16,-1
 981 37 l 1,17,-1
 978 0 l 1,18,-1
 601 0 l 1,19,-1
 607 31 l 1,20,-1
 749 57 l 1,21,-1
 749 559 l 2,22,23
 749 683 749 683 701.5 742 c 128,-1,24
 654 801 654 801 583 801 c 0,25,26
 498 801 498 801 442.5 772.5 c 128,-1,27
 387 744 387 744 304 665 c 1,28,-1
 304 57 l 1,29,-1
 446 36 l 1,30,-1
 440 0 l 1,31,-1
 50 0 l 1,0,-1
EndSplineSet
Colour: ffff00
EndChar

StartChar: nine
Encoding: 57 57 139
Width: 818
VWidth: 0
Flags: HMW
LayerCount: 2
Fore
SplineSet
165 860 m 0,0,1
 165 727 165 727 236 641 c 128,-1,2
 307 555 307 555 425 555 c 0,3,4
 499 555 499 555 555.5 581.5 c 128,-1,5
 612 608 612 608 635 640 c 1,6,7
 645 688 645 688 645 779 c 0,8,9
 645 953 645 953 570 1055 c 128,-1,10
 495 1157 495 1157 396 1157 c 0,11,12
 282 1157 282 1157 223.5 1080 c 128,-1,13
 165 1003 165 1003 165 860 c 0,0,1
49 833 m 0,14,15
 49 990 49 990 154 1098.5 c 128,-1,16
 259 1207 259 1207 420 1207 c 0,17,18
 512 1207 512 1207 580.5 1170 c 128,-1,19
 649 1133 649 1133 687.5 1068 c 128,-1,20
 726 1003 726 1003 744.5 925.5 c 128,-1,21
 763 848 763 848 763 756 c 0,22,23
 763 656 763 656 735.5 553.5 c 128,-1,24
 708 451 708 451 654.5 356.5 c 128,-1,25
 601 262 601 262 528 184 c 128,-1,26
 455 106 455 106 357.5 50 c 128,-1,27
 260 -6 260 -6 151 -27 c 1,28,-1
 137 15 l 1,29,30
 230 43 230 43 308 92 c 128,-1,31
 386 141 386 141 439 197 c 128,-1,32
 492 253 492 253 532.5 321 c 128,-1,33
 573 389 573 389 595.5 451 c 128,-1,34
 618 513 618 513 631 577 c 1,35,-1
 624 577 l 1,36,37
 585 547 585 547 555.5 529.5 c 128,-1,38
 526 512 526 512 470.5 495 c 128,-1,39
 415 478 415 478 352 478 c 0,40,41
 258 478 258 478 187.5 529.5 c 128,-1,42
 117 581 117 581 83 660.5 c 128,-1,43
 49 740 49 740 49 833 c 0,14,15
EndSplineSet
Substitution2: "'onum' Oldstyle Figures lookup 1-1" nine.osf
Colour: ffff00
EndChar

StartChar: nine.osf
Encoding: 65539 -1 140
Width: 780
VWidth: 0
Flags: HMW
LayerCount: 2
Fore
SplineSet
170 597 m 0,0,1
 170 462 170 462 231.5 377 c 128,-1,2
 293 292 293 292 403 292 c 0,3,4
 473 292 473 292 523.5 316 c 128,-1,5
 574 340 574 340 598 372 c 1,6,7
 605 408 605 408 605 516 c 0,8,9
 605 693 605 693 538.5 794 c 128,-1,10
 472 895 472 895 375 895 c 0,11,12
 273 895 273 895 221.5 817.5 c 128,-1,13
 170 740 170 740 170 597 c 0,0,1
52 571 m 0,14,15
 52 728 52 728 149.5 836.5 c 128,-1,16
 247 945 247 945 399 945 c 0,17,18
 473 945 473 945 530.5 921 c 128,-1,19
 588 897 588 897 624 856.5 c 128,-1,20
 660 816 660 816 683.5 757.5 c 128,-1,21
 707 699 707 699 716 637 c 128,-1,22
 725 575 725 575 725 501 c 0,23,24
 725 253 725 253 559 40.5 c 128,-1,25
 393 -172 393 -172 139 -261 c 1,26,-1
 117 -217 l 1,27,28
 493 -35 493 -35 595 306 c 1,29,-1
 589 306 l 1,30,31
 551 277 551 277 524 260.5 c 128,-1,32
 497 244 497 244 445 229.5 c 128,-1,33
 393 215 393 215 329 215 c 0,34,35
 243 215 243 215 178.5 266.5 c 128,-1,36
 114 318 114 318 83 398 c 128,-1,37
 52 478 52 478 52 571 c 0,14,15
EndSplineSet
Colour: ff00ff
EndChar

StartChar: ntilde
Encoding: 241 241 141
Width: 1033
VWidth: 0
Flags: HMW
LayerCount: 2
Fore
SplineSet
17 0 m 1,0,-1
 24 31 l 1,1,-1
 178 57 l 1,2,-1
 178 788 l 1,3,-1
 24 815 l 1,4,-1
 26 843 l 1,5,-1
 260 863 l 1,6,-1
 266 854 l 1,7,-1
 262 717 l 1,8,-1
 269 717 l 1,9,10
 312 773 312 773 403.5 826.5 c 128,-1,11
 495 880 495 880 590 880 c 0,12,13
 687 880 687 880 749 808.5 c 128,-1,14
 811 737 811 737 811 584 c 2,15,-1
 811 57 l 1,16,-1
 948 37 l 1,17,-1
 945 0 l 1,18,-1
 568 0 l 1,19,-1
 574 31 l 1,20,-1
 716 57 l 1,21,-1
 716 559 l 2,22,23
 716 683 716 683 668.5 742 c 128,-1,24
 621 801 621 801 550 801 c 0,25,26
 465 801 465 801 409.5 772.5 c 128,-1,27
 354 744 354 744 271 665 c 1,28,-1
 271 57 l 1,29,-1
 413 36 l 1,30,-1
 407 0 l 1,31,-1
 17 0 l 1,0,-1
242 1020 m 1,32,33
 242 1022 242 1022 243 1026 c 128,-1,34
 244 1030 244 1030 247.5 1041.5 c 128,-1,35
 251 1053 251 1053 255 1063 c 128,-1,36
 259 1073 259 1073 266.5 1088.5 c 128,-1,37
 274 1104 274 1104 282.5 1114 c 128,-1,38
 291 1124 291 1124 303.5 1136.5 c 128,-1,39
 316 1149 316 1149 330 1153 c 128,-1,40
 344 1157 344 1157 362 1160 c 128,-1,41
 380 1163 380 1163 400 1155 c 1,42,-1
 581 1101 l 2,43,44
 613 1091 613 1091 637 1107.5 c 128,-1,45
 661 1124 661 1124 669 1146 c 2,46,-1
 677 1168 l 1,47,-1
 711 1166 l 1,48,49
 710 1164 710 1164 709 1160.5 c 128,-1,50
 708 1157 708 1157 704.5 1145 c 128,-1,51
 701 1133 701 1133 699.5 1130.5 c 2,52,-1
 687 1105.5 l 2,53,54
 676 1083 676 1083 666.5 1072.5 c 128,-1,55
 657 1062 657 1062 644.5 1050 c 128,-1,56
 632 1038 632 1038 617.5 1034 c 128,-1,57
 603 1030 603 1030 584.5 1027 c 128,-1,58
 566 1024 566 1024 545 1032 c 1,59,-1
 369 1084 l 2,60,61
 341 1093 341 1093 315.5 1074.5 c 128,-1,62
 290 1056 290 1056 280 1032 c 2,63,-1
 270 1008 l 1,64,-1
 242 1020 l 1,32,33
EndSplineSet
Colour: ffff00
EndChar

StartChar: numbersign
Encoding: 35 35 142
Width: 1090
VWidth: 0
Flags: HMW
LayerCount: 2
Back
SplineSet
263.058 102.03 m 17,0,-1
 204.754 95.7832 l 1,1,-1
 319.972 858.579 l 1,2,-1
 378.275 866.908 l 1,3,-1
 263.058 102.03 l 17,0,-1
89.5371 591.357 m 17,4,-1
 104.112 650.354 l 1,5,-1
 793.335 650.354 l 1,6,-1
 780.842 591.357 l 1,7,-1
 89.5371 591.357 l 17,4,-1
43.0332 324.137 m 17,8,-1
 61.7734 383.133 l 1,9,-1
 748.914 383.133 l 1,10,-1
 730.868 324.137 l 1,11,-1
 43.0332 324.137 l 17,8,-1
524.726 102.03 m 17,12,-1
 465.729 95.7832 l 1,13,-1
 580.947 858.579 l 1,14,-1
 639.943 866.213 l 1,15,-1
 524.726 102.03 l 17,12,-1
EndSplineSet
Fore
SplineSet
662 -19 m 1,0,-1
 593 -26 l 1,1,-1
 646 326 l 1,2,-1
 383 326 l 1,3,-1
 331 -19 l 1,4,-1
 264 -26 l 1,5,-1
 317 326 l 1,6,-1
 43 326 l 1,7,-1
 64 403 l 1,8,-1
 328 403 l 1,9,-1
 374 712 l 1,10,-1
 114 712 l 1,11,-1
 136 789 l 1,12,-1
 386 789 l 1,13,-1
 440 1151 l 1,14,-1
 508 1161 l 1,15,-1
 452 789 l 1,16,-1
 716 789 l 1,17,-1
 770 1151 l 1,18,-1
 838 1160 l 1,19,-1
 783 789 l 1,20,-1
 1047 789 l 1,21,-1
 1028 712 l 1,22,-1
 771 712 l 1,23,-1
 725 403 l 1,24,-1
 973 403 l 1,25,-1
 952 326 l 1,26,-1
 714 326 l 1,27,-1
 662 -19 l 1,0,-1
658 403 m 1,28,-1
 704 712 l 1,29,-1
 441 712 l 1,30,-1
 394 403 l 1,31,-1
 658 403 l 1,28,-1
EndSplineSet
Colour: ffff00
EndChar

StartChar: o
Encoding: 111 111 143
Width: 870
VWidth: 0
Flags: HMW
LayerCount: 2
Fore
SplineSet
161 468 m 0,0,1
 161 286 161 286 245.5 161.5 c 128,-1,2
 330 37 330 37 467 37 c 0,3,4
 575 37 575 37 642 140 c 128,-1,5
 709 243 709 243 709 401 c 0,6,7
 709 506 709 506 674 599 c 128,-1,8
 639 692 639 692 570 752.5 c 128,-1,9
 501 813 501 813 413 813 c 0,10,11
 301 813 301 813 231 714.5 c 128,-1,12
 161 616 161 616 161 468 c 0,0,1
56 396 m 0,13,14
 56 617 56 617 170 748 c 128,-1,15
 284 879 284 879 457 879 c 0,16,17
 563 879 563 879 645.5 817.5 c 128,-1,18
 728 756 728 756 771 655.5 c 128,-1,19
 814 555 814 555 814 437 c 0,20,21
 814 232 814 232 701.5 102.5 c 128,-1,22
 589 -27 589 -27 431 -27 c 0,23,24
 269 -27 269 -27 162.5 88.5 c 128,-1,25
 56 204 56 204 56 396 c 0,13,14
EndSplineSet
Colour: ffff00
EndChar

StartChar: oacute
Encoding: 243 243 144
Width: 870
VWidth: 0
Flags: HMW
LayerCount: 2
Fore
SplineSet
139 468 m 0,0,1
 139 286 139 286 223.5 161.5 c 128,-1,2
 308 37 308 37 445 37 c 0,3,4
 553 37 553 37 620 140 c 128,-1,5
 687 243 687 243 687 401 c 0,6,7
 687 506 687 506 652 599 c 128,-1,8
 617 692 617 692 548 752.5 c 128,-1,9
 479 813 479 813 391 813 c 0,10,11
 279 813 279 813 209 714.5 c 128,-1,12
 139 616 139 616 139 468 c 0,0,1
34 396 m 0,13,14
 34 617 34 617 148 748 c 128,-1,15
 262 879 262 879 435 879 c 0,16,17
 541 879 541 879 623.5 817.5 c 128,-1,18
 706 756 706 756 749 655.5 c 128,-1,19
 792 555 792 555 792 437 c 0,20,21
 792 232 792 232 679.5 102.5 c 128,-1,22
 567 -27 567 -27 409 -27 c 0,23,24
 247 -27 247 -27 140.5 88.5 c 128,-1,25
 34 204 34 204 34 396 c 0,13,14
354 1007 m 1,26,-1
 486 1344 l 1,27,-1
 582 1305 l 1,28,-1
 399 981 l 1,29,-1
 354 1007 l 1,26,-1
EndSplineSet
Colour: ffff00
EndChar

StartChar: ocircumflex
Encoding: 244 244 145
Width: 870
VWidth: 0
Flags: HMW
LayerCount: 2
Fore
SplineSet
139 468 m 0,0,1
 139 286 139 286 223.5 161.5 c 128,-1,2
 308 37 308 37 445 37 c 0,3,4
 553 37 553 37 620 140 c 128,-1,5
 687 243 687 243 687 401 c 0,6,7
 687 506 687 506 652 599 c 128,-1,8
 617 692 617 692 548 752.5 c 128,-1,9
 479 813 479 813 391 813 c 0,10,11
 279 813 279 813 209 714.5 c 128,-1,12
 139 616 139 616 139 468 c 0,0,1
34 396 m 0,13,14
 34 617 34 617 148 748 c 128,-1,15
 262 879 262 879 435 879 c 0,16,17
 541 879 541 879 623.5 817.5 c 128,-1,18
 706 756 706 756 749 655.5 c 128,-1,19
 792 555 792 555 792 437 c 0,20,21
 792 232 792 232 679.5 102.5 c 128,-1,22
 567 -27 567 -27 409 -27 c 0,23,24
 247 -27 247 -27 140.5 88.5 c 128,-1,25
 34 204 34 204 34 396 c 0,13,14
224 1025 m 1,26,-1
 391 1206 l 1,27,-1
 445 1219 l 1,28,-1
 624 1033 l 1,29,-1
 592 996 l 1,30,-1
 411 1131 l 1,31,-1
 402 1131 l 1,32,-1
 245 995 l 1,33,-1
 224 1025 l 1,26,-1
EndSplineSet
Colour: ffff00
EndChar

StartChar: odieresis
Encoding: 246 246 146
Width: 870
VWidth: 0
Flags: HMW
LayerCount: 2
Fore
SplineSet
140 468 m 0,0,1
 140 286 140 286 224.5 161.5 c 128,-1,2
 309 37 309 37 446 37 c 0,3,4
 554 37 554 37 621 140 c 128,-1,5
 688 243 688 243 688 401 c 0,6,7
 688 506 688 506 653 599 c 128,-1,8
 618 692 618 692 549 752.5 c 128,-1,9
 480 813 480 813 392 813 c 0,10,11
 280 813 280 813 210 714.5 c 128,-1,12
 140 616 140 616 140 468 c 0,0,1
35 396 m 0,13,14
 35 617 35 617 149 748 c 128,-1,15
 263 879 263 879 436 879 c 0,16,17
 542 879 542 879 624.5 817.5 c 128,-1,18
 707 756 707 756 750 655.5 c 128,-1,19
 793 555 793 555 793 437 c 0,20,21
 793 232 793 232 680.5 102.5 c 128,-1,22
 568 -27 568 -27 410 -27 c 0,23,24
 248 -27 248 -27 141.5 88.5 c 128,-1,25
 35 204 35 204 35 396 c 0,13,14
490 1085 m 0,26,27
 490 1163 490 1163 544 1163 c 0,28,29
 602 1163 602 1163 602 1085 c 0,30,31
 602 1004 602 1004 545 1004 c 0,32,33
 490 1004 490 1004 490 1085 c 0,26,27
221 1085 m 0,34,35
 221 1163 221 1163 276 1163 c 0,36,37
 334 1163 334 1163 334 1085 c 0,38,39
 334 1044 334 1044 321.5 1024 c 128,-1,40
 309 1004 309 1004 278 1004 c 0,41,42
 221 1004 221 1004 221 1085 c 0,34,35
EndSplineSet
Colour: ffff00
EndChar

StartChar: ograve
Encoding: 242 242 147
Width: 870
VWidth: 0
Flags: HMW
LayerCount: 2
Fore
SplineSet
139 468 m 0,0,1
 139 286 139 286 223.5 161.5 c 128,-1,2
 308 37 308 37 445 37 c 0,3,4
 553 37 553 37 620 140 c 128,-1,5
 687 243 687 243 687 401 c 0,6,7
 687 506 687 506 652 599 c 128,-1,8
 617 692 617 692 548 752.5 c 128,-1,9
 479 813 479 813 391 813 c 0,10,11
 279 813 279 813 209 714.5 c 128,-1,12
 139 616 139 616 139 468 c 0,0,1
34 396 m 0,13,14
 34 617 34 617 148 748 c 128,-1,15
 262 879 262 879 435 879 c 0,16,17
 541 879 541 879 623.5 817.5 c 128,-1,18
 706 756 706 756 749 655.5 c 128,-1,19
 792 555 792 555 792 437 c 0,20,21
 792 232 792 232 679.5 102.5 c 128,-1,22
 567 -27 567 -27 409 -27 c 0,23,24
 247 -27 247 -27 140.5 88.5 c 128,-1,25
 34 204 34 204 34 396 c 0,13,14
238 1298 m 1,26,-1
 332 1335 l 1,27,-1
 465 999 l 1,28,-1
 419 972 l 1,29,-1
 238 1298 l 1,26,-1
EndSplineSet
Colour: ffff00
EndChar

StartChar: one
Encoding: 49 49 148
Width: 763
VWidth: 0
Flags: HMW
LayerCount: 2
Fore
SplineSet
46 3 m 1,0,-1
 47 48 l 1,1,-1
 331 85 l 1,2,-1
 331 1089 l 1,3,-1
 63 1089 l 1,4,-1
 68 1133 l 1,5,-1
 418 1184 l 1,6,-1
 446 1184 l 1,7,-1
 446 82 l 1,8,-1
 720 58 l 1,9,-1
 711 3 l 1,10,-1
 46 3 l 1,0,-1
EndSplineSet
Substitution2: "'onum' Oldstyle Figures lookup 1-1" one.osf
Colour: ffff00
EndChar

StartChar: one.osf
Encoding: 65540 -1 149
Width: 617
VWidth: 0
Flags: HMW
LayerCount: 2
Fore
SplineSet
45 3 m 1,0,-1
 48 48 l 1,1,-1
 259 85 l 1,2,-1
 259 837 l 1,3,-1
 72 837 l 1,4,-1
 78 881 l 1,5,-1
 346 935 l 1,6,-1
 371 935 l 1,7,-1
 371 82 l 1,8,-1
 573 58 l 1,9,-1
 568 3 l 1,10,-1
 45 3 l 1,0,-1
EndSplineSet
Colour: ff00ff
EndChar

StartChar: onehalf
Encoding: 189 189 150
Width: 1303
VWidth: 0
Flags: HMW
LayerCount: 2
Fore
SplineSet
227 -43 m 1,0,-1
 573 588 l 1,1,-1
 889 1212 l 1,2,-1
 986 1207 l 1,3,-1
 983 1203 l 1,4,-1
 652 591 l 1,5,-1
 328 -47 l 1,6,-1
 227 -43 l 1,0,-1
44 570 m 1,7,-1
 45 615 l 1,8,-1
 210 636 l 1,9,-1
 210 1204 l 1,10,-1
 54 1204 l 1,11,-1
 57 1248 l 1,12,-1
 293 1276 l 1,13,-1
 311 1276 l 1,14,-1
 311 634 l 1,15,-1
 470 625 l 1,16,-1
 465 570 l 1,17,-1
 44 570 l 1,7,-1
727 47 m 1,18,-1
 878 172 l 2,19,20
 1008 280 1008 280 1057 349 c 128,-1,21
 1106 418 1106 418 1106 508 c 0,22,23
 1106 576 1106 576 1069.5 622 c 128,-1,24
 1033 668 1033 668 968 668 c 0,25,26
 872 668 872 668 843 647 c 1,27,-1
 817 497 l 1,28,-1
 775 501 l 1,29,-1
 780 660 l 1,30,31
 807 686 807 686 865 705 c 128,-1,32
 923 724 923 724 996 724 c 0,33,34
 1095 724 1095 724 1156 671.5 c 128,-1,35
 1217 619 1217 619 1217 511 c 0,36,37
 1217 479 1217 479 1208 448.5 c 128,-1,38
 1199 418 1199 418 1188.5 394 c 128,-1,39
 1178 370 1178 370 1149 337 c 128,-1,40
 1120 304 1120 304 1101 283.5 c 128,-1,41
 1082 263 1082 263 1033.5 223 c 128,-1,42
 985 183 985 183 957.5 161.5 c 128,-1,43
 930 140 930 140 864 88 c 1,44,-1
 860 85 l 1,45,-1
 1176 85 l 1,46,-1
 1220 233 l 1,47,-1
 1255 230 l 1,48,-1
 1235 0 l 1,49,-1
 730 0 l 1,50,-1
 727 47 l 1,18,-1
EndSplineSet
Colour: ffff00
EndChar

StartChar: onequarter
Encoding: 188 188 151
Width: 1221
VWidth: 0
Flags: HMW
LayerCount: 2
Fore
SplineSet
227 -43 m 1,0,-1
 573 588 l 1,1,-1
 889 1212 l 1,2,-1
 986 1207 l 1,3,-1
 983 1203 l 1,4,-1
 652 591 l 1,5,-1
 328 -47 l 1,6,-1
 227 -43 l 1,0,-1
44 570 m 1,7,-1
 45 615 l 1,8,-1
 210 636 l 1,9,-1
 210 1204 l 1,10,-1
 54 1204 l 1,11,-1
 57 1248 l 1,12,-1
 293 1276 l 1,13,-1
 311 1276 l 1,14,-1
 311 634 l 1,15,-1
 470 625 l 1,16,-1
 465 570 l 1,17,-1
 44 570 l 1,7,-1
718 277 m 1,18,-1
 936 277 l 1,19,-1
 936 557 l 1,20,-1
 718 277 l 1,18,-1
612 231 m 1,21,-1
 995 723 l 1,22,-1
 1039 716 l 1,23,24
 1031 621 1031 621 1031 420 c 2,25,-1
 1031 277 l 1,26,-1
 1179 277 l 1,27,-1
 1170 202 l 1,28,-1
 1031 202 l 1,29,-1
 1031 64 l 1,30,-1
 1148 45 l 1,31,-1
 1142 -1 l 1,32,-1
 768 -1 l 1,33,-1
 774 41 l 1,34,-1
 938 68 l 1,35,-1
 938 205 l 1,36,-1
 621 205 l 1,37,-1
 612 231 l 1,21,-1
EndSplineSet
Colour: ffff00
EndChar

StartChar: one.superior
Encoding: 185 185 152
Width: 527
VWidth: 0
Flags: HMW
LayerCount: 2
Fore
SplineSet
51 566 m 1,0,-1
 52 611 l 1,1,-1
 217 632 l 1,2,-1
 217 1200 l 1,3,-1
 61 1200 l 1,4,-1
 64 1244 l 1,5,-1
 300 1272 l 1,6,-1
 318 1272 l 1,7,-1
 318 630 l 1,8,-1
 477 621 l 1,9,-1
 472 566 l 1,10,-1
 51 566 l 1,0,-1
EndSplineSet
Colour: ffff00
EndChar

StartChar: ordfeminine
Encoding: 170 170 153
Width: 667
VWidth: 0
Flags: HMW
LayerCount: 2
Fore
SplineSet
150 734 m 0,0,1
 150 622 150 622 246 622 c 0,2,3
 301 622 301 622 348 653.5 c 128,-1,4
 395 685 395 685 424 735 c 1,5,-1
 424 927 l 1,6,7
 359 918 359 918 313 905 c 128,-1,8
 267 892 267 892 228 870 c 128,-1,9
 189 848 189 848 169.5 814 c 128,-1,10
 150 780 150 780 150 734 c 0,0,1
54 711 m 0,11,12
 54 814 54 814 147.5 885 c 128,-1,13
 241 956 241 956 424 967 c 1,14,-1
 424 994 l 2,15,16
 424 1125 424 1125 392 1180 c 128,-1,17
 360 1235 360 1235 271 1235 c 0,18,19
 245 1235 245 1235 226.5 1226 c 128,-1,20
 208 1217 208 1217 197.5 1205.5 c 128,-1,21
 187 1194 187 1194 179.5 1167.5 c 128,-1,22
 172 1141 172 1141 169.5 1123.5 c 128,-1,23
 167 1106 167 1106 162 1068 c 1,24,25
 133 1068 133 1068 107 1082.5 c 128,-1,26
 81 1097 81 1097 81 1122 c 0,27,28
 81 1186 81 1186 154 1234 c 128,-1,29
 227 1282 227 1282 314 1282 c 0,30,31
 409 1282 409 1282 460.5 1221 c 128,-1,32
 512 1160 512 1160 512 1036 c 2,33,-1
 512 764 l 2,34,35
 512 752 512 752 511 730 c 128,-1,36
 510 708 510 708 510 698 c 128,-1,37
 510 688 510 688 512.5 673.5 c 128,-1,38
 515 659 515 659 521 651.5 c 128,-1,39
 527 644 527 644 538 637.5 c 128,-1,40
 549 631 549 631 566 628 c 2,41,-1
 619 617 l 1,42,-1
 615 583 l 1,43,44
 576 566 576 566 534 566 c 0,45,46
 487 566 487 566 460.5 597 c 128,-1,47
 434 628 434 628 434 674 c 2,48,-1
 434 685 l 1,49,-1
 430 685 l 1,50,51
 414 642 414 642 355 601 c 128,-1,52
 296 560 296 560 220 560 c 0,53,54
 152 560 152 560 103 600.5 c 128,-1,55
 54 641 54 641 54 711 c 0,11,12
EndSplineSet
Colour: ffff00
EndChar

StartChar: ordmasculine
Encoding: 186 186 154
Width: 730
VWidth: 0
Flags: HMW
LayerCount: 2
Fore
SplineSet
152 954 m 0,0,1
 152 801 152 801 216 708.5 c 128,-1,2
 280 616 280 616 391 616 c 0,3,4
 477 616 477 616 527.5 694.5 c 128,-1,5
 578 773 578 773 578 900 c 0,6,7
 578 1036 578 1036 516 1129.5 c 128,-1,8
 454 1223 454 1223 348 1223 c 0,9,10
 259 1223 259 1223 205.5 1147.5 c 128,-1,11
 152 1072 152 1072 152 954 c 0,0,1
54 896 m 0,12,13
 54 1072 54 1072 149 1177.5 c 128,-1,14
 244 1283 244 1283 383 1283 c 0,15,16
 510 1283 510 1283 593 1178.5 c 128,-1,17
 676 1074 676 1074 676 929 c 0,18,19
 676 766 676 766 583 662 c 128,-1,20
 490 558 490 558 362 558 c 0,21,22
 231 558 231 558 142.5 650.5 c 128,-1,23
 54 743 54 743 54 896 c 0,12,13
EndSplineSet
Colour: ffff00
EndChar

StartChar: oslash
Encoding: 248 248 155
Width: 954
VWidth: 0
Flags: HMW
LayerCount: 2
Fore
SplineSet
93 408 m 0,0,1
 93 633 93 633 207.5 768 c 128,-1,2
 322 903 322 903 494 903 c 0,3,4
 633 903 633 903 731 793 c 1,5,-1
 775 847 l 1,6,-1
 889 857 l 1,7,-1
 775 734 l 1,8,9
 851 610 851 610 851 449 c 0,10,11
 851 243 851 243 738 108 c 128,-1,12
 625 -27 625 -27 468 -27 c 0,13,14
 385 -27 385 -27 315 5 c 128,-1,15
 245 37 245 37 194 97 c 1,16,-1
 156 54 l 1,17,-1
 44 46 l 1,18,-1
 152 159 l 1,19,20
 93 265 93 265 93 408 c 0,0,1
266 193 m 1,21,22
 307 120 307 120 368 78.5 c 128,-1,23
 429 37 429 37 504 37 c 0,24,25
 611 37 611 37 678.5 145.5 c 128,-1,26
 746 254 746 254 746 413 c 0,27,28
 746 547 746 547 691 661 c 1,29,-1
 266 193 l 1,21,22
244 239 m 1,30,-1
 665 707 l 1,31,32
 625 769 625 769 570.5 804.5 c 128,-1,33
 516 840 516 840 450 840 c 0,34,35
 339 840 339 840 268.5 734.5 c 128,-1,36
 198 629 198 629 198 480 c 0,37,38
 198 347 198 347 244 239 c 1,30,-1
EndSplineSet
Colour: ffff00
EndChar

StartChar: otilde
Encoding: 245 245 156
Width: 870
VWidth: 0
Flags: HMW
LayerCount: 2
Fore
SplineSet
140 468 m 0,0,1
 140 286 140 286 224.5 161.5 c 128,-1,2
 309 37 309 37 446 37 c 0,3,4
 554 37 554 37 621 140 c 128,-1,5
 688 243 688 243 688 401 c 0,6,7
 688 506 688 506 653 599 c 128,-1,8
 618 692 618 692 549 752.5 c 128,-1,9
 480 813 480 813 392 813 c 0,10,11
 280 813 280 813 210 714.5 c 128,-1,12
 140 616 140 616 140 468 c 0,0,1
35 396 m 0,13,14
 35 617 35 617 149 748 c 128,-1,15
 263 879 263 879 436 879 c 0,16,17
 542 879 542 879 624.5 817.5 c 128,-1,18
 707 756 707 756 750 655.5 c 128,-1,19
 793 555 793 555 793 437 c 0,20,21
 793 232 793 232 680.5 102.5 c 128,-1,22
 568 -27 568 -27 410 -27 c 0,23,24
 248 -27 248 -27 141.5 88.5 c 128,-1,25
 35 204 35 204 35 396 c 0,13,14
197 1020 m 1,26,27
 197 1022 197 1022 198 1026 c 128,-1,28
 199 1030 199 1030 202.5 1041.5 c 128,-1,29
 206 1053 206 1053 210 1063 c 128,-1,30
 214 1073 214 1073 221.5 1088.5 c 128,-1,31
 229 1104 229 1104 237.5 1114 c 128,-1,32
 246 1124 246 1124 258.5 1136.5 c 128,-1,33
 271 1149 271 1149 285 1153 c 128,-1,34
 299 1157 299 1157 317 1160 c 128,-1,35
 335 1163 335 1163 355 1155 c 1,36,-1
 536 1101 l 2,37,38
 568 1091 568 1091 592 1107.5 c 128,-1,39
 616 1124 616 1124 624 1146 c 2,40,-1
 632 1168 l 1,41,-1
 666 1166 l 1,42,43
 665 1164 665 1164 664 1160.5 c 128,-1,44
 663 1157 663 1157 659.5 1145 c 128,-1,45
 656 1133 656 1133 655 1130.5 c 2,46,-1
 642.5 1105.5 l 2,47,48
 631 1083 631 1083 621.5 1072.5 c 128,-1,49
 612 1062 612 1062 599.5 1050 c 128,-1,50
 587 1038 587 1038 572.5 1034 c 128,-1,51
 558 1030 558 1030 539.5 1027 c 128,-1,52
 521 1024 521 1024 500 1032 c 1,53,-1
 324 1084 l 2,54,55
 296 1093 296 1093 271 1074.5 c 128,-1,56
 246 1056 246 1056 236 1032 c 2,57,-1
 225 1008 l 1,58,-1
 197 1020 l 1,26,27
EndSplineSet
Colour: ffff00
EndChar

StartChar: p
Encoding: 112 112 157
Width: 935
VWidth: 0
Flags: HMW
LayerCount: 2
Fore
SplineSet
45 -374 m 1,0,-1
 50 -335 l 1,1,-1
 200 -313 l 1,2,-1
 200 786 l 1,3,-1
 47 815 l 1,4,-1
 51 843 l 1,5,-1
 288 864 l 1,6,-1
 295 855 l 1,7,-1
 290 710 l 1,8,-1
 298 710 l 1,9,10
 346 775 346 775 419 824.5 c 128,-1,11
 492 874 492 874 581 874 c 0,12,13
 717 874 717 874 797.5 770.5 c 128,-1,14
 878 667 878 667 878 456 c 128,-1,15
 878 245 878 245 757 112.5 c 128,-1,16
 636 -20 636 -20 449 -20 c 0,17,18
 390 -20 390 -20 338 -9 c 1,19,-1
 333 63 l 1,20,21
 392 40 392 40 502 40 c 0,22,23
 614 40 614 40 695.5 135 c 128,-1,24
 777 230 777 230 777 402 c 0,25,26
 777 584 777 584 714.5 688.5 c 128,-1,27
 652 793 652 793 521 793 c 0,28,29
 492 793 492 793 463 783 c 128,-1,30
 434 773 434 773 417.5 764.5 c 128,-1,31
 401 756 401 756 371 729.5 c 128,-1,32
 341 703 341 703 335 697 c 128,-1,33
 329 691 329 691 298 659 c 1,34,-1
 298 -315 l 1,35,-1
 453 -333 l 1,36,-1
 446 -374 l 1,37,-1
 45 -374 l 1,0,-1
EndSplineSet
Colour: ffff00
EndChar

StartChar: paragraph
Encoding: 182 182 158
Width: 1101
VWidth: 0
Flags: HMW
LayerCount: 2
Fore
SplineSet
763 1 m 1,0,-1
 763 1245 l 1,1,-1
 1047 1245 l 1,2,-1
 1043 1207 l 1,3,-1
 866 1184 l 1,4,-1
 866 64 l 1,5,-1
 1058 46 l 1,6,-1
 1048 -2 l 1,7,-1
 763 1 l 1,0,-1
49 843 m 0,8,9
 49 958 49 958 116.5 1051.5 c 128,-1,10
 184 1145 184 1145 292.5 1195 c 128,-1,11
 401 1245 401 1245 525 1245 c 2,12,-1
 707 1245 l 1,13,-1
 707 1 l 1,14,-1
 385 1 l 1,15,-1
 391 43 l 1,16,-1
 607 73 l 1,17,-1
 607 1185 l 1,18,19
 579 1187 579 1187 534 1187 c 0,20,21
 346 1187 346 1187 263.5 1103.5 c 128,-1,22
 181 1020 181 1020 181 840 c 0,23,24
 181 707 181 707 275 617.5 c 128,-1,25
 369 528 369 528 526 528 c 1,26,-1
 508 478 l 1,27,28
 404 478 404 478 325.5 494.5 c 128,-1,29
 247 511 247 511 182 550.5 c 128,-1,30
 117 590 117 590 83 663.5 c 128,-1,31
 49 737 49 737 49 843 c 0,8,9
EndSplineSet
Colour: ffff00
EndChar

StartChar: parenleft
Encoding: 40 40 159
Width: 461
VWidth: 0
Flags: HMW
LayerCount: 2
Fore
SplineSet
428 1213 m 1,0,1
 391 1164 391 1164 368 1130.5 c 128,-1,2
 345 1097 345 1097 305 1021 c 128,-1,3
 265 945 265 945 241 872 c 128,-1,4
 217 799 217 799 198 688 c 128,-1,5
 179 577 179 577 179 456 c 0,6,7
 179 55 179 55 420 -333 c 0,8,9
 424 -339 424 -339 426 -342 c 1,10,-1
 398 -374 l 1,11,12
 371 -350 371 -350 342.5 -319.5 c 128,-1,13
 314 -289 314 -289 260 -211 c 128,-1,14
 206 -133 206 -133 167 -46.5 c 128,-1,15
 128 40 128 40 97 175 c 128,-1,16
 66 310 66 310 66 455 c 0,17,18
 66 563 66 563 82.5 662.5 c 128,-1,19
 99 762 99 762 120.5 833 c 128,-1,20
 142 904 142 904 179.5 974 c 128,-1,21
 217 1044 217 1044 242 1082 c 128,-1,22
 267 1120 267 1120 309.5 1165 c 128,-1,23
 352 1210 352 1210 363.5 1220.5 c 128,-1,24
 375 1231 375 1231 404 1256 c 1,25,-1
 428 1213 l 1,0,1
EndSplineSet
Colour: ffff00
EndChar

StartChar: parenright
Encoding: 41 41 160
Width: 461
VWidth: 0
Flags: HMW
LayerCount: 2
Fore
SplineSet
43 1213 m 1,0,-1
 67 1256 l 1,1,2
 96 1231 96 1231 107.5 1220.5 c 128,-1,3
 119 1210 119 1210 161.5 1165 c 128,-1,4
 204 1120 204 1120 229 1082 c 128,-1,5
 254 1044 254 1044 291.5 974 c 128,-1,6
 329 904 329 904 350.5 833 c 128,-1,7
 372 762 372 762 388.5 662.5 c 128,-1,8
 405 563 405 563 405 455 c 0,9,10
 405 310 405 310 374 175 c 128,-1,11
 343 40 343 40 304 -46.5 c 128,-1,12
 265 -133 265 -133 211 -211 c 128,-1,13
 157 -289 157 -289 128.5 -319.5 c 128,-1,14
 100 -350 100 -350 73 -374 c 1,15,-1
 45 -342 l 1,16,17
 147 -177 147 -177 202 -30 c 0,18,19
 292 213 292 213 292 456 c 0,20,21
 292 577 292 577 273 688 c 128,-1,22
 254 799 254 799 230 872 c 128,-1,23
 206 945 206 945 166 1021 c 128,-1,24
 126 1097 126 1097 103 1130.5 c 128,-1,25
 80 1164 80 1164 43 1213 c 1,0,-1
EndSplineSet
Colour: ffff00
EndChar

StartChar: percent
Encoding: 37 37 161
Width: 1110
VWidth: 0
Flags: HMW
LayerCount: 2
Fore
SplineSet
715 278 m 0,0,1
 715 217 715 217 729.5 154 c 128,-1,2
 744 91 744 91 773.5 45.5 c 128,-1,3
 803 0 803 0 838 0 c 0,4,5
 878 0 878 0 908.5 45.5 c 128,-1,6
 939 91 939 91 953.5 153.5 c 128,-1,7
 968 216 968 216 968 280 c 0,8,9
 968 341 968 341 951 405 c 128,-1,10
 934 469 934 469 902.5 514 c 128,-1,11
 871 559 871 559 835 559 c 0,12,13
 795 559 795 559 766.5 511.5 c 128,-1,14
 738 464 738 464 726.5 402.5 c 128,-1,15
 715 341 715 341 715 278 c 0,0,1
622 278 m 0,16,17
 622 407 622 407 683 499 c 128,-1,18
 744 591 744 591 835 591 c 0,19,20
 939 591 939 591 999.5 501.5 c 128,-1,21
 1060 412 1060 412 1060 274 c 0,22,23
 1060 147 1060 147 993.5 55.5 c 128,-1,24
 927 -36 927 -36 838 -36 c 0,25,26
 742 -36 742 -36 682 50 c 128,-1,27
 622 136 622 136 622 278 c 0,16,17
171 -43 m 1,28,-1
 517 588 l 1,29,-1
 808 1163 l 1,30,-1
 433 1163 l 1,31,32
 452 1134 452 1134 467.5 1040.5 c 128,-1,33
 483 947 483 947 483 899 c 0,34,35
 483 771 483 771 417 678.5 c 128,-1,36
 351 586 351 586 262 586 c 0,37,38
 166 586 166 586 107 671 c 128,-1,39
 48 756 48 756 48 899 c 0,40,41
 48 1029 48 1029 108.5 1121 c 128,-1,42
 169 1213 169 1213 260 1213 c 0,43,44
 297 1213 297 1213 303 1210 c 1,45,-1
 295 1163 l 1,46,47
 293.5 1164.5 l 1,48,-1
 290 1168 l 1,49,-1
 287 1171 l 1,50,-1
 283 1175 l 2,51,52
 280 1178 280 1178 278 1179 c 128,-1,53
 276 1180 276 1180 274.5 1180.5 c 128,-1,54
 273 1181 273 1181 270.5 1181.5 c 128,-1,55
 268 1182 268 1182 267.5 1182 c 2,56,-1
 260 1182 l 2,57,58
 220 1182 220 1182 191 1134 c 128,-1,59
 162 1086 162 1086 150 1024 c 128,-1,60
 138 962 138 962 138 899 c 0,61,62
 138 838 138 838 153 776 c 128,-1,63
 168 714 168 714 197 669.5 c 128,-1,64
 226 625 226 625 262 625 c 0,65,66
 302 625 302 625 332.5 669 c 128,-1,67
 363 713 363 713 377.5 774.5 c 128,-1,68
 392 836 392 836 392 899 c 0,69,70
 392 1078 392 1078 337 1194 c 1,71,-1
 833 1212 l 1,72,-1
 930 1207 l 1,73,-1
 927 1203 l 1,74,-1
 596 591 l 1,75,-1
 272 -47 l 1,76,-1
 171 -43 l 1,28,-1
EndSplineSet
Colour: ffff00
EndChar

StartChar: period
Encoding: 46 46 162
Width: 256
VWidth: 0
Flags: HMW
LayerCount: 2
Fore
SplineSet
66 70 m 0,0,1
 66 167 66 167 129 167 c 128,-1,2
 192 167 192 167 192 70 c 0,3,4
 192 -33 192 -33 129 -33 c 128,-1,5
 66 -33 66 -33 66 70 c 0,0,1
EndSplineSet
Colour: ffff00
EndChar

StartChar: periodcentered
Encoding: 183 183 163
Width: 251
VWidth: 0
Flags: HMW
LayerCount: 2
Fore
SplineSet
63 502 m 0,0,1
 63 599 63 599 126 599 c 128,-1,2
 189 599 189 599 189 502 c 0,3,4
 189 451 189 451 174.5 426 c 128,-1,5
 160 401 160 401 127 401 c 0,6,7
 63 401 63 401 63 502 c 0,0,1
EndSplineSet
Colour: ffff00
EndChar

StartChar: plus
Encoding: 43 43 164
Width: 612
VWidth: 0
Flags: HMW
LayerCount: 2
Fore
SplineSet
51 426 m 1,0,-1
 64 495 l 1,1,-1
 272 495 l 1,2,-1
 272 742 l 1,3,-1
 339 730 l 1,4,-1
 341 495 l 1,5,-1
 561 495 l 1,6,-1
 550 426 l 1,7,-1
 341 426 l 1,8,-1
 342 172 l 1,9,-1
 272 187 l 1,10,-1
 272 426 l 1,11,-1
 51 426 l 1,0,-1
EndSplineSet
Colour: ffff00
EndChar

StartChar: plusminus
Encoding: 177 177 165
Width: 727
VWidth: 0
Flags: HMW
LayerCount: 2
Fore
SplineSet
52 36 m 1,0,-1
 69 100 l 1,1,-1
 680 100 l 1,2,-1
 663 36 l 1,3,-1
 52 36 l 1,0,-1
47 492 m 1,4,-1
 60 561 l 1,5,-1
 268 561 l 1,6,-1
 268 808 l 1,7,-1
 335 796 l 1,8,-1
 337 561 l 1,9,-1
 557 561 l 1,10,-1
 546 492 l 1,11,-1
 337 492 l 1,12,-1
 338 238 l 1,13,-1
 268 253 l 1,14,-1
 268 492 l 1,15,-1
 47 492 l 1,4,-1
EndSplineSet
Colour: ffff00
EndChar

StartChar: q
Encoding: 113 113 166
Width: 951
VWidth: 0
Flags: HMW
LayerCount: 2
Fore
SplineSet
56 401 m 0,0,1
 56 533 56 533 115 643.5 c 128,-1,2
 174 754 174 754 268.5 815.5 c 128,-1,3
 363 877 363 877 467 877 c 0,4,5
 579 877 579 877 656 837 c 1,6,-1
 725 864 l 1,7,-1
 744 864 l 1,8,-1
 744 -308 l 1,9,-1
 905 -326 l 1,10,-1
 898 -368 l 1,11,-1
 488 -368 l 1,12,-1
 493 -329 l 1,13,-1
 644 -308 l 1,14,-1
 644 719 l 1,15,16
 612 760 612 760 553 789 c 128,-1,17
 494 818 494 818 417 818 c 0,18,19
 312 818 312 818 236.5 715.5 c 128,-1,20
 161 613 161 613 161 462 c 0,21,22
 161 52 161 52 418 52 c 0,23,24
 467 52 467 52 522 66 c 128,-1,25
 577 80 577 80 612 106 c 1,26,-1
 615 70 l 1,27,28
 569 26 569 26 502 2 c 128,-1,29
 435 -22 435 -22 365 -22 c 0,30,31
 225 -22 225 -22 140.5 82 c 128,-1,32
 56 186 56 186 56 401 c 0,0,1
EndSplineSet
Colour: ffff00
EndChar

StartChar: question
Encoding: 63 63 167
Width: 606
VWidth: 0
Flags: HMW
LayerCount: 2
Fore
SplineSet
235 66 m 0,0,1
 235 107 235 107 251 133 c 128,-1,2
 267 159 267 159 292 159 c 0,3,4
 319 159 319 159 335 133 c 128,-1,5
 351 107 351 107 351 66 c 0,6,7
 351 -33 351 -33 292 -33 c 0,8,9
 235 -33 235 -33 235 66 c 0,0,1
44 1166 m 0,10,11
 44 1212 44 1212 108.5 1249 c 128,-1,12
 173 1286 173 1286 243 1286 c 0,13,14
 373 1286 373 1286 466 1174.5 c 128,-1,15
 559 1063 559 1063 559 925 c 0,16,17
 559 879 559 879 542 840 c 128,-1,18
 525 801 525 801 497.5 773.5 c 128,-1,19
 470 746 470 746 437 721 c 128,-1,20
 404 696 404 696 371 673.5 c 128,-1,21
 338 651 338 651 310.5 628 c 128,-1,22
 283 605 283 605 266 574 c 128,-1,23
 249 543 249 543 249 508 c 0,24,25
 249 443 249 443 295 358 c 1,26,-1
 256 342 l 1,27,28
 220 377 220 377 195 431.5 c 128,-1,29
 170 486 170 486 170 544 c 0,30,31
 170 604 170 604 202 653.5 c 128,-1,32
 234 703 234 703 280 737 c 128,-1,33
 326 771 326 771 371.5 801.5 c 128,-1,34
 417 832 417 832 449 868.5 c 128,-1,35
 481 905 481 905 481 946 c 0,36,37
 481 1041 481 1041 427 1111.5 c 128,-1,38
 373 1182 373 1182 279 1182 c 0,39,40
 223 1182 223 1182 172.5 1161 c 128,-1,41
 122 1140 122 1140 89 1105 c 1,42,43
 44 1128 44 1128 44 1166 c 0,10,11
EndSplineSet
Colour: ffff00
EndChar

StartChar: questiondown
Encoding: 191 191 168
Width: 605
VWidth: 0
Flags: HMW
LayerCount: 2
Fore
SplineSet
381 833 m 0,0,1
 381 792 381 792 365 766 c 128,-1,2
 349 740 349 740 324 740 c 0,3,4
 297 740 297 740 281 766 c 128,-1,5
 265 792 265 792 265 833 c 0,6,7
 265 932 265 932 324 932 c 0,8,9
 381 932 381 932 381 833 c 0,0,1
572 -267 m 0,10,11
 572 -313 572 -313 507.5 -350 c 128,-1,12
 443 -387 443 -387 373 -387 c 0,13,14
 243 -387 243 -387 150 -275.5 c 128,-1,15
 57 -164 57 -164 57 -26 c 0,16,17
 57 20 57 20 74 59 c 128,-1,18
 91 98 91 98 118.5 125.5 c 128,-1,19
 146 153 146 153 179 178 c 128,-1,20
 212 203 212 203 245 225.5 c 128,-1,21
 278 248 278 248 305.5 271 c 128,-1,22
 333 294 333 294 350 325 c 128,-1,23
 367 356 367 356 367 391 c 0,24,25
 367 456 367 456 321 541 c 1,26,-1
 360 557 l 1,27,28
 396 522 396 522 421 467.5 c 128,-1,29
 446 413 446 413 446 355 c 0,30,31
 446 295 446 295 414 245.5 c 128,-1,32
 382 196 382 196 336 162 c 128,-1,33
 290 128 290 128 244.5 97.5 c 128,-1,34
 199 67 199 67 167 30.5 c 128,-1,35
 135 -6 135 -6 135 -47 c 0,36,37
 135 -142 135 -142 189 -212.5 c 128,-1,38
 243 -283 243 -283 337 -283 c 0,39,40
 393 -283 393 -283 443.5 -262 c 128,-1,41
 494 -241 494 -241 527 -206 c 1,42,43
 572 -229 572 -229 572 -267 c 0,10,11
EndSplineSet
Colour: ffff00
EndChar

StartChar: quotedbl
Encoding: 34 34 169
Width: 396
VWidth: 0
Flags: HMW
LayerCount: 2
Fore
SplineSet
226 1302 m 1,0,-1
 336 1296 l 1,1,-1
 300 895 l 1,2,-1
 247 891 l 1,3,-1
 226 1302 l 1,0,-1
61 1302 m 1,4,-1
 170 1296 l 1,5,-1
 134 895 l 1,6,-1
 82 891 l 1,7,-1
 61 1302 l 1,4,-1
EndSplineSet
Colour: ffff00
EndChar

StartChar: quotedblleft
Encoding: 8220 8220 170
Width: 698
VWidth: 0
Flags: HMW
LayerCount: 2
Fore
SplineSet
691 1211 m 1,0,1
 590 1171 590 1171 551.5 1121.5 c 128,-1,2
 513 1072 513 1072 513 1005 c 0,3,4
 513 941 513 941 544.5 902 c 128,-1,5
 576 863 576 863 622 863 c 0,6,7
 640 863 640 863 649 867 c 1,8,9
 652 858 652 858 652 848 c 0,10,11
 652 807 652 807 625.5 782 c 128,-1,12
 599 757 599 757 556 757 c 0,13,14
 496 757 496 757 454.5 812 c 128,-1,15
 413 867 413 867 413 966 c 0,16,17
 413 1004 413 1004 426 1042 c 128,-1,18
 439 1080 439 1080 467 1120.5 c 128,-1,19
 495 1161 495 1161 549.5 1196.5 c 128,-1,20
 604 1232 604 1232 679 1256 c 1,21,-1
 691 1211 l 1,0,1
377 1211 m 1,22,23
 276 1171 276 1171 237.5 1121.5 c 128,-1,24
 199 1072 199 1072 199 1005 c 0,25,26
 199 941 199 941 230.5 902 c 128,-1,27
 262 863 262 863 308 863 c 0,28,29
 326 863 326 863 335 867 c 1,30,31
 338 858 338 858 338 848 c 0,32,33
 338 807 338 807 311.5 782 c 128,-1,34
 285 757 285 757 242 757 c 0,35,36
 182 757 182 757 140.5 812 c 128,-1,37
 99 867 99 867 99 966 c 0,38,39
 99 1004 99 1004 112 1042 c 128,-1,40
 125 1080 125 1080 153 1120.5 c 128,-1,41
 181 1161 181 1161 235.5 1196.5 c 128,-1,42
 290 1232 290 1232 365 1256 c 1,43,-1
 377 1211 l 1,22,23
EndSplineSet
Colour: ffff00
EndChar

StartChar: quotedblright
Encoding: 8221 8221 171
Width: 700
VWidth: 0
Flags: HMW
LayerCount: 2
Fore
SplineSet
8 833 m 1,0,1
 109 873 109 873 147.5 922.5 c 128,-1,2
 186 972 186 972 186 1039 c 0,3,4
 186 1103 186 1103 154.5 1142 c 128,-1,5
 123 1181 123 1181 77 1181 c 0,6,7
 59 1181 59 1181 50 1177 c 1,8,9
 47 1186 47 1186 47 1196 c 0,10,11
 47 1237 47 1237 73.5 1262 c 128,-1,12
 100 1287 100 1287 143 1287 c 0,13,14
 203 1287 203 1287 244.5 1232 c 128,-1,15
 286 1177 286 1177 286 1078 c 0,16,17
 286 1040 286 1040 273 1002 c 128,-1,18
 260 964 260 964 232 923.5 c 128,-1,19
 204 883 204 883 149.5 847.5 c 128,-1,20
 95 812 95 812 20 788 c 1,21,-1
 8 833 l 1,0,1
325 833 m 1,22,23
 426 873 426 873 464.5 922.5 c 128,-1,24
 503 972 503 972 503 1039 c 0,25,26
 503 1103 503 1103 471.5 1142 c 128,-1,27
 440 1181 440 1181 394 1181 c 0,28,29
 376 1181 376 1181 367 1177 c 1,30,31
 364 1186 364 1186 364 1196 c 0,32,33
 364 1237 364 1237 390.5 1262 c 128,-1,34
 417 1287 417 1287 460 1287 c 0,35,36
 520 1287 520 1287 561.5 1232 c 128,-1,37
 603 1177 603 1177 603 1078 c 0,38,39
 603 1040 603 1040 590 1002 c 128,-1,40
 577 964 577 964 549 923.5 c 128,-1,41
 521 883 521 883 466.5 847.5 c 128,-1,42
 412 812 412 812 337 788 c 1,43,-1
 325 833 l 1,22,23
EndSplineSet
Colour: ffff00
EndChar

StartChar: quoteleft
Encoding: 8216 8216 172
Width: 384
VWidth: 0
Flags: HMW
LayerCount: 2
Fore
SplineSet
377 1208 m 1,0,1
 276 1168 276 1168 237.5 1118.5 c 128,-1,2
 199 1069 199 1069 199 1002 c 0,3,4
 199 938 199 938 230.5 899 c 128,-1,5
 262 860 262 860 308 860 c 0,6,7
 326 860 326 860 335 864 c 1,8,9
 338 855 338 855 338 845 c 0,10,11
 338 804 338 804 311.5 779 c 128,-1,12
 285 754 285 754 242 754 c 0,13,14
 182 754 182 754 140.5 809 c 128,-1,15
 99 864 99 864 99 963 c 0,16,17
 99 1001 99 1001 112 1039 c 128,-1,18
 125 1077 125 1077 153 1117.5 c 128,-1,19
 181 1158 181 1158 235.5 1193.5 c 128,-1,20
 290 1229 290 1229 365 1253 c 1,21,-1
 377 1208 l 1,0,1
EndSplineSet
Colour: ffff00
EndChar

StartChar: quoteright
Encoding: 8217 8217 173
Width: 383
VWidth: 0
Flags: HMW
LayerCount: 2
Fore
SplineSet
8 827 m 1,0,1
 109 867 109 867 147.5 916.5 c 128,-1,2
 186 966 186 966 186 1033 c 0,3,4
 186 1097 186 1097 154.5 1136 c 128,-1,5
 123 1175 123 1175 77 1175 c 0,6,7
 59 1175 59 1175 50 1171 c 1,8,9
 47 1180 47 1180 47 1190 c 0,10,11
 47 1231 47 1231 73.5 1256 c 128,-1,12
 100 1281 100 1281 143 1281 c 0,13,14
 203 1281 203 1281 244.5 1226 c 128,-1,15
 286 1171 286 1171 286 1072 c 0,16,17
 286 1034 286 1034 273 996 c 128,-1,18
 260 958 260 958 232 917.5 c 128,-1,19
 204 877 204 877 149.5 841.5 c 128,-1,20
 95 806 95 806 20 782 c 1,21,-1
 8 827 l 1,0,1
EndSplineSet
Colour: ffff00
EndChar

StartChar: quotesinglbase
Encoding: 8218 8218 174
Width: 394
VWidth: 0
Flags: HMW
LayerCount: 2
Fore
SplineSet
10 -236 m 1,0,1
 111 -196 111 -196 149.5 -146.5 c 128,-1,2
 188 -97 188 -97 188 -30 c 0,3,4
 188 34 188 34 156.5 73 c 128,-1,5
 125 112 125 112 79 112 c 0,6,7
 61 112 61 112 52 108 c 1,8,9
 49 117 49 117 49 127 c 0,10,11
 49 168 49 168 75.5 193 c 128,-1,12
 102 218 102 218 145 218 c 0,13,14
 205 218 205 218 246.5 163 c 128,-1,15
 288 108 288 108 288 9 c 0,16,17
 288 -29 288 -29 275 -67 c 128,-1,18
 262 -105 262 -105 234 -145.5 c 128,-1,19
 206 -186 206 -186 151.5 -221.5 c 128,-1,20
 97 -257 97 -257 22 -281 c 1,21,-1
 10 -236 l 1,0,1
EndSplineSet
Colour: ffff00
EndChar

StartChar: quotesingle
Encoding: 39 39 175
Width: 230
VWidth: 0
Flags: HMW
LayerCount: 2
Fore
SplineSet
61 1302 m 1,0,-1
 170 1296 l 1,1,-1
 134 895 l 1,2,-1
 82 891 l 1,3,-1
 61 1302 l 1,0,-1
EndSplineSet
Colour: ffff00
EndChar

StartChar: r
Encoding: 114 114 176
Width: 700
VWidth: 0
Flags: HMW
LayerCount: 2
Back
SplineSet
96.4775 -0.694336 m 5,0,-1
 100.642 25.6807 l 1,1,-1
 234.6 48.5859 l 1,2,-1
 234.6 672.565 l 1,3,-1
 100.642 697.553 l 1,4,-1
 103.417 721.15 l 1,5,-1
 302.619 738.503 l 1,6,-1
 310.254 730.868 l 1,7,-1
 303.313 508.762 l 1,8,-1
 310.254 508.762 l 1,9,10
 328.189 618.478 328.189 618.478 387.137 686.819 c 0
 446.086 755.16 446.086 755.16 526.809 755.16 c 0,11,12
 564.728 755.16 564.728 755.16 593.66 734.296 c 0
 622.591 713.432 622.591 713.432 622.591 678.812 c 0,13,14
 622.591 657.98 622.591 657.98 613.166 643.346 c 0
 603.74 628.711 603.74 628.711 582.335 614.263 c 1,15,16
 545.787 682.282 545.787 682.282 485.857 682.282 c 0,17,18
 446.416 682.282 446.416 682.282 415.078 652.274 c 0
 383.739 622.265 383.739 622.265 364.322 571.284 c 0
 344.904 520.302 344.904 520.302 333.414 469.687 c 0
 321.924 419.072 321.924 419.072 315.113 361.617 c 1,19,-1
 315.113 47.1982 l 1,20,-1
 510.844 30.54 l 1,21,-1
 504.599 -0.694336 l 1,22,-1
 96.4775 -0.694336 l 5,0,-1
318.583 0 m 4
EndSplineSet
Fore
SplineSet
52 -1 m 1,0,-1
 57 30 l 1,1,-1
 213 57 l 1,2,-1
 213 786 l 1,3,-1
 57 815 l 1,4,-1
 60 843 l 1,5,-1
 292 863 l 1,6,-1
 302 854 l 1,7,-1
 293 594 l 1,8,-1
 302 594 l 1,9,10
 336 722 336 722 401 802 c 128,-1,11
 466 882 466 882 546 882 c 0,12,13
 594 882 594 882 621.5 860.5 c 128,-1,14
 649 839 649 839 649 805 c 0,15,16
 649 788 649 788 636 767.5 c 128,-1,17
 623 747 623 747 603 734 c 1,18,19
 577 764 577 764 553.5 776.5 c 128,-1,20
 530 789 530 789 498 789 c 0,21,22
 458 789 458 789 425 757 c 128,-1,23
 392 725 392 725 369.5 670 c 128,-1,24
 347 615 347 615 332.5 554.5 c 128,-1,25
 318 494 318 494 308 423 c 1,26,-1
 308 55 l 1,27,-1
 536 36 l 1,28,-1
 528 -1 l 1,29,-1
 52 -1 l 1,0,-1
EndSplineSet
Colour: ffff00
EndChar

StartChar: registered
Encoding: 174 174 177
Width: 1056
VWidth: 0
Flags: HMW
LayerCount: 2
Fore
SplineSet
103 1036 m 0,0,1
 103 840 103 840 217 716 c 128,-1,2
 331 592 331 592 517 592 c 0,3,4
 635 592 635 592 733 642 c 128,-1,5
 831 692 831 692 891 790 c 128,-1,6
 951 888 951 888 951 1016 c 0,7,8
 951 1224 951 1224 830.5 1346 c 128,-1,9
 710 1468 710 1468 519 1472 c 0,10,11
 434 1474 434 1474 360 1447.5 c 128,-1,12
 286 1421 286 1421 228 1368.5 c 128,-1,13
 170 1316 170 1316 136.5 1230.5 c 128,-1,14
 103 1145 103 1145 103 1036 c 0,0,1
48 1022 m 0,15,16
 48 1248 48 1248 183 1383 c 128,-1,17
 318 1518 318 1518 519 1518 c 0,18,19
 658 1518 658 1518 768 1460.5 c 128,-1,20
 878 1403 878 1403 943 1290 c 128,-1,21
 1008 1177 1008 1177 1008 1026 c 0,22,23
 1008 882 1008 882 938.5 770.5 c 128,-1,24
 869 659 869 659 756 601.5 c 128,-1,25
 643 544 643 544 509 544 c 0,26,27
 414 544 414 544 329.5 579 c 128,-1,28
 245 614 245 614 183 675.5 c 128,-1,29
 121 737 121 737 84.5 827 c 128,-1,30
 48 917 48 917 48 1022 c 0,15,16
429 1055 m 1,31,-1
 531 1055 l 1,32,33
 629 1117 629 1117 629 1191 c 0,34,35
 629 1250 629 1250 593 1274.5 c 128,-1,36
 557 1299 557 1299 483 1299 c 1,37,-1
 429 1297 l 1,38,-1
 429 1055 l 1,31,-1
289 771 m 1,39,-1
 292 802 l 1,40,-1
 363 815 l 1,41,-1
 363 1284 l 1,42,-1
 291 1293 l 1,43,-1
 295 1316 l 1,44,45
 411 1335 411 1335 506 1335 c 0,46,47
 585 1335 585 1335 642 1300 c 128,-1,48
 699 1265 699 1265 699 1203 c 0,49,50
 699 1107 699 1107 562 1040 c 1,51,-1
 562 1039 l 1,52,-1
 651 916 l 2,53,54
 683 872 683 872 704.5 848.5 c 128,-1,55
 726 825 726 825 737 818 c 128,-1,56
 748 811 748 811 766 804 c 2,57,-1
 788 796 l 1,58,-1
 785 770 l 1,59,60
 766 763 766 763 743 763 c 0,61,62
 702 763 702 763 668 788.5 c 128,-1,63
 634 814 634 814 597 880 c 2,64,-1
 518 1020 l 1,65,-1
 429 1020 l 1,66,-1
 429 812 l 1,67,-1
 524 804 l 1,68,-1
 519 771 l 1,69,-1
 289 771 l 1,39,-1
EndSplineSet
Colour: ffff00
EndChar

StartChar: ring
Encoding: 730 730 178
Width: 485
VWidth: 0
Flags: HMW
LayerCount: 2
Fore
SplineSet
145 1540 m 0,0,1
 145 1487 145 1487 171.5 1445.5 c 128,-1,2
 198 1404 198 1404 246 1404 c 0,3,4
 290 1404 290 1404 315 1435 c 128,-1,5
 340 1466 340 1466 340 1523 c 0,6,7
 340 1576 340 1576 311.5 1618 c 128,-1,8
 283 1660 283 1660 236 1660 c 0,9,10
 191 1660 191 1660 168 1625 c 128,-1,11
 145 1590 145 1590 145 1540 c 0,0,1
80 1529 m 0,12,13
 80 1599 80 1599 129 1649.5 c 128,-1,14
 178 1700 178 1700 248 1700 c 0,15,16
 320 1700 320 1700 363 1654.5 c 128,-1,17
 406 1609 406 1609 406 1538 c 128,-1,18
 406 1467 406 1467 358 1415 c 128,-1,19
 310 1363 310 1363 236 1363 c 0,20,21
 166 1363 166 1363 123 1408 c 128,-1,22
 80 1453 80 1453 80 1529 c 0,12,13
EndSplineSet
Colour: ff00ff
EndChar

StartChar: s
Encoding: 115 115 179
Width: 656
VWidth: 0
Flags: HMW
LayerCount: 2
Fore
SplineSet
50 167 m 0,0,1
 50 236 50 236 130 256 c 1,2,3
 150 123 150 123 198 69 c 128,-1,4
 246 15 246 15 347 15 c 0,5,6
 419 15 419 15 466 58 c 128,-1,7
 513 101 513 101 513 154 c 0,8,9
 513 199 513 199 482.5 241 c 128,-1,10
 452 283 452 283 406 313.5 c 128,-1,11
 360 344 360 344 306.5 381 c 128,-1,12
 253 418 253 418 207 453 c 128,-1,13
 161 488 161 488 130.5 539.5 c 128,-1,14
 100 591 100 591 100 649 c 0,15,16
 100 746 100 746 164 811.5 c 128,-1,17
 228 877 228 877 354 877 c 0,18,19
 448 877 448 877 509.5 820.5 c 128,-1,20
 571 764 571 764 571 692 c 0,21,22
 571 612 571 612 501 605 c 1,23,-1
 492 640 l 2,24,25
 463 750 463 750 422.5 791.5 c 128,-1,26
 382 833 382 833 330 833 c 0,27,28
 257 833 257 833 217.5 800 c 128,-1,29
 178 767 178 767 178 704 c 0,30,31
 178 661 178 661 201.5 621.5 c 128,-1,32
 225 582 225 582 262.5 551 c 128,-1,33
 300 520 300 520 345 490.5 c 128,-1,34
 390 461 390 461 435.5 430.5 c 128,-1,35
 481 400 481 400 518.5 367.5 c 128,-1,36
 556 335 556 335 579.5 293.5 c 128,-1,37
 603 252 603 252 603 205 c 0,38,39
 603 97 603 97 518.5 30.5 c 128,-1,40
 434 -36 434 -36 314 -36 c 0,41,42
 204 -36 204 -36 127 19.5 c 128,-1,43
 50 75 50 75 50 167 c 0,0,1
EndSplineSet
Colour: ffff00
EndChar

StartChar: section
Encoding: 167 167 180
Width: 822
VWidth: 0
Flags: HMW
LayerCount: 2
Fore
SplineSet
90 959 m 0,0,1
 90 1100 90 1100 191.5 1185.5 c 128,-1,2
 293 1271 293 1271 422 1271 c 0,3,4
 508 1271 508 1271 587 1243 c 128,-1,5
 666 1215 666 1215 714 1161 c 1,6,-1
 681 851 l 1,7,-1
 635 858 l 1,8,-1
 608 1101 l 1,9,10
 581 1150 581 1150 520 1182 c 128,-1,11
 459 1214 459 1214 396 1214 c 0,12,13
 309 1214 309 1214 248.5 1157.5 c 128,-1,14
 188 1101 188 1101 188 1006 c 0,15,16
 188 943 188 943 219 887.5 c 128,-1,17
 250 832 250 832 299.5 790 c 128,-1,18
 349 748 349 748 409.5 707.5 c 128,-1,19
 470 667 470 667 531 627.5 c 128,-1,20
 592 588 592 588 644 546.5 c 128,-1,21
 696 505 696 505 731.5 450.5 c 128,-1,22
 767 396 767 396 772 335 c 1,23,-1
 423 564 l 2,24,25
 413 571 413 571 392 584 c 0,26,27
 350 611 350 611 328 625.5 c 128,-1,28
 306 640 306 640 268.5 668 c 128,-1,29
 231 696 231 696 210.5 715.5 c 128,-1,30
 190 735 190 735 163.5 765 c 128,-1,31
 137 795 137 795 123.5 822.5 c 128,-1,32
 110 850 110 850 100 885.5 c 128,-1,33
 90 921 90 921 90 959 c 0,0,1
43 -239 m 1,34,-1
 72 46 l 1,35,-1
 119 42 l 1,36,-1
 147 -179 l 1,37,38
 180 -242 180 -242 258 -279.5 c 128,-1,39
 336 -317 336 -317 424 -317 c 0,40,41
 524 -317 524 -317 594 -257.5 c 128,-1,42
 664 -198 664 -198 664 -92 c 0,43,44
 664 -35 664 -35 634.5 16 c 128,-1,45
 605 67 605 67 557 107 c 128,-1,46
 509 147 509 147 451 185.5 c 128,-1,47
 393 224 393 224 333.5 263 c 128,-1,48
 274 302 274 302 224 342.5 c 128,-1,49
 174 383 174 383 139.5 435.5 c 128,-1,50
 105 488 105 488 99 547 c 1,51,-1
 437 333 l 1,52,53
 586 241 586 241 640 196 c 0,54,55
 773 84 773 84 773 -46 c 0,56,57
 773 -191 773 -191 664 -284.5 c 128,-1,58
 555 -378 555 -378 372 -378 c 0,59,60
 268 -378 268 -378 180.5 -339.5 c 128,-1,61
 93 -301 93 -301 43 -239 c 1,34,-1
EndSplineSet
Colour: ffff00
EndChar

StartChar: semicolon
Encoding: 59 59 181
Width: 363
VWidth: 0
Flags: HMW
LayerCount: 2
Fore
SplineSet
10 -222 m 1,0,1
 104 -185 104 -185 140 -139 c 128,-1,2
 176 -93 176 -93 176 -31 c 0,3,4
 176 28 176 28 146.5 64.5 c 128,-1,5
 117 101 117 101 74 101 c 0,6,7
 57 101 57 101 49 97 c 1,8,9
 46 105 46 105 46 115 c 0,10,11
 46 153 46 153 71 176.5 c 128,-1,12
 96 200 96 200 136 200 c 0,13,14
 192 200 192 200 230.5 148.5 c 128,-1,15
 269 97 269 97 269 5 c 0,16,17
 269 -31 269 -31 257 -66 c 128,-1,18
 245 -101 245 -101 218.5 -138.5 c 128,-1,19
 192 -176 192 -176 141.5 -209 c 128,-1,20
 91 -242 91 -242 21 -264 c 1,21,-1
 10 -222 l 1,0,1
13 723 m 0,22,23
 13 816 13 816 73.5 816 c 128,-1,24
 134 816 134 816 134 723 c 0,25,26
 134 674 134 674 120 649 c 128,-1,27
 106 624 106 624 74 624 c 0,28,29
 13 624 13 624 13 723 c 0,22,23
EndSplineSet
Colour: ffff00
EndChar

StartChar: seven
Encoding: 55 55 182
Width: 860
VWidth: 0
Flags: HMW
LayerCount: 2
Fore
SplineSet
47 848 m 1,0,-1
 77 1182 l 1,1,-1
 816 1182 l 1,2,-1
 816 1130 l 1,3,-1
 386 -33 l 1,4,-1
 275 -20 l 1,5,-1
 734 1078 l 1,6,-1
 147 1078 l 1,7,-1
 85 843 l 1,8,-1
 47 848 l 1,0,-1
EndSplineSet
Substitution2: "'onum' Oldstyle Figures lookup 1-1" seven.osf
Colour: ffff00
EndChar

StartChar: seven.osf
Encoding: 65541 -1 183
Width: 769
VWidth: 0
Flags: HMW
LayerCount: 2
Fore
SplineSet
50 597 m 1,0,-1
 73 921 l 1,1,-1
 722 921 l 1,2,-1
 722 867 l 1,3,4
 655 746 655 746 616.5 674.5 c 128,-1,5
 578 603 578 603 526.5 498 c 128,-1,6
 475 393 475 393 446.5 312 c 128,-1,7
 418 231 418 231 388.5 129 c 128,-1,8
 359 27 359 27 345 -79 c 128,-1,9
 331 -185 331 -185 327 -302 c 1,10,11
 324 -302 324 -302 320 -303 c 128,-1,12
 316 -304 316 -304 313 -304 c 0,13,14
 196 -304 196 -304 196 -181 c 0,15,16
 196 -104 196 -104 229.5 7.5 c 128,-1,17
 263 119 263 119 304.5 215 c 128,-1,18
 346 311 346 311 417.5 446 c 128,-1,19
 489 581 489 581 527.5 648 c 128,-1,20
 566 715 566 715 630 825 c 1,21,-1
 147 825 l 1,22,-1
 84 589 l 1,23,-1
 50 597 l 1,0,-1
EndSplineSet
Colour: ff00ff
EndChar

StartChar: six
Encoding: 54 54 184
Width: 825
VWidth: 0
Flags: HMW
LayerCount: 2
Fore
SplineSet
176 408 m 0,0,1
 176 234 176 234 250.5 130.5 c 128,-1,2
 325 27 325 27 424 27 c 0,3,4
 538 27 538 27 595.5 105 c 128,-1,5
 653 183 653 183 653 327 c 0,6,7
 653 460 653 460 583 545.5 c 128,-1,8
 513 631 513 631 395 631 c 0,9,10
 320 631 320 631 264 607.5 c 128,-1,11
 208 584 208 584 186 553 c 1,12,13
 176 502 176 502 176 408 c 0,0,1
56 422 m 0,14,15
 56 678 56 678 205 902 c 128,-1,16
 354 1126 354 1126 596 1213 c 1,17,-1
 617 1171 l 1,18,19
 530 1133 530 1133 460.5 1081 c 128,-1,20
 391 1029 391 1029 347 975 c 128,-1,21
 303 921 303 921 269.5 855 c 128,-1,22
 236 789 236 789 218 732.5 c 128,-1,23
 200 676 200 676 187 609 c 1,24,-1
 194 609 l 1,25,26
 232 638 232 638 262.5 656.5 c 128,-1,27
 293 675 293 675 349.5 692 c 128,-1,28
 406 709 406 709 469 709 c 0,29,30
 563 709 563 709 633.5 657.5 c 128,-1,31
 704 606 704 606 738.5 526 c 128,-1,32
 773 446 773 446 773 353 c 0,33,34
 773 196 773 196 667 87 c 128,-1,35
 561 -22 561 -22 400 -22 c 0,36,37
 308 -22 308 -22 239.5 14 c 128,-1,38
 171 50 171 50 132 113.5 c 128,-1,39
 93 177 93 177 74.5 254 c 128,-1,40
 56 331 56 331 56 422 c 0,14,15
EndSplineSet
Substitution2: "'onum' Oldstyle Figures lookup 1-1" six.osf
Colour: ffff00
EndChar

StartChar: six.osf
Encoding: 65542 -1 185
Width: 775
VWidth: 0
Flags: HMW
LayerCount: 2
Fore
SplineSet
177 408 m 0,0,1
 177 232 177 232 243.5 134 c 128,-1,2
 310 36 310 36 408 36 c 0,3,4
 475 36 475 36 521 79 c 128,-1,5
 567 122 567 122 586 185.5 c 128,-1,6
 605 249 605 249 605 327 c 0,7,8
 605 463 605 463 546 543 c 128,-1,9
 487 623 487 623 371 623 c 0,10,11
 319 623 319 623 270.5 602.5 c 128,-1,12
 222 582 222 582 191 553 c 1,13,14
 177 481 177 481 177 408 c 0,0,1
56 422 m 0,15,16
 56 535 56 535 94.5 654.5 c 128,-1,17
 133 774 133 774 202 882 c 128,-1,18
 271 990 271 990 376.5 1077 c 128,-1,19
 482 1164 482 1164 606 1206 c 1,20,-1
 627 1162 l 1,21,22
 529 1122 529 1122 450.5 1058 c 128,-1,23
 372 994 372 994 322 917.5 c 128,-1,24
 272 841 272 841 241.5 765.5 c 128,-1,25
 211 690 211 690 195 609 c 1,26,-1
 203 609 l 1,27,28
 322 700 322 700 446 700 c 0,29,30
 576 700 576 700 649.5 599 c 128,-1,31
 723 498 723 498 723 353 c 0,32,33
 723 204 723 204 622.5 91 c 128,-1,34
 522 -22 522 -22 383 -22 c 0,35,36
 309 -22 309 -22 251.5 2 c 128,-1,37
 194 26 194 26 157.5 66.5 c 128,-1,38
 121 107 121 107 98 165.5 c 128,-1,39
 75 224 75 224 65.5 286 c 128,-1,40
 56 348 56 348 56 422 c 0,15,16
EndSplineSet
Colour: ff00ff
EndChar

StartChar: slash
Encoding: 47 47 186
Width: 626
VWidth: 0
Flags: HMW
LayerCount: 2
Fore
SplineSet
40 -358 m 1,0,-1
 502 1241 l 1,1,-1
 584 1244 l 1,2,-1
 119 -354 l 1,3,-1
 40 -358 l 1,0,-1
EndSplineSet
Colour: ffff00
EndChar

StartChar: softhyphen
Encoding: 173 173 187
Width: 538
VWidth: 0
Flags: HMW
LayerCount: 2
Fore
SplineSet
62 435 m 1,0,-1
 70 497 l 1,1,-1
 479 558 l 1,2,-1
 469 495 l 1,3,-1
 62 435 l 1,0,-1
EndSplineSet
Colour: ffff00
EndChar

StartChar: sterling
Encoding: 163 163 189
Width: 1027
VWidth: 0
Flags: HMW
LayerCount: 2
Fore
SplineSet
43 0 m 1,0,-1
 49 42 l 1,1,-1
 219 72 l 1,2,3
 252 198 252 198 257 462 c 1,4,-1
 257 573 l 1,5,-1
 81 565 l 1,6,-1
 92 623 l 1,7,-1
 261 633 l 1,8,-1
 264 786 l 2,9,10
 269 1028 269 1028 346 1139.5 c 128,-1,11
 423 1251 423 1251 592 1251 c 0,12,13
 727 1251 727 1251 823 1211 c 1,14,-1
 792 889 l 1,15,-1
 744 897 l 1,16,-1
 723 1161 l 1,17,18
 705 1170 705 1170 650.5 1184 c 128,-1,19
 596 1198 596 1198 571 1198 c 0,20,21
 521 1198 521 1198 491 1188 c 128,-1,22
 461 1178 461 1178 436 1150.5 c 128,-1,23
 411 1123 411 1123 399 1066 c 128,-1,24
 387 1009 387 1009 381 922.5 c 128,-1,25
 375 836 375 836 375 701 c 2,26,-1
 375 640 l 1,27,-1
 594 653 l 1,28,-1
 583 593 l 1,29,-1
 373 580 l 1,30,-1
 373 516 l 2,31,32
 373 223 373 223 311 58 c 1,33,-1
 848 58 l 1,34,-1
 939 323 l 1,35,-1
 980 313 l 1,36,-1
 949 0 l 1,37,-1
 43 0 l 1,0,-1
EndSplineSet
Colour: ffff00
EndChar

StartChar: t
Encoding: 116 116 190
Width: 623
VWidth: 0
Flags: HMW
LayerCount: 2
Fore
SplineSet
45 758 m 1,0,-1
 45 787 l 1,1,2
 94 804 94 804 116 815.5 c 128,-1,3
 138 827 138 827 161.5 854.5 c 128,-1,4
 185 882 185 882 198 926 c 128,-1,5
 211 970 211 970 225 1048 c 1,6,-1
 268 1048 l 1,7,-1
 268 810 l 1,8,-1
 550 810 l 1,9,-1
 543 756 l 1,10,-1
 266 756 l 1,11,-1
 264 301 l 2,12,13
 264 168 264 168 294.5 120.5 c 128,-1,14
 325 73 325 73 394 73 c 0,15,16
 427 73 427 73 468.5 91.5 c 128,-1,17
 510 110 510 110 534 129 c 2,18,-1
 559 148 l 1,19,-1
 575 115 l 1,20,21
 530 52 530 52 465.5 14 c 128,-1,22
 401 -24 401 -24 337 -24 c 0,23,24
 247 -24 247 -24 207.5 43 c 128,-1,25
 168 110 168 110 168 243 c 2,26,-1
 171 758 l 1,27,-1
 45 758 l 1,0,-1
EndSplineSet
Colour: ffff00
EndChar

StartChar: thorn
Encoding: 254 254 191
Width: 944
VWidth: 0
Flags: HMW
LayerCount: 2
Fore
SplineSet
45 -374 m 1,0,-1
 50 -335 l 1,1,-1
 200 -313 l 1,2,-1
 200 1190 l 1,3,-1
 49 1221 l 1,4,-1
 52 1252 l 1,5,-1
 291 1272 l 1,6,-1
 299 1262 l 1,7,-1
 299 848 l 1,8,-1
 289 734 l 1,9,-1
 297 734 l 1,10,11
 345 800 345 800 418.5 849.5 c 128,-1,12
 492 899 492 899 580 899 c 0,13,14
 715 899 715 899 796 789 c 128,-1,15
 877 679 877 679 877 467 c 0,16,17
 877 253 877 253 757 116.5 c 128,-1,18
 637 -20 637 -20 448 -20 c 0,19,20
 389 -20 389 -20 337 -9 c 1,21,-1
 332 63 l 1,22,23
 391 40 391 40 501 40 c 0,24,25
 612 40 612 40 694 140.5 c 128,-1,26
 776 241 776 241 776 414 c 0,27,28
 776 598 776 598 713 708 c 128,-1,29
 650 818 650 818 520 818 c 0,30,31
 502 818 502 818 483.5 813.5 c 128,-1,32
 465 809 465 809 451.5 805 c 128,-1,33
 438 801 438 801 419.5 789 c 128,-1,34
 401 777 401 777 393 772 c 128,-1,35
 385 767 385 767 365.5 749 c 128,-1,36
 346 731 346 731 342.5 727.5 c 128,-1,37
 339 724 339 724 318.5 702.5 c 128,-1,38
 298 681 298 681 297 680 c 1,39,-1
 297 -315 l 1,40,-1
 452 -333 l 1,41,-1
 445 -374 l 1,42,-1
 45 -374 l 1,0,-1
EndSplineSet
Colour: ffff00
EndChar

StartChar: three
Encoding: 51 51 192
Width: 801
VWidth: 0
Flags: HMW
LayerCount: 2
Fore
SplineSet
49 106 m 1,0,-1
 88 333 l 1,1,-1
 138 323 l 1,2,-1
 144 136 l 1,3,4
 171 89 171 89 235 52 c 128,-1,5
 299 15 299 15 373 15 c 0,6,7
 486 15 486 15 560.5 90 c 128,-1,8
 635 165 635 165 635 287 c 0,9,10
 635 416 635 416 539.5 487 c 128,-1,11
 444 558 444 558 294 565 c 1,12,-1
 292 599 l 1,13,14
 297 602 297 602 323.5 616 c 128,-1,15
 350 630 350 630 360.5 636 c 128,-1,16
 371 642 371 642 397.5 658 c 128,-1,17
 424 674 424 674 437 684.5 c 128,-1,18
 450 695 450 695 473 714 c 128,-1,19
 496 733 496 733 508.5 749 c 128,-1,20
 521 765 521 765 537.5 788 c 128,-1,21
 554 811 554 811 562 833 c 128,-1,22
 570 855 570 855 576 882.5 c 128,-1,23
 582 910 582 910 582 939 c 0,24,25
 582 1022 582 1022 535 1089 c 128,-1,26
 488 1156 488 1156 403 1156 c 0,27,28
 286 1156 286 1156 210 1054 c 1,29,-1
 171 854 l 1,30,-1
 126 864 l 1,31,-1
 131 1093 l 1,32,33
 158 1116 158 1116 180 1131 c 128,-1,34
 202 1146 202 1146 241 1166 c 128,-1,35
 280 1186 280 1186 332.5 1196.5 c 128,-1,36
 385 1207 385 1207 448 1207 c 0,37,38
 557 1207 557 1207 630.5 1136.5 c 128,-1,39
 704 1066 704 1066 704 957 c 0,40,41
 704 844 704 844 629 759.5 c 128,-1,42
 554 675 554 675 452 637 c 1,43,-1
 452 628 l 1,44,45
 586 608 586 608 669 527.5 c 128,-1,46
 752 447 752 447 752 332 c 0,47,48
 752 227 752 227 693.5 141 c 128,-1,49
 635 55 635 55 544.5 9.5 c 128,-1,50
 454 -36 454 -36 355 -36 c 0,51,52
 248 -36 248 -36 166 3 c 128,-1,53
 84 42 84 42 49 106 c 1,0,-1
EndSplineSet
Substitution2: "'onum' Oldstyle Figures lookup 1-1" three.osf
Colour: ffff00
EndChar

StartChar: three.osf
Encoding: 65543 -1 193
Width: 758
VWidth: 0
Flags: HMW
LayerCount: 2
Fore
SplineSet
42 -112 m 0,0,1
 42 -76 42 -76 70 -43.5 c 128,-1,2
 98 -11 98 -11 133 -9 c 1,3,4
 155 -121 155 -121 211.5 -175 c 128,-1,5
 268 -229 268 -229 365 -229 c 0,6,7
 472 -229 472 -229 536.5 -157 c 128,-1,8
 601 -85 601 -85 601 17 c 0,9,10
 601 92 601 92 574.5 147.5 c 128,-1,11
 548 203 548 203 499 236 c 128,-1,12
 450 269 450 269 389.5 286 c 128,-1,13
 329 303 329 303 253 307 c 1,14,-1
 251 340 l 1,15,16
 541 476 541 476 541 665 c 0,17,18
 541 726 541 726 525 775 c 128,-1,19
 509 824 509 824 466 858.5 c 128,-1,20
 423 893 423 893 358 893 c 0,21,22
 286 893 286 893 233.5 831 c 128,-1,23
 181 769 181 769 151 674 c 1,24,-1
 96 692 l 1,25,26
 112 744 112 744 138 790.5 c 128,-1,27
 164 837 164 837 202 878 c 128,-1,28
 240 919 240 919 294.5 943 c 128,-1,29
 349 967 349 967 413 967 c 0,30,31
 519 967 519 967 589 891.5 c 128,-1,32
 659 816 659 816 659 704 c 0,33,34
 659 593 659 593 583 503.5 c 128,-1,35
 507 414 507 414 411 375 c 1,36,-1
 411 371 l 1,37,38
 524 364 524 364 618 276.5 c 128,-1,39
 712 189 712 189 712 66 c 0,40,41
 712 -76 712 -76 597 -184 c 128,-1,42
 482 -292 482 -292 332 -292 c 0,43,44
 227 -292 227 -292 134.5 -241.5 c 128,-1,45
 42 -191 42 -191 42 -112 c 0,0,1
EndSplineSet
Colour: ff00ff
EndChar

StartChar: threequarters
Encoding: 190 190 194
Width: 1229
VWidth: 0
Flags: HMW
LayerCount: 2
Fore
SplineSet
726 277 m 1,0,-1
 944 277 l 1,1,-1
 944 557 l 1,2,-1
 726 277 l 1,0,-1
620 231 m 1,3,-1
 1003 723 l 1,4,-1
 1047 716 l 1,5,6
 1039 621 1039 621 1039 420 c 2,7,-1
 1039 277 l 1,8,-1
 1187 277 l 1,9,-1
 1178 202 l 1,10,-1
 1039 202 l 1,11,-1
 1039 64 l 1,12,-1
 1156 45 l 1,13,-1
 1150 -1 l 1,14,-1
 776 -1 l 1,15,-1
 782 41 l 1,16,-1
 946 68 l 1,17,-1
 946 205 l 1,18,-1
 629 205 l 1,19,-1
 620 231 l 1,3,-1
235 -43 m 1,20,-1
 581 588 l 1,21,-1
 897 1212 l 1,22,-1
 994 1207 l 1,23,-1
 991 1203 l 1,24,-1
 660 591 l 1,25,-1
 336 -47 l 1,26,-1
 235 -43 l 1,20,-1
45 644 m 1,27,-1
 82 786 l 1,28,-1
 126 781 l 1,29,-1
 130 662 l 1,30,31
 146 634 146 634 185 612.5 c 128,-1,32
 224 591 224 591 269 591 c 0,33,34
 336 591 336 591 380.5 635 c 128,-1,35
 425 679 425 679 425 750 c 0,36,37
 425 824 425 824 350.5 869.5 c 128,-1,38
 276 915 276 915 183 919 c 1,39,-1
 182 939 l 1,40,41
 184 940 184 940 200.5 947 c 128,-1,42
 217 954 217 954 225.5 958 c 128,-1,43
 234 962 234 962 252.5 971.5 c 128,-1,44
 271 981 271 981 283 989 c 128,-1,45
 295 997 295 997 311.5 1009 c 128,-1,46
 328 1021 328 1021 338.5 1033.5 c 128,-1,47
 349 1046 349 1046 359 1061 c 128,-1,48
 369 1076 369 1076 374 1093.5 c 128,-1,49
 379 1111 379 1111 379 1130 c 0,50,51
 379 1177 379 1177 349 1217 c 128,-1,52
 319 1257 319 1257 272 1257 c 0,53,54
 195 1257 195 1257 168 1225 c 1,55,-1
 137 1100 l 1,56,-1
 87 1106 l 1,57,-1
 91 1245 l 1,58,59
 155 1309 155 1309 313 1309 c 0,60,61
 384 1309 384 1309 435 1264.5 c 128,-1,62
 486 1220 486 1220 486 1153 c 0,63,64
 486 1084 486 1084 434.5 1036 c 128,-1,65
 383 988 383 988 309 964 c 1,66,-1
 309 958 l 1,67,68
 406 946 406 946 467 892 c 128,-1,69
 528 838 528 838 528 766 c 0,70,71
 528 669 528 669 443 604 c 128,-1,72
 358 539 358 539 250 539 c 0,73,74
 176 539 176 539 123 567.5 c 128,-1,75
 70 596 70 596 45 644 c 1,27,-1
EndSplineSet
Colour: ffff00
EndChar

StartChar: three.superior
Encoding: 179 179 195
Width: 588
VWidth: 0
Flags: HMW
LayerCount: 2
Fore
SplineSet
51 632 m 1,0,-1
 88 774 l 1,1,-1
 132 769 l 1,2,-1
 136 650 l 1,3,4
 152 622 152 622 191 600.5 c 128,-1,5
 230 579 230 579 275 579 c 0,6,7
 342 579 342 579 386.5 623 c 128,-1,8
 431 667 431 667 431 738 c 0,9,10
 431 812 431 812 356.5 857.5 c 128,-1,11
 282 903 282 903 189 907 c 1,12,-1
 188 927 l 1,13,14
 190 928 190 928 206.5 935 c 128,-1,15
 223 942 223 942 231.5 946 c 128,-1,16
 240 950 240 950 258.5 959.5 c 128,-1,17
 277 969 277 969 289 977 c 128,-1,18
 301 985 301 985 317.5 997 c 128,-1,19
 334 1009 334 1009 344.5 1021.5 c 128,-1,20
 355 1034 355 1034 365 1049 c 128,-1,21
 375 1064 375 1064 380 1081.5 c 128,-1,22
 385 1099 385 1099 385 1118 c 0,23,24
 385 1165 385 1165 355 1205 c 128,-1,25
 325 1245 325 1245 278 1245 c 0,26,27
 201 1245 201 1245 174 1213 c 1,28,-1
 143 1088 l 1,29,-1
 93 1094 l 1,30,-1
 97 1233 l 1,31,32
 161 1297 161 1297 319 1297 c 0,33,34
 390 1297 390 1297 441 1252.5 c 128,-1,35
 492 1208 492 1208 492 1141 c 0,36,37
 492 1072 492 1072 440.5 1024 c 128,-1,38
 389 976 389 976 315 952 c 1,39,-1
 315 946 l 1,40,41
 412 934 412 934 473 880 c 128,-1,42
 534 826 534 826 534 754 c 0,43,44
 534 657 534 657 449 592 c 128,-1,45
 364 527 364 527 256 527 c 0,46,47
 182 527 182 527 129 555.5 c 128,-1,48
 76 584 76 584 51 632 c 1,0,-1
EndSplineSet
Colour: ffff00
EndChar

StartChar: tilde
Encoding: 732 732 196
Width: 627
VWidth: 0
Flags: HMW
LayerCount: 2
Fore
SplineSet
80 1383 m 1,0,1
 80 1385 80 1385 81 1389 c 128,-1,2
 82 1393 82 1393 85.5 1404.5 c 128,-1,3
 89 1416 89 1416 93 1426 c 128,-1,4
 97 1436 97 1436 104.5 1451.5 c 128,-1,5
 112 1467 112 1467 120.5 1477 c 128,-1,6
 129 1487 129 1487 141.5 1499.5 c 128,-1,7
 154 1512 154 1512 168 1516 c 128,-1,8
 182 1520 182 1520 200 1523 c 128,-1,9
 218 1526 218 1526 238 1518 c 1,10,-1
 419 1464 l 2,11,12
 451 1454 451 1454 475 1471 c 128,-1,13
 499 1488 499 1488 507 1510 c 2,14,-1
 515 1531 l 1,15,-1
 549 1529 l 1,16,17
 548 1527 548 1527 547 1523.5 c 128,-1,18
 546 1520 546 1520 542.5 1508 c 128,-1,19
 539 1496 539 1496 537.5 1493.5 c 2,20,-1
 525 1468.5 l 2,21,22
 514 1446 514 1446 504.5 1435.5 c 128,-1,23
 495 1425 495 1425 482.5 1413 c 128,-1,24
 470 1401 470 1401 455.5 1397 c 128,-1,25
 441 1393 441 1393 422.5 1390 c 128,-1,26
 404 1387 404 1387 383 1395 c 1,27,-1
 207 1447 l 2,28,29
 179 1456 179 1456 153.5 1437 c 128,-1,30
 128 1418 128 1418 118 1394 c 2,31,-1
 108 1371 l 1,32,-1
 80 1383 l 1,0,1
EndSplineSet
Colour: ff00ff
EndChar

StartChar: two
Encoding: 50 50 197
Width: 898
VWidth: 0
Flags: HMW
LayerCount: 2
Back
SplineSet
596.216 0 m 5,0,-1
 65.9375 0 l 1,1,-1
 61.7734 70.7969 l 1,2,-1
 225.577 213.083 l 2,3,4
 269.304 250.563 269.304 250.563 297.066 276.245 c 128,-1,5
 324.83 301.924 324.83 301.924 361.27 341.487 c 128,-1,6
 397.708 381.051 397.708 381.051 418.531 413.673 c 128,-1,7
 439.354 446.294 439.354 446.294 454.624 487.592 c 128,-1,8
 469.893 528.89 469.893 528.89 469.894 569.842 c 0,9,10
 469.894 745.444 469.894 745.444 327.607 744.75 c 0,11,12
 213.778 744.75 213.778 744.75 144.368 568.453 c 1,13,-1
 87.4541 589.275 l 1,14,15
 97.8647 633.698 97.8647 633.698 123.2 677.771 c 128,-1,16
 148.534 721.844 148.534 721.844 184.278 757.938 c 128,-1,17
 220.024 794.03 220.024 794.03 268.61 816.588 c 128,-1,18
 317.195 839.145 317.195 839.145 369.251 839.146 c 0,19,20
 481 839.146 481 839.146 538.607 777.371 c 128,-1,21
 596.217 715.598 596.217 715.598 596.216 600.38 c 0,22,23
 596.216 564.288 596.216 564.288 585.805 528.196 c 128,-1,24
 575.394 492.105 575.394 492.105 560.124 461.564 c 128,-1,25
 544.852 431.025 544.852 431.025 519.868 397.708 c 128,-1,26
 494.88 364.393 494.88 364.393 471.976 339.753 c 128,-1,27
 449.071 315.112 449.071 315.112 416.449 284.573 c 128,-1,28
 383.827 254.034 383.827 254.034 361.27 235.294 c 128,-1,29
 338.713 216.551 338.713 216.551 305.396 188.79 c 128,-1,30
 272.08 161.026 272.08 161.026 256.811 147.839 c 2,31,-1
 193.649 93.0078 l 1,32,-1
 520.562 93.0078 l 1,33,-1
 587.193 216.555 l 1,34,-1
 635.085 209.612 l 1,35,-1
 596.216 0 l 5,0,-1
EndSplineSet
Fore
SplineSet
46 46 m 1,0,-1
 286 256 l 2,1,2
 438 388 438 388 516.5 474.5 c 128,-1,3
 595 561 595 561 637.5 656 c 128,-1,4
 680 751 680 751 680 863 c 0,5,6
 680 985 680 985 617 1068 c 128,-1,7
 554 1151 554 1151 441 1151 c 0,8,9
 280 1151 280 1151 209 1054 c 1,10,-1
 164 834 l 1,11,-1
 128 841 l 1,12,-1
 134 1093 l 1,13,14
 181 1136 181 1136 269 1171.5 c 128,-1,15
 357 1207 357 1207 466 1207 c 0,16,17
 618 1207 618 1207 712 1119.5 c 128,-1,18
 806 1032 806 1032 806 854 c 0,19,20
 806 793 806 793 791 737.5 c 128,-1,21
 776 682 776 682 745 629.5 c 128,-1,22
 714 577 714 577 670 524.5 c 128,-1,23
 626 472 626 472 565 415 c 128,-1,24
 504 358 504 358 432.5 296.5 c 128,-1,25
 361 235 361 235 272 161 c 0,26,27
 266 157 266 157 263 154 c 2,28,-1
 181 85 l 1,29,-1
 725 85 l 1,30,-1
 812 354 l 1,31,-1
 852 348 l 1,32,-1
 806 0 l 1,33,-1
 52 0 l 1,34,-1
 46 46 l 1,0,-1
EndSplineSet
Substitution2: "'onum' Oldstyle Figures lookup 1-1" two.osf
Colour: ffff00
EndChar

StartChar: two.osf
Encoding: 65544 -1 198
Width: 799
VWidth: 0
Flags: HMW
LayerCount: 2
Fore
SplineSet
46 46 m 1,0,-1
 287 256 l 2,1,2
 402 356 402 356 443 403 c 1,3,4
 554 538 554 538 556 698 c 1,5,6
 556 781 556 781 511.5 839 c 128,-1,7
 467 897 467 897 388 897 c 0,8,9
 303 897 303 897 234 824 c 128,-1,10
 165 751 165 751 139 649 c 1,11,-1
 83 668 l 1,12,13
 107 789 107 789 204 879 c 128,-1,14
 301 969 301 969 415 969 c 0,15,16
 537 969 537 969 607.5 896 c 128,-1,17
 678 823 678 823 678 691 c 0,18,19
 678 659 678 659 671.5 627 c 128,-1,20
 665 595 665 595 655.5 568 c 128,-1,21
 646 541 646 541 626.5 510.5 c 128,-1,22
 607 480 607 480 592 457.5 c 128,-1,23
 577 435 577 435 547.5 404 c 128,-1,24
 518 373 518 373 499 354.5 c 128,-1,25
 480 336 480 336 443 303.5 c 128,-1,26
 406 271 406 271 386.5 255 c 128,-1,27
 367 239 367 239 324.5 204 c 128,-1,28
 282 169 282 169 264 154 c 2,29,-1
 183 85 l 1,30,-1
 635 85 l 1,31,-1
 714 290 l 1,32,-1
 753 281 l 1,33,-1
 714 0 l 1,34,-1
 53 0 l 1,35,-1
 46 46 l 1,0,-1
EndSplineSet
Colour: ff00ff
EndChar

StartChar: two.superior
Encoding: 178 178 199
Width: 634
VWidth: 0
Flags: HMW
LayerCount: 2
Fore
SplineSet
50 613 m 1,0,-1
 201 738 l 2,1,2
 331 846 331 846 380 915 c 128,-1,3
 429 984 429 984 429 1074 c 0,4,5
 429 1142 429 1142 392.5 1188 c 128,-1,6
 356 1234 356 1234 291 1234 c 0,7,8
 195 1234 195 1234 166 1213 c 1,9,-1
 140 1063 l 1,10,-1
 98 1067 l 1,11,-1
 103 1226 l 1,12,13
 130 1252 130 1252 188 1271 c 128,-1,14
 246 1290 246 1290 319 1290 c 0,15,16
 418 1290 418 1290 479 1237.5 c 128,-1,17
 540 1185 540 1185 540 1077 c 0,18,19
 540 1045 540 1045 531 1014.5 c 128,-1,20
 522 984 522 984 511.5 960 c 128,-1,21
 501 936 501 936 472 903 c 128,-1,22
 443 870 443 870 424 849.5 c 128,-1,23
 405 829 405 829 356.5 789 c 128,-1,24
 308 749 308 749 280.5 727.5 c 128,-1,25
 253 706 253 706 187 654 c 1,26,-1
 183 651 l 1,27,-1
 499 651 l 1,28,-1
 543 799 l 1,29,-1
 578 796 l 1,30,-1
 558 566 l 1,31,-1
 53 566 l 1,32,-1
 50 613 l 1,0,-1
EndSplineSet
Colour: ffff00
EndChar

StartChar: u
Encoding: 117 117 200
Width: 999
VWidth: 0
Flags: HMW
LayerCount: 2
Fore
SplineSet
46 816 m 1,0,-1
 50 843 l 1,1,-1
 280 863 l 1,2,-1
 288 854 l 1,3,-1
 288 317 l 2,4,5
 288 59 288 59 475 59 c 0,6,7
 538 59 538 59 600 96.5 c 128,-1,8
 662 134 662 134 703 183 c 1,9,-1
 703 786 l 1,10,-1
 548 816 l 1,11,-1
 550 843 l 1,12,-1
 787 863 l 1,13,-1
 794 854 l 1,14,-1
 794 230 l 2,15,16
 794 195 794 195 795 174 c 128,-1,17
 796 153 796 153 801 128.5 c 128,-1,18
 806 104 806 104 815.5 90.5 c 128,-1,19
 825 77 825 77 842.5 65.5 c 128,-1,20
 860 54 860 54 885 50 c 1,21,-1
 947 37 l 1,22,-1
 941 3 l 1,23,24
 894 -18 894 -18 839 -18 c 0,25,26
 780 -18 780 -18 747 21.5 c 128,-1,27
 714 61 714 61 714 117 c 2,28,-1
 714 133 l 1,29,-1
 703 133 l 1,30,31
 652 58 652 58 580.5 17 c 128,-1,32
 509 -24 509 -24 434 -24 c 0,33,34
 201 -24 201 -24 201 283 c 2,35,-1
 201 786 l 1,36,-1
 46 816 l 1,0,-1
EndSplineSet
Colour: ffff00
EndChar

StartChar: uacute
Encoding: 250 250 201
Width: 999
VWidth: 0
Flags: HMW
LayerCount: 2
Fore
SplineSet
53 816 m 1,0,-1
 57 843 l 1,1,-1
 287 863 l 1,2,-1
 295 854 l 1,3,-1
 295 317 l 2,4,5
 295 59 295 59 482 59 c 0,6,7
 545 59 545 59 607 96.5 c 128,-1,8
 669 134 669 134 710 183 c 1,9,-1
 710 786 l 1,10,-1
 555 816 l 1,11,-1
 557 843 l 1,12,-1
 794 863 l 1,13,-1
 801 854 l 1,14,-1
 801 230 l 2,15,16
 801 195 801 195 802 174 c 128,-1,17
 803 153 803 153 808 128.5 c 128,-1,18
 813 104 813 104 822.5 90.5 c 128,-1,19
 832 77 832 77 849.5 65.5 c 128,-1,20
 867 54 867 54 892 50 c 1,21,-1
 954 37 l 1,22,-1
 948 3 l 1,23,24
 901 -18 901 -18 846 -18 c 0,25,26
 787 -18 787 -18 754 21.5 c 128,-1,27
 721 61 721 61 721 117 c 2,28,-1
 721 133 l 1,29,-1
 710 133 l 1,30,31
 659 58 659 58 587.5 17 c 128,-1,32
 516 -24 516 -24 441 -24 c 0,33,34
 208 -24 208 -24 208 283 c 2,35,-1
 208 786 l 1,36,-1
 53 816 l 1,0,-1
426 1017 m 1,37,-1
 558 1354 l 1,38,-1
 654 1315 l 1,39,-1
 471 991 l 1,40,-1
 426 1017 l 1,37,-1
EndSplineSet
Colour: ffff00
EndChar

StartChar: ucircumflex
Encoding: 251 251 202
Width: 999
VWidth: 0
Flags: HMW
LayerCount: 2
Fore
SplineSet
53 816 m 1,0,-1
 57 843 l 1,1,-1
 287 863 l 1,2,-1
 295 854 l 1,3,-1
 295 317 l 2,4,5
 295 59 295 59 482 59 c 0,6,7
 545 59 545 59 607 96.5 c 128,-1,8
 669 134 669 134 710 183 c 1,9,-1
 710 786 l 1,10,-1
 555 816 l 1,11,-1
 557 843 l 1,12,-1
 794 863 l 1,13,-1
 801 854 l 1,14,-1
 801 230 l 2,15,16
 801 195 801 195 802 174 c 128,-1,17
 803 153 803 153 808 128.5 c 128,-1,18
 813 104 813 104 822.5 90.5 c 128,-1,19
 832 77 832 77 849.5 65.5 c 128,-1,20
 867 54 867 54 892 50 c 1,21,-1
 954 37 l 1,22,-1
 948 3 l 1,23,24
 901 -18 901 -18 846 -18 c 0,25,26
 787 -18 787 -18 754 21.5 c 128,-1,27
 721 61 721 61 721 117 c 2,28,-1
 721 133 l 1,29,-1
 710 133 l 1,30,31
 659 58 659 58 587.5 17 c 128,-1,32
 516 -24 516 -24 441 -24 c 0,33,34
 208 -24 208 -24 208 283 c 2,35,-1
 208 786 l 1,36,-1
 53 816 l 1,0,-1
286 1025 m 1,37,-1
 453 1206 l 1,38,-1
 507 1219 l 1,39,-1
 686 1033 l 1,40,-1
 654 996 l 1,41,-1
 473 1131 l 1,42,-1
 464 1131 l 1,43,-1
 307 995 l 1,44,-1
 286 1025 l 1,37,-1
EndSplineSet
Colour: ffff00
EndChar

StartChar: udieresis
Encoding: 252 252 203
Width: 999
VWidth: 0
Flags: HMW
LayerCount: 2
Fore
SplineSet
53 816 m 1,0,-1
 57 843 l 1,1,-1
 287 863 l 1,2,-1
 295 854 l 1,3,-1
 295 317 l 2,4,5
 295 59 295 59 482 59 c 0,6,7
 545 59 545 59 607 96.5 c 128,-1,8
 669 134 669 134 710 183 c 1,9,-1
 710 786 l 1,10,-1
 555 816 l 1,11,-1
 557 843 l 1,12,-1
 794 863 l 1,13,-1
 801 854 l 1,14,-1
 801 230 l 2,15,16
 801 195 801 195 802 174 c 128,-1,17
 803 153 803 153 808 128.5 c 128,-1,18
 813 104 813 104 822.5 90.5 c 128,-1,19
 832 77 832 77 849.5 65.5 c 128,-1,20
 867 54 867 54 892 50 c 1,21,-1
 954 37 l 1,22,-1
 948 3 l 1,23,24
 901 -18 901 -18 846 -18 c 0,25,26
 787 -18 787 -18 754 21.5 c 128,-1,27
 721 61 721 61 721 117 c 2,28,-1
 721 133 l 1,29,-1
 710 133 l 1,30,31
 659 58 659 58 587.5 17 c 128,-1,32
 516 -24 516 -24 441 -24 c 0,33,34
 208 -24 208 -24 208 283 c 2,35,-1
 208 786 l 1,36,-1
 53 816 l 1,0,-1
538 1085 m 0,37,38
 538 1163 538 1163 592 1163 c 0,39,40
 650 1163 650 1163 650 1085 c 0,41,42
 650 1004 650 1004 593 1004 c 0,43,44
 538 1004 538 1004 538 1085 c 0,37,38
269 1085 m 0,45,46
 269 1163 269 1163 324 1163 c 0,47,48
 382 1163 382 1163 382 1085 c 0,49,50
 382 1044 382 1044 369.5 1024 c 128,-1,51
 357 1004 357 1004 326 1004 c 0,52,53
 269 1004 269 1004 269 1085 c 0,45,46
EndSplineSet
Colour: ffff00
EndChar

StartChar: ugrave
Encoding: 249 249 204
Width: 999
VWidth: 0
Flags: HMW
LayerCount: 2
Fore
SplineSet
53 816 m 1,0,-1
 57 843 l 1,1,-1
 287 863 l 1,2,-1
 295 854 l 1,3,-1
 295 317 l 2,4,5
 295 59 295 59 482 59 c 0,6,7
 545 59 545 59 607 96.5 c 128,-1,8
 669 134 669 134 710 183 c 1,9,-1
 710 786 l 1,10,-1
 555 816 l 1,11,-1
 557 843 l 1,12,-1
 794 863 l 1,13,-1
 801 854 l 1,14,-1
 801 230 l 2,15,16
 801 195 801 195 802 174 c 128,-1,17
 803 153 803 153 808 128.5 c 128,-1,18
 813 104 813 104 822.5 90.5 c 128,-1,19
 832 77 832 77 849.5 65.5 c 128,-1,20
 867 54 867 54 892 50 c 1,21,-1
 954 37 l 1,22,-1
 948 3 l 1,23,24
 901 -18 901 -18 846 -18 c 0,25,26
 787 -18 787 -18 754 21.5 c 128,-1,27
 721 61 721 61 721 117 c 2,28,-1
 721 133 l 1,29,-1
 710 133 l 1,30,31
 659 58 659 58 587.5 17 c 128,-1,32
 516 -24 516 -24 441 -24 c 0,33,34
 208 -24 208 -24 208 283 c 2,35,-1
 208 786 l 1,36,-1
 53 816 l 1,0,-1
301 1298 m 1,37,-1
 395 1335 l 1,38,-1
 528 999 l 1,39,-1
 482 972 l 1,40,-1
 301 1298 l 1,37,-1
EndSplineSet
Colour: ffff00
EndChar

StartChar: underscore
Encoding: 95 95 205
Width: 986
VWidth: 0
Flags: HMW
LayerCount: 2
Fore
SplineSet
74 -133 m 1,0,-1
 85 -66 l 1,1,-1
 913 -66 l 1,2,-1
 905 -133 l 1,3,-1
 74 -133 l 1,0,-1
EndSplineSet
Colour: ffff00
EndChar

StartChar: Germandbls
Encoding: 7838 7838 206
Width: 1244
VWidth: 0
Flags: HMW
LayerCount: 2
Fore
SplineSet
50 0 m 1,0,-1
 55 42 l 1,1,-1
 225 72 l 1,2,-1
 225 763 l 2,3,4
 225 1024 225 1024 344 1147.5 c 128,-1,5
 463 1271 463 1271 693 1271 c 0,6,7
 791 1271 791 1271 890 1245.5 c 128,-1,8
 989 1220 989 1220 1059.5 1170.5 c 128,-1,9
 1130 1121 1130 1121 1130 1062 c 0,10,11
 1130 1023 1130 1023 1110 1001.5 c 128,-1,12
 1090 980 1090 980 1047 966 c 1,13,14
 1029 1057 1029 1057 967.5 1125.5 c 128,-1,15
 906 1194 906 1194 811 1194 c 0,16,17
 737 1194 737 1194 670.5 1132 c 128,-1,18
 604 1070 604 1070 604 964 c 0,19,20
 604 901 604 901 636.5 846 c 128,-1,21
 669 791 669 791 720.5 750.5 c 128,-1,22
 772 710 772 710 834 672 c 128,-1,23
 896 634 896 634 958.5 596 c 128,-1,24
 1021 558 1021 558 1072.5 518 c 128,-1,25
 1124 478 1124 478 1156.5 424 c 128,-1,26
 1189 370 1189 370 1189 308 c 0,27,28
 1189 163 1189 163 1079 68.5 c 128,-1,29
 969 -26 969 -26 786 -26 c 0,30,31
 682 -26 682 -26 595.5 14 c 128,-1,32
 509 54 509 54 458 116 c 1,33,-1
 487 401 l 1,34,-1
 536 393 l 1,35,-1
 562 174 l 1,36,37
 595 111 595 111 673 74 c 128,-1,38
 751 37 751 37 839 37 c 0,39,40
 939 37 939 37 1009.5 96.5 c 128,-1,41
 1080 156 1080 156 1080 262 c 0,42,43
 1080 319 1080 319 1048.5 369.5 c 128,-1,44
 1017 420 1017 420 966 458.5 c 128,-1,45
 915 497 915 497 854 534.5 c 128,-1,46
 793 572 793 572 732 611 c 128,-1,47
 671 650 671 650 620 692.5 c 128,-1,48
 569 735 569 735 537.5 793 c 128,-1,49
 506 851 506 851 506 918 c 0,50,51
 506 979 506 979 528.5 1038.5 c 128,-1,52
 551 1098 551 1098 600.5 1147.5 c 128,-1,53
 650 1197 650 1197 717 1213 c 1,54,-1
 718 1218 l 1,55,56
 698 1221 698 1221 630 1221 c 0,57,58
 484 1221 484 1221 406 1103 c 128,-1,59
 328 985 328 985 328 786 c 2,60,-1
 328 0 l 1,61,-1
 50 0 l 1,0,-1
EndSplineSet
Colour: ff00ff
EndChar

StartChar: Germandbls.alt
Encoding: 65545 -1 207
Width: 1231
VWidth: 0
Flags: HMW
LayerCount: 2
Fore
SplineSet
44 0 m 1,0,-1
 49 42 l 1,1,-1
 219 72 l 1,2,-1
 219 763 l 2,3,4
 219 1024 219 1024 338 1147.5 c 128,-1,5
 457 1271 457 1271 687 1271 c 0,6,7
 808 1271 808 1271 922 1259.5 c 128,-1,8
 1036 1248 1036 1248 1082 1233 c 1,9,-1
 1082 1202 l 1,10,-1
 735 736 l 1,11,12
 759 721 759 721 815 690.5 c 128,-1,13
 871 660 871 660 913.5 636 c 128,-1,14
 956 612 956 612 1009.5 573 c 128,-1,15
 1063 534 1063 534 1098.5 497.5 c 128,-1,16
 1134 461 1134 461 1158.5 411 c 128,-1,17
 1183 361 1183 361 1183 308 c 0,18,19
 1183 163 1183 163 1073 68.5 c 128,-1,20
 963 -26 963 -26 780 -26 c 0,21,22
 676 -26 676 -26 589.5 14 c 128,-1,23
 503 54 503 54 452 116 c 1,24,-1
 481 401 l 1,25,-1
 530 393 l 1,26,-1
 556 174 l 1,27,28
 589 111 589 111 667 74 c 128,-1,29
 745 37 745 37 833 37 c 0,30,31
 933 37 933 37 1003.5 96.5 c 128,-1,32
 1074 156 1074 156 1074 262 c 0,33,34
 1074 309 1074 309 1051 354.5 c 128,-1,35
 1028 400 1028 400 994.5 434.5 c 128,-1,36
 961 469 961 469 909.5 506.5 c 128,-1,37
 858 544 858 544 815 569 c 128,-1,38
 772 594 772 594 714.5 627 c 128,-1,39
 657 660 657 660 627 680 c 1,40,-1
 606 721 l 1,41,-1
 945 1171 l 1,42,-1
 945 1174 l 1,43,44
 892 1195 892 1195 795.5 1208 c 128,-1,45
 699 1221 699 1221 624 1221 c 0,46,47
 478 1221 478 1221 400 1103 c 128,-1,48
 322 985 322 985 322 786 c 2,49,-1
 322 0 l 1,50,-1
 44 0 l 1,0,-1
EndSplineSet
Colour: ff00ff
EndChar

StartChar: v
Encoding: 118 118 208
Width: 959
VWidth: 0
Flags: HMW
LayerCount: 2
Fore
SplineSet
46 813 m 1,0,-1
 50 848 l 1,1,-1
 415 848 l 1,2,-1
 412 816 l 1,3,-1
 266 783 l 1,4,-1
 496 129 l 1,5,-1
 729 782 l 1,6,-1
 569 813 l 1,7,-1
 577 848 l 1,8,-1
 911 848 l 1,9,-1
 905 816 l 1,10,-1
 796 783 l 1,11,-1
 506 -11 l 1,12,-1
 455 -26 l 1,13,-1
 168 782 l 1,14,-1
 46 813 l 1,0,-1
EndSplineSet
Colour: ffff00
EndChar

